SplineFontDB: 3.0
FontName: Genze-Regular
FullName: Genze Regular
FamilyName: Genze
Weight: Book
Copyright: Copyright 2006 The Inconsolata Project Authors. Modification by tasuten.
Version: 2.000
ItalicAngle: 0
UnderlinePosition: -250
UnderlineWidth: 50
Ascent: 800
Descent: 200
InvalidEm: 0
sfntRevision: 0x00020000
LayerCount: 2
Layer: 0 1 "Back" 1
Layer: 1 1 "Fore" 0
XUID: [1021 619 1453230475 9923038]
StyleMap: 0x0040
FSType: 0
OS2Version: 4
OS2_WeightWidthSlopeOnly: 0
OS2_UseTypoMetrics: 1
CreationTime: 1472710287
ModificationTime: 1483879012
PfmFamily: 81
TTFWeight: 400
TTFWidth: 5
LineGap: 0
VLineGap: 0
Panose: 0 0 5 9 0 0 0 0 0 0
OS2TypoAscent: 859
OS2TypoAOffset: 0
OS2TypoDescent: -190
OS2TypoDOffset: 0
OS2TypoLinegap: 0
OS2WinAscent: 1004
OS2WinAOffset: 0
OS2WinDescent: 306
OS2WinDOffset: 0
HheadAscent: 859
HheadAOffset: 0
HheadDescent: -190
HheadDOffset: 0
OS2SubXSize: 650
OS2SubYSize: 600
OS2SubXOff: 0
OS2SubYOff: 75
OS2SupXSize: 650
OS2SupYSize: 600
OS2SupXOff: 0
OS2SupYOff: 350
OS2StrikeYSize: 50
OS2StrikeYPos: 274
OS2CapHeight: 623
OS2XHeight: 457
OS2Vendor: 'CYRE'
OS2CodePages: 20000193.00000000
OS2UnicodeRanges: 20000007.00000001.00000000.00000000
Lookup: 1 0 0 "'aalt' Access All Alternates in Latin lookup 0" { "'aalt' Access All Alternates in Latin lookup 0 subtable"  } ['aalt' ('DFLT' <'dflt' > 'latn' <'AZE ' 'CAT ' 'CRT ' 'KAZ ' 'MOL ' 'ROM ' 'TAT ' 'TRK ' 'dflt' > ) ]
Lookup: 3 0 0 "'aalt' Access All Alternates in Latin lookup 1" { "'aalt' Access All Alternates in Latin lookup 1 subtable"  } ['aalt' ('DFLT' <'dflt' > 'latn' <'AZE ' 'CAT ' 'CRT ' 'KAZ ' 'MOL ' 'ROM ' 'TAT ' 'TRK ' 'dflt' > ) ]

StartChar: exclam
Encoding: 261 33 5
Width: 500
GlyphClass: 2
Flags: W
LayerCount: 2
Fore
SplineSet
190 594 m 2,0,1
 190 629 190 629 203.5 648.5 c 128,-1,2
 217 668 217 668 241 668 c 0,3,4
 292 668 292 668 292 584 c 1,5,-1
 265 194 l 1,6,-1
 215 194 l 1,7,-1
 190 594 l 2,0,1
197.5 6 m 128,-1,9
 180 23 180 23 180 47 c 256,10,11
 180 71 180 71 197.5 89 c 128,-1,12
 215 107 215 107 239 107 c 256,13,14
 263 107 263 107 281 89 c 128,-1,15
 299 71 299 71 299 47 c 0,16,17
 299 24 299 24 281 6.5 c 128,-1,18
 263 -11 263 -11 239 -11 c 256,19,8
 215 -11 215 -11 197.5 6 c 128,-1,9
EndSplineSet
Validated: 1
EndChar

StartChar: numbersign
Encoding: 263 35 7
Width: 500
GlyphClass: 2
Flags: W
LayerCount: 2
Fore
SplineSet
270 10 m 1,0,-1
 292 193 l 1,1,-1
 181 193 l 1,2,-1
 160 14 l 1,3,-1
 101 13 l 1,4,-1
 122 191 l 1,5,-1
 25 191 l 1,6,-1
 29 236 l 1,7,-1
 128 236 l 1,8,-1
 148 407 l 1,9,-1
 39 407 l 1,10,-1
 42 453 l 1,11,-1
 153 453 l 1,12,-1
 173 624 l 1,13,-1
 234 626 l 1,14,-1
 213 455 l 1,15,-1
 323 455 l 1,16,-1
 343 622 l 1,17,-1
 405 623 l 1,18,-1
 385 457 l 1,19,-1
 476 457 l 1,20,-1
 470 410 l 1,21,-1
 379 410 l 1,22,-1
 358 241 l 1,23,-1
 457 241 l 1,24,-1
 452 196 l 1,25,-1
 353 196 l 1,26,-1
 331 14 l 1,27,-1
 270 10 l 1,0,-1
187 238 m 1,28,-1
 297 238 l 1,29,-1
 318 408 l 1,30,-1
 207 408 l 1,31,-1
 187 238 l 1,28,-1
EndSplineSet
Validated: 1
EndChar

StartChar: dollar
Encoding: 264 36 8
Width: 500
GlyphClass: 2
Flags: W
LayerCount: 2
Fore
SplineSet
235 14 m 1,0,1
 128 21 128 21 60 94 c 1,2,-1
 103 154 l 2,3,4
 106 152 106 152 107 143.5 c 128,-1,5
 108 135 108 135 110 133 c 0,6,7
 159 80 159 80 235 72 c 1,8,-1
 235 292 l 1,9,10
 155 319 155 319 117 355.5 c 128,-1,11
 79 392 79 392 79 446 c 0,12,13
 79 501 79 501 122.5 541 c 128,-1,14
 166 581 166 581 235 591 c 1,15,-1
 235 651 l 1,16,-1
 299 651 l 2,17,18
 300 650 300 650 300 648 c 256,19,20
 300 646 300 646 297 640.5 c 128,-1,21
 294 635 294 635 293 630 c 2,22,-1
 293 592 l 1,23,24
 386 582 386 582 442 515 c 1,25,-1
 399 461 l 1,26,27
 395 463 395 463 393 471 c 128,-1,28
 391 479 391 479 388 482 c 0,29,30
 354 522 354 522 293 533 c 1,31,-1
 293 340 l 1,32,33
 383 311 383 311 421.5 276 c 128,-1,34
 460 241 460 241 460 181 c 0,35,36
 460 143 460 143 439.5 107.5 c 128,-1,37
 419 72 419 72 381 47 c 128,-1,38
 343 22 343 22 293 16 c 1,39,-1
 293 -47 l 1,40,-1
 235 -47 l 1,41,-1
 235 14 l 1,0,1
235 534 m 1,42,43
 192 529 192 529 168.5 507 c 128,-1,44
 145 485 145 485 145 454 c 0,45,46
 145 397 145 397 235 361 c 1,47,-1
 235 534 l 1,42,43
367.5 112 m 128,-1,49
 395 141 395 141 395 177 c 0,50,51
 395 212 395 212 371.5 233.5 c 128,-1,52
 348 255 348 255 293 273 c 1,53,-1
 293 74 l 1,54,48
 340 83 340 83 367.5 112 c 128,-1,49
EndSplineSet
Validated: 1
EndChar

StartChar: percent
Encoding: 265 37 9
Width: 500
GlyphClass: 2
Flags: W
LayerCount: 2
Fore
SplineSet
84 390 m 128,-1,1
 58 407 58 407 43 437 c 128,-1,2
 28 467 28 467 28 504 c 0,3,4
 28 540 28 540 43 569.5 c 128,-1,5
 58 599 58 599 84 616.5 c 128,-1,6
 110 634 110 634 140 634 c 256,7,8
 170 634 170 634 196 616.5 c 128,-1,9
 222 599 222 599 237 569 c 128,-1,10
 252 539 252 539 252 503 c 0,11,12
 252 446 252 446 220 409.5 c 128,-1,13
 188 373 188 373 140 373 c 0,14,0
 110 373 110 373 84 390 c 128,-1,1
46 0 m 1,15,-1
 391 623 l 1,16,-1
 448 623 l 1,17,-1
 100 0 l 1,18,-1
 46 0 l 1,15,-1
175 445 m 128,-1,20
 189 464 189 464 189 504 c 256,21,22
 189 544 189 544 174 563 c 128,-1,23
 159 582 159 582 138 582 c 0,24,25
 118 582 118 582 103.5 563 c 128,-1,26
 89 544 89 544 89 504 c 0,27,28
 89 465 89 465 104 445.5 c 128,-1,29
 119 426 119 426 140 426 c 256,30,19
 161 426 161 426 175 445 c 128,-1,20
315 7 m 128,-1,32
 289 24 289 24 274 53.5 c 128,-1,33
 259 83 259 83 259 119 c 256,34,35
 259 155 259 155 274 184.5 c 128,-1,36
 289 214 289 214 315 231.5 c 128,-1,37
 341 249 341 249 371 249 c 0,38,39
 417 249 417 249 449.5 211 c 128,-1,40
 482 173 482 173 482 119 c 0,41,42
 482 83 482 83 467 53.5 c 128,-1,43
 452 24 452 24 426.5 7 c 128,-1,44
 401 -10 401 -10 371 -10 c 256,45,31
 341 -10 341 -10 315 7 c 128,-1,32
408.5 60 m 128,-1,47
 423 80 423 80 423 118 c 0,48,49
 423 153 423 153 408.5 175.5 c 128,-1,50
 394 198 394 198 370 198 c 0,51,52
 348 198 348 198 333 178.5 c 128,-1,53
 318 159 318 159 318 120 c 0,54,55
 318 80 318 80 334 60 c 128,-1,56
 350 40 350 40 372 40 c 256,57,46
 394 40 394 40 408.5 60 c 128,-1,47
EndSplineSet
Validated: 1
EndChar

StartChar: ampersand
Encoding: 266 38 10
Width: 500
GlyphClass: 2
Flags: W
LayerCount: 2
Fore
SplineSet
361 76 m 1,0,1
 330 36 330 36 285 13 c 128,-1,2
 240 -10 240 -10 192 -10 c 0,3,4
 148 -10 148 -10 112 10.5 c 128,-1,5
 76 31 76 31 56 65.5 c 128,-1,6
 36 100 36 100 36 141 c 0,7,8
 36 203 36 203 70 256.5 c 128,-1,9
 104 310 104 310 162 343 c 1,10,11
 91 429 91 429 91 498 c 0,12,13
 91 535 91 535 109.5 565 c 128,-1,14
 128 595 128 595 159.5 612 c 128,-1,15
 191 629 191 629 228 629 c 0,16,17
 267 629 267 629 298 610.5 c 128,-1,18
 329 592 329 592 346 562 c 128,-1,19
 363 532 363 532 363 498 c 0,20,21
 363 449 363 449 332.5 400 c 128,-1,22
 302 351 302 351 255 330 c 1,23,-1
 367 173 l 1,24,25
 391 202 391 202 400.5 223.5 c 128,-1,26
 410 245 410 245 412 274 c 0,27,28
 412 280 412 280 416 284 c 1,29,-1
 481 239 l 1,30,31
 444 174 444 174 405 123 c 1,32,-1
 475 32 l 1,33,-1
 416 -12 l 1,34,-1
 361 76 l 1,0,1
276.5 424 m 128,-1,36
 297 458 297 458 297 492 c 0,37,38
 297 525 297 525 276.5 547.5 c 128,-1,39
 256 570 256 570 229 570 c 0,40,41
 200 570 200 570 180 549.5 c 128,-1,42
 160 529 160 529 160 497 c 0,43,44
 160 449 160 449 221 373 c 1,45,35
 256 390 256 390 276.5 424 c 128,-1,36
324 123 m 1,47,-1
 197 296 l 1,48,49
 158 272 158 272 135 232 c 128,-1,50
 112 192 112 192 112 152 c 0,51,52
 112 111 112 111 137.5 82.5 c 128,-1,53
 163 54 163 54 199 54 c 0,54,46
 263 54 263 54 324 123 c 1,47,-1
EndSplineSet
Validated: 1
EndChar

StartChar: quotesingle
Encoding: 267 39 11
Width: 500
GlyphClass: 2
Flags: W
LayerCount: 2
Fore
SplineSet
290 665 m 1,0,1
 290 581 290 581 287.5 541.5 c 128,-1,2
 285 502 285 502 280 455 c 2,3,-1
 274 407 l 1,4,-1
 226 407 l 1,5,-1
 220 455 l 2,6,7
 215 500 215 500 212.5 540 c 128,-1,8
 210 580 210 580 210 665 c 1,9,-1
 290 665 l 1,0,1
EndSplineSet
Validated: 1
Substitution2: "'ss03' Style Set 3 in Latin lookup 27 subtable" quotesingle.ss03
Substitution2: "'aalt' Access All Alternates in Latin lookup 0 subtable" quotesingle.ss03
EndChar

StartChar: parenleft
Encoding: 268 40 12
Width: 500
GlyphClass: 2
Flags: W
LayerCount: 2
Fore
SplineSet
251 -70 m 128,-1,1
 189 -4 189 -4 155.5 79 c 128,-1,2
 122 162 122 162 122 250 c 256,3,4
 122 338 122 338 155 419 c 128,-1,5
 188 500 188 500 248.5 563.5 c 128,-1,6
 309 627 309 627 389 665 c 1,7,-1
 408 603 l 1,8,9
 310 550 310 550 251.5 454 c 128,-1,10
 193 358 193 358 193 247 c 0,11,12
 193 135 193 135 253 37 c 128,-1,13
 313 -61 313 -61 414 -114 c 1,14,-1
 395 -174 l 1,15,0
 313 -136 313 -136 251 -70 c 128,-1,1
EndSplineSet
Validated: 1
EndChar

StartChar: parenright
Encoding: 269 41 13
Width: 500
GlyphClass: 2
Flags: W
LayerCount: 2
Fore
SplineSet
114 -114 m 1,0,1
 215 -61 215 -61 275 37 c 128,-1,2
 335 135 335 135 335 247 c 0,3,4
 335 358 335 358 276.5 454 c 128,-1,5
 218 550 218 550 120 603 c 1,6,-1
 139 665 l 1,7,8
 219 627 219 627 279.5 563.5 c 128,-1,9
 340 500 340 500 373 419 c 128,-1,10
 406 338 406 338 406 250 c 256,11,12
 406 162 406 162 372.5 79 c 128,-1,13
 339 -4 339 -4 277 -70 c 128,-1,14
 215 -136 215 -136 133 -174 c 1,15,-1
 114 -114 l 1,0,1
EndSplineSet
Validated: 1
EndChar

StartChar: asterisk
Encoding: 270 42 14
Width: 500
GlyphClass: 2
Flags: W
LayerCount: 2
Fore
SplineSet
138 123 m 1,0,-1
 84 167 l 1,1,-1
 214 317 l 1,2,-1
 41 370 l 1,3,-1
 67 435 l 1,4,-1
 229 359 l 1,5,-1
 213 536 l 1,6,-1
 291 536 l 1,7,-1
 273 359 l 1,8,-1
 432 431 l 1,9,-1
 458 370 l 1,10,-1
 287 318 l 1,11,-1
 413 167 l 1,12,-1
 358 124 l 1,13,-1
 250 290 l 1,14,-1
 138 123 l 1,0,-1
EndSplineSet
Validated: 1
Substitution2: "'ss01' Style Set 1 in Latin lookup 25 subtable" asterisk.ss01
Substitution2: "'salt' Stylistic Alternatives in Latin lookup 24 subtable" asterisk.ss01
Substitution2: "'aalt' Access All Alternates in Latin lookup 0 subtable" asterisk.ss01
EndChar

StartChar: plus
Encoding: 271 43 15
Width: 500
GlyphClass: 2
Flags: W
LayerCount: 2
Fore
SplineSet
222 104 m 1,0,-1
 222 291 l 1,1,-1
 45 291 l 1,2,-1
 45 352 l 1,3,-1
 222 352 l 1,4,-1
 222 523 l 1,5,-1
 285 523 l 1,6,-1
 285 352 l 1,7,-1
 456 352 l 1,8,-1
 456 291 l 1,9,-1
 285 291 l 1,10,-1
 285 104 l 1,11,-1
 222 104 l 1,0,-1
EndSplineSet
Validated: 1
EndChar

StartChar: comma
Encoding: 272 44 16
Width: 500
GlyphClass: 2
Flags: W
LayerCount: 2
Fore
SplineSet
165 -138 m 1,0,1
 193 -112 193 -112 211.5 -82 c 128,-1,2
 230 -52 230 -52 230 -33 c 0,3,4
 230 -24 230 -24 225 -18 c 128,-1,5
 220 -12 220 -12 207 0 c 0,6,7
 193 13 193 13 186 22 c 128,-1,8
 179 31 179 31 179 44 c 0,9,10
 179 69 179 69 195.5 86 c 128,-1,11
 212 103 212 103 238 103 c 0,12,13
 265 103 265 103 285.5 79.5 c 128,-1,14
 306 56 306 56 306 20 c 0,15,16
 306 -58 306 -58 199 -168 c 1,17,-1
 165 -138 l 1,0,1
EndSplineSet
Validated: 1
EndChar

StartChar: hyphen
Encoding: 273 45 17
Width: 500
GlyphClass: 2
Flags: W
LayerCount: 2
Fore
SplineSet
71 281 m 1,0,-1
 71 348 l 1,1,-1
 431 348 l 1,2,-1
 431 281 l 1,3,-1
 71 281 l 1,0,-1
EndSplineSet
Validated: 1
EndChar

StartChar: period
Encoding: 274 46 18
Width: 500
GlyphClass: 2
Flags: W
LayerCount: 2
Fore
SplineSet
197 6 m 128,-1,1
 180 23 180 23 180 46 c 256,2,3
 180 69 180 69 197 86 c 128,-1,4
 214 103 214 103 238 103 c 0,5,6
 261 103 261 103 278 86 c 128,-1,7
 295 69 295 69 295 46 c 256,8,9
 295 23 295 23 278 6 c 128,-1,10
 261 -11 261 -11 238 -11 c 0,11,0
 214 -11 214 -11 197 6 c 128,-1,1
EndSplineSet
Validated: 1
EndChar

StartChar: slash
Encoding: 275 47 19
Width: 500
GlyphClass: 2
Flags: W
LayerCount: 2
Fore
SplineSet
123 -42 m 1,0,-1
 64 -13 l 1,1,-1
 377 665 l 1,2,-1
 437 634 l 1,3,-1
 123 -42 l 1,0,-1
EndSplineSet
Validated: 1
Substitution2: "'frac' Diagonal Fractions in Latin lookup 17 subtable" fraction
Substitution2: "'aalt' Access All Alternates in Latin lookup 0 subtable" fraction
EndChar

StartChar: zero
Encoding: 276 48 20
Width: 500
GlyphClass: 2
Flags: W
LayerCount: 2
Fore
SplineSet
392.5 542 m 128,-1,1
 443 457 443 457 443 308 c 0,2,3
 443 155 443 155 393 72 c 128,-1,4
 343 -11 343 -11 250 -11 c 256,5,6
 157 -11 157 -11 107 72 c 128,-1,7
 57 155 57 155 57 308 c 0,8,9
 57 457 57 457 107.5 542 c 128,-1,10
 158 627 158 627 250 627 c 256,11,0
 342 627 342 627 392.5 542 c 128,-1,1
161 496.5 m 128,-1,13
 129 427 129 427 129 308 c 0,14,15
 129 243 129 243 138 193 c 1,16,-1
 350 467 l 1,17,18
 335 515 335 515 309.5 540.5 c 128,-1,19
 284 566 284 566 250 566 c 0,20,12
 193 566 193 566 161 496.5 c 128,-1,13
339 117 m 128,-1,22
 371 184 371 184 371 308 c 0,23,24
 371 366 371 366 364 408 c 1,25,-1
 152 138 l 1,26,27
 184 50 184 50 250 50 c 0,28,21
 307 50 307 50 339 117 c 128,-1,22
EndSplineSet
Validated: 1
Substitution2: "'ss02' Style Set 2 in Latin lookup 26 subtable" zero.ss02
Substitution2: "'zero' Slashed Zero in Latin lookup 23 subtable" zero.zero
Substitution2: "'frac' Diagonal Fractions in Latin lookup 18 subtable" zero.numr
Substitution2: "'dnom' Denominators in Latin lookup 16 subtable" zero.dnom
Substitution2: "'numr' Numerators in Latin lookup 15 subtable" zero.numr
Substitution2: "'sups' Superscript in Latin lookup 14 subtable" uni2070
Substitution2: "'subs' Subscript in Latin lookup 13 subtable" uni2080
AlternateSubs2: "'aalt' Access All Alternates in Latin lookup 1 subtable" uni2080 uni2070 zero.numr zero.dnom zero.zero zero.ss02
EndChar

StartChar: one
Encoding: 277 49 21
Width: 500
GlyphClass: 2
Flags: WO
LayerCount: 2
Fore
SplineSet
127 0 m 1,0,-1
 127 59 l 1,1,-1
 249 59 l 1,2,-1
 249 537 l 1,3,-1
 123 500 l 1,4,-1
 107 539 l 1,5,-1
 270 624 l 1,6,-1
 319 624 l 1,7,-1
 319 58 l 1,8,-1
 449 58 l 1,9,-1
 449 0 l 1,10,-1
 127 0 l 1,0,-1
EndSplineSet
Substitution2: "'frac' Diagonal Fractions in Latin lookup 18 subtable" one.numr
Substitution2: "'dnom' Denominators in Latin lookup 16 subtable" one.dnom
Substitution2: "'numr' Numerators in Latin lookup 15 subtable" one.numr
Substitution2: "'sups' Superscript in Latin lookup 14 subtable" uni00B9
Substitution2: "'subs' Subscript in Latin lookup 13 subtable" uni2081
AlternateSubs2: "'aalt' Access All Alternates in Latin lookup 1 subtable" uni2081 uni00B9 one.numr one.dnom
EndChar

StartChar: two
Encoding: 278 50 22
Width: 500
GlyphClass: 2
Flags: W
LayerCount: 2
Fore
SplineSet
73 56 m 1,0,-1
 154 138 l 2,1,2
 235 219 235 219 275.5 265 c 128,-1,3
 316 311 316 311 340 356.5 c 128,-1,4
 364 402 364 402 364 451 c 0,5,6
 364 512 364 512 335 539 c 128,-1,7
 306 566 306 566 258 566 c 0,8,9
 215 566 215 566 178.5 547 c 128,-1,10
 142 528 142 528 130 505 c 0,11,12
 124 494 124 494 118 482.5 c 128,-1,13
 112 471 112 471 112 469 c 0,14,15
 112 468 112 468 113 468 c 256,16,17
 114 468 114 468 117 469.5 c 128,-1,18
 120 471 120 471 121 467 c 2,19,-1
 118 461 l 1,20,-1
 109 466 l 1,21,-1
 58 506 l 1,22,23
 88 564 88 564 140 595.5 c 128,-1,24
 192 627 192 627 257 627 c 0,25,26
 337 627 337 627 386.5 579 c 128,-1,27
 436 531 436 531 436 449 c 0,28,29
 436 395 436 395 410 344 c 128,-1,30
 384 293 384 293 343.5 247 c 128,-1,31
 303 201 303 201 231 130 c 2,32,-1
 163 61 l 1,33,-1
 395 61 l 2,34,35
 411 61 411 61 418.5 63 c 128,-1,36
 426 65 426 65 432 71 c 1,37,-1
 439 71 l 1,38,-1
 439 0 l 1,39,-1
 73 0 l 1,40,-1
 73 56 l 1,0,-1
EndSplineSet
Validated: 1
Substitution2: "'frac' Diagonal Fractions in Latin lookup 18 subtable" two.numr
Substitution2: "'dnom' Denominators in Latin lookup 16 subtable" two.dnom
Substitution2: "'numr' Numerators in Latin lookup 15 subtable" two.numr
Substitution2: "'sups' Superscript in Latin lookup 14 subtable" uni00B2
Substitution2: "'subs' Subscript in Latin lookup 13 subtable" uni2082
AlternateSubs2: "'aalt' Access All Alternates in Latin lookup 1 subtable" uni2082 uni00B2 two.numr two.dnom
EndChar

StartChar: three
Encoding: 279 51 23
Width: 500
GlyphClass: 2
Flags: W
LayerCount: 2
Fore
SplineSet
395 272 m 128,-1,1
 427 232 427 232 427 171 c 0,2,3
 427 121 427 121 405 79.5 c 128,-1,4
 383 38 383 38 341 13.5 c 128,-1,5
 299 -11 299 -11 240 -11 c 0,6,7
 190 -11 190 -11 145.5 7 c 128,-1,8
 101 25 101 25 69 60 c 1,9,-1
 115 115 l 1,10,-1
 116 116 l 1,11,-1
 117 115 l 1,12,13
 142 83 142 83 168.5 66 c 128,-1,14
 195 49 195 49 237 49 c 0,15,16
 295 49 295 49 325 83 c 128,-1,17
 355 117 355 117 355 174 c 0,18,19
 355 236 355 236 317.5 267 c 128,-1,20
 280 298 280 298 212 298 c 0,21,22
 202 298 202 298 180 296 c 1,23,-1
 180 352 l 1,24,25
 269 352 269 352 301.5 385 c 128,-1,26
 334 418 334 418 334 475 c 0,27,28
 334 517 334 517 309.5 542 c 128,-1,29
 285 567 285 567 245 567 c 0,30,31
 180 567 180 567 131 521 c 1,32,-1
 89 563 l 1,33,34
 150 627 150 627 244 627 c 0,35,36
 319 627 319 627 362.5 584.5 c 128,-1,37
 406 542 406 542 406 472 c 0,38,39
 406 421 406 421 381 383 c 128,-1,40
 356 345 356 345 308 330 c 1,41,0
 363 312 363 312 395 272 c 128,-1,1
124 115.5 m 128,-1,43
 121 116 121 116 118 118 c 2,44,-1
 122 123 l 1,45,-1
 127 118 l 2,46,42
 127 115 127 115 124 115.5 c 128,-1,43
114.5 121 m 128,-1,48
 117 119 117 119 118 118 c 2,49,-1
 116 116 l 1,50,47
 112 123 112 123 114.5 121 c 128,-1,48
EndSplineSet
Validated: 5
Substitution2: "'frac' Diagonal Fractions in Latin lookup 18 subtable" three.numr
Substitution2: "'dnom' Denominators in Latin lookup 16 subtable" three.dnom
Substitution2: "'numr' Numerators in Latin lookup 15 subtable" three.numr
Substitution2: "'sups' Superscript in Latin lookup 14 subtable" uni00B3
Substitution2: "'subs' Subscript in Latin lookup 13 subtable" uni2083
AlternateSubs2: "'aalt' Access All Alternates in Latin lookup 1 subtable" uni2083 uni00B3 three.numr three.dnom
EndChar

StartChar: four
Encoding: 280 52 24
Width: 500
GlyphClass: 2
Flags: W
LayerCount: 2
Fore
SplineSet
318 0 m 1,0,-1
 318 153 l 1,1,-1
 48 153 l 1,2,-1
 48 204 l 1,3,-1
 333 624 l 1,4,-1
 392 624 l 1,5,-1
 392 211 l 1,6,-1
 472 211 l 1,7,-1
 472 152 l 1,8,-1
 392 152 l 1,9,-1
 392 0 l 1,10,-1
 318 0 l 1,0,-1
129 212 m 1,11,-1
 318 212 l 1,12,-1
 318 498 l 1,13,-1
 129 212 l 1,11,-1
EndSplineSet
Validated: 1
Substitution2: "'frac' Diagonal Fractions in Latin lookup 18 subtable" four.numr
Substitution2: "'dnom' Denominators in Latin lookup 16 subtable" four.dnom
Substitution2: "'numr' Numerators in Latin lookup 15 subtable" four.numr
Substitution2: "'sups' Superscript in Latin lookup 14 subtable" uni2074
Substitution2: "'subs' Subscript in Latin lookup 13 subtable" uni2084
AlternateSubs2: "'aalt' Access All Alternates in Latin lookup 1 subtable" uni2084 uni2074 four.numr four.dnom
EndChar

StartChar: five
Encoding: 281 53 25
Width: 500
GlyphClass: 2
Flags: W
LayerCount: 2
Fore
SplineSet
353.5 379.5 m 128,-1,1
 396 354 396 354 420.5 306.5 c 128,-1,2
 445 259 445 259 445 196 c 256,3,4
 445 133 445 133 419.5 86 c 128,-1,5
 394 39 394 39 349.5 14 c 128,-1,6
 305 -11 305 -11 249 -11 c 0,7,8
 192 -11 192 -11 143.5 14 c 128,-1,9
 95 39 95 39 64 85 c 1,10,-1
 120 127 l 1,11,-1
 121 128 l 2,12,13
 122 128 122 128 122 127.5 c 128,-1,14
 122 127 122 127 122 127 c 1,15,16
 148 87 148 87 177 68.5 c 128,-1,17
 206 50 206 50 253 50 c 0,18,19
 285 50 285 50 313 68.5 c 128,-1,20
 341 87 341 87 357.5 120.5 c 128,-1,21
 374 154 374 154 374 199 c 0,22,23
 374 267 374 267 337.5 307 c 128,-1,24
 301 347 301 347 246 347 c 0,25,26
 214 347 214 347 183 331.5 c 128,-1,27
 152 316 152 316 129 288 c 1,28,-1
 85 306 l 1,29,-1
 106 623 l 1,30,-1
 422 623 l 1,31,-1
 422 560 l 1,32,-1
 165 560 l 1,33,-1
 155 381 l 1,34,35
 204 405 204 405 257 405 c 0,36,0
 311 405 311 405 353.5 379.5 c 128,-1,1
123 129 m 1,38,-1
 121 128 l 1,39,37
 116 136 116 136 123 129 c 1,38,-1
123 129 m 1,41,-1
 128 133 l 1,42,-1
 132 128 l 2,43,40
 132 122 132 122 123 129 c 1,41,-1
EndSplineSet
Validated: 5
Substitution2: "'frac' Diagonal Fractions in Latin lookup 18 subtable" five.numr
Substitution2: "'dnom' Denominators in Latin lookup 16 subtable" five.dnom
Substitution2: "'numr' Numerators in Latin lookup 15 subtable" five.numr
Substitution2: "'sups' Superscript in Latin lookup 14 subtable" uni2075
Substitution2: "'subs' Subscript in Latin lookup 13 subtable" uni2085
AlternateSubs2: "'aalt' Access All Alternates in Latin lookup 1 subtable" uni2085 uni2075 five.numr five.dnom
EndChar

StartChar: six
Encoding: 282 54 26
Width: 500
GlyphClass: 2
Flags: W
LayerCount: 2
Fore
SplineSet
354 376.5 m 128,-1,1
 393 351 393 351 416 304.5 c 128,-1,2
 439 258 439 258 439 198 c 0,3,4
 439 137 439 137 415.5 90 c 128,-1,5
 392 43 392 43 351 16.5 c 128,-1,6
 310 -10 310 -10 261 -10 c 0,7,8
 169 -10 169 -10 118 68.5 c 128,-1,9
 67 147 67 147 67 284 c 0,10,11
 67 394 67 394 94 472 c 128,-1,12
 121 550 121 550 170.5 590 c 128,-1,13
 220 630 220 630 287 630 c 0,14,15
 365 630 365 630 424 573 c 1,16,-1
 380 523 l 1,17,-1
 379 522 l 1,18,19
 358 548 358 548 338.5 558 c 128,-1,20
 319 568 319 568 289 568 c 0,21,22
 256 568 256 568 222 547.5 c 128,-1,23
 188 527 188 527 162.5 473.5 c 128,-1,24
 137 420 137 420 136 327 c 1,25,26
 157 362 157 362 192.5 382 c 128,-1,27
 228 402 228 402 268 402 c 0,28,0
 315 402 315 402 354 376.5 c 128,-1,1
377 519 m 1,30,-1
 373 515 l 1,31,-1
 368 520 l 1,32,29
 368 526 368 526 377 519 c 1,30,-1
381.5 516.5 m 128,-1,34
 378 519 378 519 377 519 c 2,35,-1
 379 522 l 1,36,33
 385 514 385 514 381.5 516.5 c 128,-1,34
340 90.5 m 128,-1,38
 371 129 371 129 371 197 c 0,39,40
 371 244 371 244 355 276.5 c 128,-1,41
 339 309 339 309 314 325 c 128,-1,42
 289 341 289 341 262 341 c 0,43,44
 227 341 227 341 194 317.5 c 128,-1,45
 161 294 161 294 140 257 c 1,46,47
 138 241 138 241 138 231 c 0,48,49
 138 187 138 187 153.5 146 c 128,-1,50
 169 105 169 105 198 78.5 c 128,-1,51
 227 52 227 52 264 52 c 0,52,37
 309 52 309 52 340 90.5 c 128,-1,38
EndSplineSet
Validated: 5
Substitution2: "'frac' Diagonal Fractions in Latin lookup 18 subtable" six.numr
Substitution2: "'dnom' Denominators in Latin lookup 16 subtable" six.dnom
Substitution2: "'numr' Numerators in Latin lookup 15 subtable" six.numr
Substitution2: "'sups' Superscript in Latin lookup 14 subtable" uni2076
Substitution2: "'subs' Subscript in Latin lookup 13 subtable" uni2086
AlternateSubs2: "'aalt' Access All Alternates in Latin lookup 1 subtable" uni2086 uni2076 six.numr six.dnom
EndChar

StartChar: seven
Encoding: 283 55 27
Width: 500
GlyphClass: 2
Flags: W
LayerCount: 2
Fore
SplineSet
345 557 m 1,1,-1
 79 557 l 1,2,-1
 79 623 l 1,3,-1
 432 623 l 1,4,-1
 432 584 l 1,5,6
 309 274 309 274 234 0 c 1,7,-1
 155 0 l 1,8,0
 242 285 242 285 345 557 c 1,1,-1
EndSplineSet
Validated: 1
Substitution2: "'frac' Diagonal Fractions in Latin lookup 18 subtable" seven.numr
Substitution2: "'dnom' Denominators in Latin lookup 16 subtable" seven.dnom
Substitution2: "'numr' Numerators in Latin lookup 15 subtable" seven.numr
Substitution2: "'sups' Superscript in Latin lookup 14 subtable" uni2077
Substitution2: "'subs' Subscript in Latin lookup 13 subtable" uni2087
AlternateSubs2: "'aalt' Access All Alternates in Latin lookup 1 subtable" uni2087 uni2077 seven.numr seven.dnom
EndChar

StartChar: eight
Encoding: 284 56 28
Width: 500
GlyphClass: 2
Flags: W
LayerCount: 2
Fore
SplineSet
149.5 12 m 128,-1,1
 106 34 106 34 83 72 c 128,-1,2
 60 110 60 110 60 157 c 0,3,4
 60 211 60 211 94 258 c 128,-1,5
 128 305 128 305 185 331 c 1,6,7
 142 353 142 353 116 392.5 c 128,-1,8
 90 432 90 432 90 477 c 0,9,10
 90 544 90 544 133 587.5 c 128,-1,11
 176 631 176 631 255 631 c 0,12,13
 337 631 337 631 378.5 589.5 c 128,-1,14
 420 548 420 548 420 483 c 0,15,16
 420 438 420 438 393 397.5 c 128,-1,17
 366 357 366 357 321 333 c 1,18,19
 375 308 375 308 408 261.5 c 128,-1,20
 441 215 441 215 441 161 c 0,21,22
 441 113 441 113 417.5 74 c 128,-1,23
 394 35 394 35 350.5 12.5 c 128,-1,24
 307 -10 307 -10 250 -10 c 256,25,0
 193 -10 193 -10 149.5 12 c 128,-1,1
328 412.5 m 128,-1,27
 352 446 352 446 352 481 c 0,28,29
 352 519 352 519 326 545.5 c 128,-1,30
 300 572 300 572 253 572 c 256,31,32
 206 572 206 572 181.5 546.5 c 128,-1,33
 157 521 157 521 157 484 c 0,34,35
 157 442 157 442 184 415 c 128,-1,36
 211 388 211 388 267 358 c 1,37,26
 304 379 304 379 328 412.5 c 128,-1,27
339 83.5 m 128,-1,39
 370 114 370 114 370 161 c 0,40,41
 370 207 370 207 334 245.5 c 128,-1,42
 298 284 298 284 237 303 c 1,43,44
 191 284 191 284 161.5 246 c 128,-1,45
 132 208 132 208 132 164 c 0,46,47
 132 117 132 117 164.5 85 c 128,-1,48
 197 53 197 53 252 53 c 0,49,38
 308 53 308 53 339 83.5 c 128,-1,39
EndSplineSet
Validated: 1
Substitution2: "'frac' Diagonal Fractions in Latin lookup 18 subtable" eight.numr
Substitution2: "'dnom' Denominators in Latin lookup 16 subtable" eight.dnom
Substitution2: "'numr' Numerators in Latin lookup 15 subtable" eight.numr
Substitution2: "'sups' Superscript in Latin lookup 14 subtable" uni2078
Substitution2: "'subs' Subscript in Latin lookup 13 subtable" uni2088
AlternateSubs2: "'aalt' Access All Alternates in Latin lookup 1 subtable" uni2088 uni2078 eight.numr eight.dnom
EndChar

StartChar: nine
Encoding: 285 57 29
Width: 500
GlyphClass: 2
Flags: W
LayerCount: 2
Fore
SplineSet
348.5 593.5 m 128,-1,1
 392 560 392 560 415.5 500 c 128,-1,2
 439 440 439 440 439 363 c 0,3,4
 439 179 439 179 384 85.5 c 128,-1,5
 329 -8 329 -8 228 -10 c 0,6,7
 138 -10 138 -10 79 47 c 1,8,-1
 122 96 l 1,9,-1
 123 97 l 1,10,-1
 124 96 l 2,11,12
 145 71 145 71 167 60.5 c 128,-1,13
 189 50 189 50 222 50 c 0,14,15
 290 50 290 50 327 116 c 128,-1,16
 364 182 364 182 371 281 c 1,17,18
 346 259 346 259 316.5 247.5 c 128,-1,19
 287 236 287 236 249 236 c 0,20,21
 198 236 198 236 156.5 260 c 128,-1,22
 115 284 115 284 91.5 326.5 c 128,-1,23
 68 369 68 369 68 424 c 0,24,25
 68 481 68 481 92 527.5 c 128,-1,26
 116 574 116 574 157 600.5 c 128,-1,27
 198 627 198 627 247 627 c 0,28,0
 305 627 305 627 348.5 593.5 c 128,-1,1
320.5 309 m 128,-1,30
 349 321 349 321 372 349 c 1,31,32
 368 459 368 459 338.5 512.5 c 128,-1,33
 309 566 309 566 250 566 c 0,34,35
 198 566 198 566 167 528 c 128,-1,36
 136 490 136 490 136 425 c 0,37,38
 136 367 136 367 169 332 c 128,-1,39
 202 297 202 297 250 297 c 0,40,29
 292 297 292 297 320.5 309 c 128,-1,30
125 99 m 1,42,-1
 129 104 l 1,43,-1
 134 99 l 1,44,41
 134 92 134 92 125 99 c 1,42,-1
125 99 m 1,46,-1
 123 97 l 1,47,45
 117 104 117 104 125 99 c 1,46,-1
EndSplineSet
Validated: 5
Substitution2: "'frac' Diagonal Fractions in Latin lookup 18 subtable" nine.numr
Substitution2: "'dnom' Denominators in Latin lookup 16 subtable" nine.dnom
Substitution2: "'numr' Numerators in Latin lookup 15 subtable" nine.numr
Substitution2: "'sups' Superscript in Latin lookup 14 subtable" uni2079
Substitution2: "'subs' Subscript in Latin lookup 13 subtable" uni2089
AlternateSubs2: "'aalt' Access All Alternates in Latin lookup 1 subtable" uni2089 uni2079 nine.numr nine.dnom
EndChar

StartChar: colon
Encoding: 286 58 30
Width: 500
GlyphClass: 2
Flags: W
LayerCount: 2
Fore
SplineSet
197 325 m 128,-1,1
 179 342 179 342 179 365 c 0,2,3
 179 389 179 389 196.5 406 c 128,-1,4
 214 423 214 423 238 423 c 256,5,6
 262 423 262 423 280 406 c 128,-1,7
 298 389 298 389 298 365 c 0,8,9
 298 342 298 342 280 325 c 128,-1,10
 262 308 262 308 238 308 c 0,11,0
 215 308 215 308 197 325 c 128,-1,1
196 5.5 m 128,-1,13
 179 22 179 22 179 46 c 256,14,15
 179 70 179 70 196.5 87 c 128,-1,16
 214 104 214 104 238 104 c 256,17,18
 262 104 262 104 280 87 c 128,-1,19
 298 70 298 70 298 46 c 0,20,21
 298 23 298 23 280.5 6 c 128,-1,22
 263 -11 263 -11 238 -11 c 256,23,12
 213 -11 213 -11 196 5.5 c 128,-1,13
EndSplineSet
Validated: 1
EndChar

StartChar: semicolon
Encoding: 287 59 31
Width: 500
GlyphClass: 2
Flags: W
LayerCount: 2
Fore
SplineSet
197 325 m 128,-1,1
 179 342 179 342 179 365 c 0,2,3
 179 389 179 389 196.5 406 c 128,-1,4
 214 423 214 423 238 423 c 256,5,6
 262 423 262 423 280 406 c 128,-1,7
 298 389 298 389 298 365 c 0,8,9
 298 342 298 342 280 325 c 128,-1,10
 262 308 262 308 238 308 c 0,11,0
 215 308 215 308 197 325 c 128,-1,1
165 -138 m 1,12,13
 193 -112 193 -112 211.5 -82 c 128,-1,14
 230 -52 230 -52 230 -33 c 0,15,16
 230 -24 230 -24 225 -18 c 128,-1,17
 220 -12 220 -12 207 0 c 0,18,19
 193 13 193 13 186 22 c 128,-1,20
 179 31 179 31 179 44 c 0,21,22
 179 69 179 69 195.5 86 c 128,-1,23
 212 103 212 103 238 103 c 0,24,25
 265 103 265 103 285.5 79.5 c 128,-1,26
 306 56 306 56 306 20 c 0,27,28
 306 -58 306 -58 199 -168 c 1,29,-1
 165 -138 l 1,12,13
EndSplineSet
Validated: 1
EndChar

StartChar: less
Encoding: 288 60 32
Width: 500
GlyphClass: 2
Flags: W
LayerCount: 2
Fore
SplineSet
461 47 m 1,0,-1
 35 296 l 1,1,-1
 35 344 l 1,2,-1
 458 567 l 1,3,-1
 458 496 l 1,4,-1
 111 319 l 1,5,-1
 461 123 l 1,6,-1
 461 47 l 1,0,-1
EndSplineSet
Validated: 1
EndChar

StartChar: equal
Encoding: 289 61 33
Width: 500
GlyphClass: 2
Flags: W
LayerCount: 2
Fore
SplineSet
45 377 m 1,0,-1
 45 438 l 1,1,-1
 456 438 l 1,2,-1
 456 377 l 1,3,-1
 45 377 l 1,0,-1
45 220 m 1,4,-1
 45 281 l 1,5,-1
 456 281 l 1,6,-1
 456 220 l 1,7,-1
 45 220 l 1,4,-1
EndSplineSet
Validated: 1
EndChar

StartChar: greater
Encoding: 290 62 34
Width: 500
GlyphClass: 2
Flags: W
LayerCount: 2
Fore
SplineSet
40 47 m 1,0,-1
 40 123 l 1,1,-1
 389 319 l 1,2,-1
 42 496 l 1,3,-1
 42 567 l 1,4,-1
 466 344 l 1,5,-1
 466 296 l 1,6,-1
 40 47 l 1,0,-1
EndSplineSet
Validated: 1
EndChar

StartChar: question
Encoding: 291 63 35
Width: 500
GlyphClass: 2
Flags: W
LayerCount: 2
Fore
SplineSet
226 226 m 2,0,1
 226 275 226 275 244 305 c 128,-1,2
 262 335 262 335 297 369 c 0,3,4
 331 403 331 403 348 431 c 128,-1,5
 365 459 365 459 365 504 c 256,6,7
 365 549 365 549 334 576.5 c 128,-1,8
 303 604 303 604 254 604 c 0,9,10
 208 604 208 604 175.5 590.5 c 128,-1,11
 143 577 143 577 133 560 c 0,12,13
 114 530 114 530 114 526 c 0,14,15
 114 525 114 525 117.5 526.5 c 128,-1,16
 121 528 121 528 122 524 c 2,17,-1
 119 518 l 1,18,-1
 110 523 l 1,19,-1
 64 561 l 1,20,21
 99 613 99 613 143 639 c 128,-1,22
 187 665 187 665 257 665 c 0,23,24
 337 665 337 665 385.5 623 c 128,-1,25
 434 581 434 581 434 509 c 0,26,27
 434 452 434 452 414 418 c 128,-1,28
 394 384 394 384 356 348 c 0,29,30
 323 315 323 315 307.5 290 c 128,-1,31
 292 265 292 265 292 226 c 2,32,-1
 292 185 l 1,33,-1
 226 185 l 1,34,-1
 226 226 l 2,0,1
220 6 m 128,-1,36
 203 23 203 23 203 46 c 256,37,38
 203 69 203 69 220 86 c 128,-1,39
 237 103 237 103 261 103 c 0,40,41
 284 103 284 103 301 86 c 128,-1,42
 318 69 318 69 318 46 c 256,43,44
 318 23 318 23 301 6 c 128,-1,45
 284 -11 284 -11 261 -11 c 0,46,35
 237 -11 237 -11 220 6 c 128,-1,36
EndSplineSet
Validated: 1
EndChar

StartChar: at
Encoding: 292 64 36
Width: 500
GlyphClass: 2
Flags: W
LayerCount: 2
Fore
SplineSet
165.5 25 m 128,-1,1
 105 61 105 61 68 134 c 128,-1,2
 31 207 31 207 31 313 c 0,3,4
 31 418 31 418 66 490 c 128,-1,5
 101 562 101 562 156 597.5 c 128,-1,6
 211 633 211 633 271 633 c 0,7,8
 322 633 322 633 366.5 607.5 c 128,-1,9
 411 582 411 582 438 531 c 128,-1,10
 465 480 465 480 465 408 c 2,11,-1
 465 175 l 1,12,-1
 405 175 l 1,13,-1
 405 213 l 1,14,15
 366 167 366 167 308 167 c 0,16,17
 251 167 251 167 213 204.5 c 128,-1,18
 175 242 175 242 175 299 c 0,19,20
 175 364 175 364 226 404.5 c 128,-1,21
 277 445 277 445 372 445 c 0,22,23
 392 445 392 445 402 444 c 1,24,25
 402 502 402 502 365.5 540.5 c 128,-1,26
 329 579 329 579 268 579 c 0,27,28
 219 579 219 579 178 551 c 128,-1,29
 137 523 137 523 113 465.5 c 128,-1,30
 89 408 89 408 89 324 c 0,31,32
 89 233 89 233 119 170.5 c 128,-1,33
 149 108 149 108 197.5 77 c 128,-1,34
 246 46 246 46 301 46 c 0,35,36
 359 46 359 46 408 79 c 1,37,-1
 435 30 l 1,38,39
 370 -11 370 -11 295 -11 c 0,40,0
 226 -11 226 -11 165.5 25 c 128,-1,1
384.5 261 m 128,-1,42
 405 300 405 300 405 394 c 1,43,44
 381 396 381 396 371 396 c 0,45,46
 306 396 306 396 271.5 371.5 c 128,-1,47
 237 347 237 347 237 303 c 0,48,49
 237 265 237 265 257.5 243.5 c 128,-1,50
 278 222 278 222 317 222 c 0,51,41
 364 222 364 222 384.5 261 c 128,-1,42
EndSplineSet
Validated: 1
EndChar

StartChar: A
Encoding: 293 65 37
Width: 500
GlyphClass: 2
Flags: W
AnchorPoint: "Anchor-8" 0 0 basechar 0
AnchorPoint: "Anchor-7" 0 0 basechar 0
AnchorPoint: "Anchor-6" 250 623 basechar 0
AnchorPoint: "Anchor-5" 414 0 basechar 0
AnchorPoint: "Anchor-4" 250 0 basechar 0
LayerCount: 2
Fore
SplineSet
412 0 m 1,0,-1
 349 182 l 1,1,-1
 148 182 l 1,2,-1
 85 0 l 1,3,-1
 16 0 l 1,4,-1
 246 634 l 1,5,-1
 254 634 l 1,6,-1
 484 0 l 1,7,-1
 412 0 l 1,0,-1
167 236 m 1,8,-1
 331 236 l 1,9,-1
 249 474 l 1,10,-1
 167 236 l 1,8,-1
EndSplineSet
Validated: 1
Substitution2: "Single Substitution lookup 28 subtable" ordfeminine
Substitution2: "'aalt' Access All Alternates in Latin lookup 0 subtable" ordfeminine
EndChar

StartChar: B
Encoding: 294 66 38
Width: 500
GlyphClass: 2
Flags: W
AnchorPoint: "Anchor-8" 0 0 basechar 0
AnchorPoint: "Anchor-7" 0 0 basechar 0
AnchorPoint: "Anchor-6" 250 623 basechar 0
AnchorPoint: "Anchor-5" 0 0 basechar 0
AnchorPoint: "Anchor-4" 250 0 basechar 0
LayerCount: 2
Fore
SplineSet
48 623 m 1,0,-1
 225 623 l 2,1,2
 329 623 329 623 380.5 582.5 c 128,-1,3
 432 542 432 542 432 472 c 0,4,5
 432 426 432 426 407.5 387.5 c 128,-1,6
 383 349 383 349 340 334 c 1,7,8
 392 316 392 316 424.5 271.5 c 128,-1,9
 457 227 457 227 457 175 c 0,10,11
 457 93 457 93 399 46.5 c 128,-1,12
 341 0 341 0 224 0 c 2,13,-1
 48 0 l 1,14,-1
 48 623 l 1,0,-1
215 365 m 2,15,16
 362 365 362 365 362 464 c 0,17,18
 362 509 362 509 329 536.5 c 128,-1,19
 296 564 296 564 226 564 c 2,20,-1
 117 564 l 1,21,-1
 117 365 l 1,22,-1
 215 365 l 2,15,16
236 61 m 2,23,24
 383 61 383 61 383 179 c 0,25,26
 383 306 383 306 219 306 c 2,27,-1
 117 306 l 1,28,-1
 117 61 l 1,29,-1
 236 61 l 2,23,24
EndSplineSet
Validated: 1
EndChar

StartChar: C
Encoding: 295 67 39
Width: 500
GlyphClass: 2
Flags: W
AnchorPoint: "Anchor-8" 0 0 basechar 0
AnchorPoint: "Anchor-7" 0 0 basechar 0
AnchorPoint: "Anchor-6" 270 623 basechar 0
AnchorPoint: "Anchor-5" 0 0 basechar 0
AnchorPoint: "Anchor-4" 280 0 basechar 0
LayerCount: 2
Fore
SplineSet
353 70.5 m 128,-1,1
 387 91 387 91 408 126 c 1,2,-1
 460 92 l 1,3,4
 429 41 429 41 387 15.5 c 128,-1,5
 345 -10 345 -10 285 -10 c 0,6,7
 215 -10 215 -10 160.5 24.5 c 128,-1,8
 106 59 106 59 73.5 130 c 128,-1,9
 41 201 41 201 41 308 c 0,10,11
 41 423 41 423 76 494.5 c 128,-1,12
 111 566 111 566 165 597 c 128,-1,13
 219 628 219 628 281 628 c 0,14,15
 347 628 347 628 395.5 595 c 128,-1,16
 444 562 444 562 469 505 c 1,17,-1
 409 477 l 2,18,19
 408 477 408 477 408 477.5 c 128,-1,20
 408 478 408 478 408 478 c 1,21,22
 382 530 382 530 350 551 c 128,-1,23
 318 572 318 572 279 572 c 0,24,25
 200 572 200 572 154.5 503.5 c 128,-1,26
 109 435 109 435 109 313 c 0,27,28
 109 236 109 236 132 176 c 128,-1,29
 155 116 155 116 194.5 83 c 128,-1,30
 234 50 234 50 282 50 c 0,31,0
 319 50 319 50 353 70.5 c 128,-1,1
399 482 m 2,33,34
 401 482 401 482 407 476 c 1,35,-1
 400 473 l 1,36,-1
 397 480 l 2,37,32
 399 482 399 482 399 482 c 2,33,34
407 476 m 1,39,-1
 409 477 l 1,40,38
 413 468 413 468 407 476 c 1,39,-1
EndSplineSet
Validated: 5
EndChar

StartChar: D
Encoding: 296 68 40
Width: 500
GlyphClass: 2
Flags: W
AnchorPoint: "Anchor-8" 0 0 basechar 0
AnchorPoint: "Anchor-7" 250 312 basechar 0
AnchorPoint: "Anchor-6" 220 623 basechar 0
AnchorPoint: "Anchor-5" 0 0 basechar 0
AnchorPoint: "Anchor-4" 250 0 basechar 0
LayerCount: 2
Fore
SplineSet
54 623 m 1,0,-1
 199 623 l 2,1,2
 276 623 276 623 321 602.5 c 128,-1,3
 366 582 366 582 399 538 c 0,4,5
 460 456 460 456 460 308 c 1,6,7
 454 157 454 157 390 77.5 c 128,-1,8
 326 -2 326 -2 187 -1 c 2,9,-1
 54 -1 l 1,10,-1
 54 623 l 1,0,-1
184 54 m 2,11,12
 390 54 390 54 390 304 c 0,13,14
 389 431 389 431 343 497.5 c 128,-1,15
 297 564 297 564 195 564 c 2,16,-1
 120 564 l 1,17,-1
 120 54 l 1,18,-1
 184 54 l 2,11,12
EndSplineSet
Validated: 33
EndChar

StartChar: E
Encoding: 297 69 41
Width: 500
GlyphClass: 2
Flags: W
AnchorPoint: "Anchor-8" 0 0 basechar 0
AnchorPoint: "Anchor-7" 0 0 basechar 0
AnchorPoint: "Anchor-6" 270 623 basechar 0
AnchorPoint: "Anchor-5" 450 10 basechar 0
AnchorPoint: "Anchor-4" 250 0 basechar 0
LayerCount: 2
Fore
SplineSet
59 0 m 1,0,-1
 59 624 l 1,1,-1
 441 624 l 1,2,-1
 441 562 l 1,3,-1
 125 562 l 1,4,-1
 125 357 l 1,5,-1
 386 357 l 1,6,-1
 386 293 l 1,7,-1
 125 293 l 1,8,-1
 125 62 l 1,9,-1
 438 62 l 1,10,-1
 438 0 l 1,11,-1
 59 0 l 1,0,-1
EndSplineSet
Validated: 1
EndChar

StartChar: F
Encoding: 298 70 42
Width: 500
GlyphClass: 2
Flags: W
AnchorPoint: "Anchor-8" 0 0 basechar 0
AnchorPoint: "Anchor-7" 0 0 basechar 0
AnchorPoint: "Anchor-6" 250 623 basechar 0
AnchorPoint: "Anchor-5" 0 0 basechar 0
AnchorPoint: "Anchor-4" 250 0 basechar 0
LayerCount: 2
Fore
SplineSet
78 0 m 1,0,-1
 78 624 l 1,1,-1
 437 624 l 1,2,-1
 437 563 l 1,3,-1
 148 563 l 1,4,-1
 148 367 l 1,5,-1
 381 367 l 1,6,-1
 381 306 l 1,7,-1
 148 306 l 1,8,-1
 148 0 l 1,9,-1
 78 0 l 1,0,-1
EndSplineSet
Validated: 1
EndChar

StartChar: G
Encoding: 299 71 43
Width: 500
GlyphClass: 2
Flags: W
AnchorPoint: "Anchor-8" 0 0 basechar 0
AnchorPoint: "Anchor-7" 0 0 basechar 0
AnchorPoint: "Anchor-6" 274 623 basechar 0
AnchorPoint: "Anchor-5" 0 0 basechar 0
AnchorPoint: "Anchor-4" 266 0 basechar 0
LayerCount: 2
Fore
SplineSet
460 299 m 1,0,-1
 460 55 l 1,1,2
 371 -10 371 -10 277 -10 c 0,3,4
 203 -10 203 -10 148.5 29 c 128,-1,5
 94 68 94 68 65 139 c 128,-1,6
 36 210 36 210 36 304 c 0,7,8
 35 428 35 428 72 500.5 c 128,-1,9
 109 573 109 573 163 601.5 c 128,-1,10
 217 630 217 630 272 630 c 0,11,12
 328 630 328 630 380 601 c 128,-1,13
 432 572 432 572 458 525 c 1,14,-1
 409 486 l 1,15,-1
 408 485 l 1,16,17
 374 530 374 530 345 549 c 128,-1,18
 316 568 316 568 273 568 c 0,19,20
 198 568 198 568 151.5 510 c 128,-1,21
 105 452 105 452 105 319 c 0,22,23
 105 191 105 191 150.5 121.5 c 128,-1,24
 196 52 196 52 277 52 c 0,25,26
 307 52 307 52 340 61.5 c 128,-1,27
 373 71 373 71 395 90 c 1,28,-1
 395 238 l 1,29,-1
 282 238 l 1,30,-1
 282 299 l 1,31,-1
 460 299 l 1,0,-1
406 484 m 1,33,-1
 401 479 l 1,34,-1
 397 485 l 2,35,32
 397 491 397 491 406 484 c 1,33,-1
406 484 m 1,37,-1
 408 485 l 1,38,36
 413 478 413 478 406 484 c 1,37,-1
EndSplineSet
Validated: 37
EndChar

StartChar: H
Encoding: 300 72 44
Width: 500
GlyphClass: 2
Flags: W
AnchorPoint: "Anchor-8" 0 0 basechar 0
AnchorPoint: "Anchor-7" 250 312 basechar 0
AnchorPoint: "Anchor-6" 250 623 basechar 0
AnchorPoint: "Anchor-5" 0 0 basechar 0
AnchorPoint: "Anchor-4" 250 0 basechar 0
LayerCount: 2
Fore
SplineSet
50 623 m 1,0,-1
 132 623 l 1,1,-1
 132 616 l 1,2,3
 126 610 126 610 124.5 603 c 128,-1,4
 123 596 123 596 123 579 c 2,5,-1
 123 357 l 1,6,-1
 367 357 l 1,7,-1
 367 623 l 1,8,-1
 449 623 l 1,9,-1
 449 616 l 1,10,11
 443 610 443 610 441.5 603 c 128,-1,12
 440 596 440 596 440 579 c 2,13,-1
 440 0 l 1,14,-1
 366 0 l 1,15,-1
 366 297 l 1,16,-1
 123 297 l 1,17,-1
 123 0 l 1,18,-1
 50 0 l 1,19,-1
 50 623 l 1,0,-1
EndSplineSet
Validated: 1
EndChar

StartChar: I
Encoding: 301 73 45
Width: 500
GlyphClass: 2
Flags: W
AnchorPoint: "Anchor-8" 0 0 basechar 0
AnchorPoint: "Anchor-7" 0 0 basechar 0
AnchorPoint: "Anchor-6" 239 623 basechar 0
AnchorPoint: "Anchor-5" 353 0 basechar 0
AnchorPoint: "Anchor-4" 250 0 basechar 0
LayerCount: 2
Fore
SplineSet
81 0 m 5,0,-1
 81 59 l 5,1,-1
 204 59 l 5,2,-1
 204 564 l 5,3,-1
 88 564 l 5,4,-1
 88 623 l 5,5,-1
 397 623 l 5,6,-1
 397 564 l 5,7,-1
 274 564 l 5,8,-1
 274 58 l 5,9,-1
 403 58 l 5,10,-1
 403 0 l 5,11,-1
 81 0 l 5,0,-1
EndSplineSet
Validated: 1
EndChar

StartChar: J
Encoding: 302 74 46
Width: 500
GlyphClass: 2
Flags: W
AnchorPoint: "Anchor-8" 0 0 basechar 0
AnchorPoint: "Anchor-7" 0 0 basechar 0
AnchorPoint: "Anchor-6" 330 623 basechar 0
AnchorPoint: "Anchor-5" 0 0 basechar 0
AnchorPoint: "Anchor-4" 250 0 basechar 0
LayerCount: 2
Fore
SplineSet
361 564 m 1,0,-1
 361 209 l 2,1,2
 363 133 363 133 341 84 c 128,-1,3
 319 35 319 35 281.5 12 c 128,-1,4
 244 -11 244 -11 198 -11 c 0,5,6
 106 -11 106 -11 49 58 c 1,7,-1
 89 108 l 1,8,-1
 90 109 l 1,9,-1
 91 108 l 2,10,11
 119 78 119 78 142.5 64.5 c 128,-1,12
 166 51 166 51 196 51 c 0,13,14
 247 51 247 51 269.5 86.5 c 128,-1,15
 292 122 292 122 292 208 c 2,16,-1
 292 564 l 1,17,-1
 172 564 l 1,18,-1
 172 623 l 1,19,-1
 457 623 l 1,20,-1
 457 564 l 1,21,-1
 361 564 l 1,0,-1
98 108.5 m 128,-1,23
 95 109 95 109 92 111 c 2,24,-1
 96 116 l 1,25,-1
 101 112 l 2,26,22
 101 108 101 108 98 108.5 c 128,-1,23
88 113 m 128,-1,28
 91 112 91 112 92 111 c 2,29,-1
 90 109 l 1,30,27
 85 114 85 114 88 113 c 128,-1,28
EndSplineSet
Validated: 37
EndChar

StartChar: K
Encoding: 303 75 47
Width: 500
GlyphClass: 2
Flags: W
LayerCount: 2
Fore
SplineSet
166 312 m 1,0,-1
 117 258 l 1,1,-1
 117 0 l 1,2,-1
 42 0 l 1,3,-1
 42 623 l 1,4,-1
 126 623 l 1,5,-1
 126 616 l 1,6,7
 120 610 120 610 118.5 603 c 128,-1,8
 117 596 117 596 117 579 c 2,9,-1
 117 336 l 1,10,-1
 377 628 l 1,11,12
 402 623 402 623 429 623 c 2,13,-1
 455 623 l 1,14,-1
 219 354 l 1,15,-1
 471 0 l 1,16,-1
 381 -4 l 1,17,-1
 166 312 l 1,0,-1
EndSplineSet
Validated: 1
EndChar

StartChar: L
Encoding: 304 76 48
Width: 500
GlyphClass: 2
Flags: W
AnchorPoint: "Anchor-8" 180 457 basechar 0
AnchorPoint: "Anchor-7" 107 312 basechar 0
AnchorPoint: "Anchor-6" 200 623 basechar 0
AnchorPoint: "Anchor-5" 0 0 basechar 0
AnchorPoint: "Anchor-4" 250 0 basechar 0
LayerCount: 2
Fore
SplineSet
66 623 m 1,0,-1
 148 623 l 1,1,-1
 148 616 l 1,2,3
 142 610 142 610 140.5 603 c 128,-1,4
 139 596 139 596 139 579 c 2,5,-1
 139 60 l 1,6,-1
 439 60 l 1,7,-1
 439 0 l 1,8,-1
 66 0 l 1,9,-1
 66 623 l 1,0,-1
EndSplineSet
Validated: 1
EndChar

StartChar: M
Encoding: 305 77 49
Width: 500
GlyphClass: 2
Flags: W
AnchorPoint: "Anchor-8" 0 0 basechar 0
AnchorPoint: "Anchor-7" 0 0 basechar 0
AnchorPoint: "Anchor-6" 250 623 basechar 0
AnchorPoint: "Anchor-5" 0 0 basechar 0
AnchorPoint: "Anchor-4" 250 0 basechar 0
LayerCount: 2
Fore
SplineSet
41 0 m 1,0,-1
 41 623 l 1,1,-1
 96 623 l 1,2,-1
 250 318 l 1,3,-1
 407 624 l 1,4,-1
 460 624 l 1,5,-1
 460 0 l 1,6,-1
 394 0 l 1,7,-1
 394 470 l 1,8,-1
 259 219 l 1,9,-1
 232 219 l 1,10,-1
 106 467 l 1,11,-1
 106 0 l 1,12,-1
 41 0 l 1,0,-1
EndSplineSet
Validated: 1
EndChar

StartChar: N
Encoding: 306 78 50
Width: 500
GlyphClass: 2
Flags: W
AnchorPoint: "Anchor-8" 0 0 basechar 0
AnchorPoint: "Anchor-7" 0 0 basechar 0
AnchorPoint: "Anchor-6" 250 623 basechar 0
AnchorPoint: "Anchor-5" 0 0 basechar 0
AnchorPoint: "Anchor-4" 250 0 basechar 0
LayerCount: 2
Fore
SplineSet
50 623 m 1,0,-1
 118 623 l 1,1,-1
 380 161 l 1,2,-1
 380 623 l 1,3,-1
 456 623 l 1,4,-1
 456 616 l 1,5,6
 450 610 450 610 448.5 603 c 128,-1,7
 447 596 447 596 447 579 c 2,8,-1
 447 0 l 1,9,-1
 392 0 l 1,10,-1
 117 490 l 1,11,-1
 117 0 l 1,12,-1
 50 0 l 1,13,-1
 50 623 l 1,0,-1
EndSplineSet
Validated: 1
EndChar

StartChar: O
Encoding: 307 79 51
Width: 500
GlyphClass: 2
Flags: W
AnchorPoint: "Anchor-8" 379 584 basechar 0
AnchorPoint: "Anchor-7" 250 312 basechar 0
AnchorPoint: "Anchor-6" 250 623 basechar 0
AnchorPoint: "Anchor-5" 287 10 basechar 0
AnchorPoint: "Anchor-4" 250 0 basechar 0
LayerCount: 2
Fore
SplineSet
85 72 m 128,-1,1
 27 155 27 155 27 308 c 0,2,3
 27 457 27 457 85.5 542 c 128,-1,4
 144 627 144 627 250 627 c 256,5,6
 356 627 356 627 414.5 542 c 128,-1,7
 473 457 473 457 473 308 c 0,8,9
 473 155 473 155 415 72 c 128,-1,10
 357 -11 357 -11 250 -11 c 256,11,0
 143 -11 143 -11 85 72 c 128,-1,1
361.5 117 m 128,-1,13
 401 184 401 184 401 308 c 0,14,15
 401 427 401 427 361 496.5 c 128,-1,16
 321 566 321 566 250 566 c 256,17,18
 179 566 179 566 139 496.5 c 128,-1,19
 99 427 99 427 99 308 c 0,20,21
 99 184 99 184 138.5 117 c 128,-1,22
 178 50 178 50 250 50 c 256,23,12
 322 50 322 50 361.5 117 c 128,-1,13
EndSplineSet
Validated: 1
Substitution2: "Single Substitution lookup 28 subtable" ordmasculine
Substitution2: "'aalt' Access All Alternates in Latin lookup 0 subtable" ordmasculine
EndChar

StartChar: P
Encoding: 308 80 52
Width: 500
GlyphClass: 2
Flags: W
AnchorPoint: "Anchor-8" 0 0 basechar 0
AnchorPoint: "Anchor-7" 0 0 basechar 0
AnchorPoint: "Anchor-6" 250 623 basechar 0
AnchorPoint: "Anchor-5" 0 0 basechar 0
AnchorPoint: "Anchor-4" 93 0 basechar 0
LayerCount: 2
Fore
SplineSet
59 623 m 1,0,-1
 259 623 l 2,1,2
 358 623 358 623 407 574 c 128,-1,3
 456 525 456 525 456 447 c 0,4,5
 456 370 456 370 408 322.5 c 128,-1,6
 360 275 360 275 264 275 c 2,7,-1
 131 275 l 1,8,-1
 131 0 l 1,9,-1
 59 0 l 1,10,-1
 59 623 l 1,0,-1
256 337 m 2,11,12
 322 337 322 337 353 365.5 c 128,-1,13
 384 394 384 394 384 445 c 0,14,15
 384 494 384 494 352 525.5 c 128,-1,16
 320 557 320 557 257 557 c 2,17,-1
 131 557 l 1,18,-1
 131 337 l 1,19,-1
 256 337 l 2,11,12
EndSplineSet
Validated: 1
EndChar

StartChar: Q
Encoding: 309 81 53
Width: 500
GlyphClass: 2
Flags: W
AnchorPoint: "Anchor-8" 0 0 basechar 0
AnchorPoint: "Anchor-7" 0 0 basechar 0
AnchorPoint: "Anchor-6" 250 623 basechar 0
AnchorPoint: "Anchor-5" 0 0 basechar 0
AnchorPoint: "Anchor-4" 250 0 basechar 0
LayerCount: 2
Fore
SplineSet
265 -117.5 m 128,-1,1
 226 -86 226 -86 226 -7 c 1,2,3
 174 0 174 0 129 37.5 c 128,-1,4
 84 75 84 75 56.5 143.5 c 128,-1,5
 29 212 29 212 29 308 c 0,6,7
 29 424 29 424 63 496 c 128,-1,8
 97 568 97 568 147.5 599 c 128,-1,9
 198 630 198 630 251 630 c 0,10,11
 311 630 311 630 362 596 c 128,-1,12
 413 562 413 562 443 490 c 128,-1,13
 473 418 473 418 471 311 c 0,14,15
 471 173 471 173 424.5 93 c 128,-1,16
 378 13 378 13 287 -7 c 1,17,18
 289 -44 289 -44 305.5 -63 c 128,-1,19
 322 -82 322 -82 361 -82 c 2,20,-1
 442 -77 l 1,21,-1
 440 -145 l 1,22,-1
 401 -145 l 1,23,0
 304 -149 304 -149 265 -117.5 c 128,-1,1
326.5 79.5 m 128,-1,25
 360 104 360 104 382 157.5 c 128,-1,26
 404 211 404 211 404 294 c 0,27,28
 404 398 404 398 380.5 459 c 128,-1,29
 357 520 357 520 322.5 544.5 c 128,-1,30
 288 569 288 569 251 569 c 0,31,32
 177 569 177 569 137 497.5 c 128,-1,33
 97 426 97 426 97 323 c 0,34,35
 97 203 97 203 139.5 129 c 128,-1,36
 182 55 182 55 256 55 c 0,37,24
 293 55 293 55 326.5 79.5 c 128,-1,25
EndSplineSet
Validated: 33
EndChar

StartChar: R
Encoding: 310 82 54
Width: 500
GlyphClass: 2
Flags: W
AnchorPoint: "Anchor-8" 0 0 basechar 0
AnchorPoint: "Anchor-7" 0 0 basechar 0
AnchorPoint: "Anchor-6" 250 623 basechar 0
AnchorPoint: "Anchor-5" 0 0 basechar 0
AnchorPoint: "Anchor-4" 250 0 basechar 0
LayerCount: 2
Fore
SplineSet
56 623 m 1,0,-1
 240 623 l 2,1,2
 346 623 346 623 396.5 576 c 128,-1,3
 447 529 447 529 447 445 c 0,4,5
 447 390 447 390 411.5 341 c 128,-1,6
 376 292 376 292 320 278 c 1,7,-1
 464 0 l 1,8,-1
 386 0 l 1,9,-1
 248 275 l 1,10,-1
 127 275 l 1,11,-1
 127 0 l 1,12,-1
 56 0 l 1,13,-1
 56 623 l 1,0,-1
248 337 m 2,14,15
 313 337 313 337 344 365.5 c 128,-1,16
 375 394 375 394 375 445 c 0,17,18
 375 495 375 495 343.5 526 c 128,-1,19
 312 557 312 557 248 557 c 2,20,-1
 127 557 l 1,21,-1
 127 337 l 1,22,-1
 248 337 l 2,14,15
EndSplineSet
Validated: 1
EndChar

StartChar: S
Encoding: 311 83 55
Width: 500
GlyphClass: 2
Flags: W
AnchorPoint: "Anchor-8" 0 0 basechar 0
AnchorPoint: "Anchor-7" 0 0 basechar 0
AnchorPoint: "Anchor-6" 261 623 basechar 0
AnchorPoint: "Anchor-5" 0 0 basechar 0
AnchorPoint: "Anchor-4" 247 0 basechar 0
LayerCount: 2
Fore
SplineSet
421 268 m 128,-1,1
 455 229 455 229 455 170 c 0,2,3
 455 124 455 124 432.5 83 c 128,-1,4
 410 42 410 42 363 16 c 128,-1,5
 316 -10 316 -10 247 -10 c 0,6,7
 126 -10 126 -10 52 69 c 1,8,-1
 88 132 l 1,9,-1
 88 133 l 2,10,11
 89 133 89 133 89 132.5 c 128,-1,12
 89 132 89 132 89 132 c 1,13,14
 116 96 116 96 158.5 74.5 c 128,-1,15
 201 53 201 53 257 53 c 0,16,17
 312 53 312 53 349 84 c 128,-1,18
 386 115 386 115 386 160 c 0,19,20
 386 189 386 189 374.5 208.5 c 128,-1,21
 363 228 363 228 333 247 c 128,-1,22
 303 266 303 266 243 292 c 0,23,24
 151 328 151 328 111.5 374 c 128,-1,25
 72 420 72 420 72 477 c 0,26,27
 72 547 72 547 123 589 c 128,-1,28
 174 631 174 631 262 631 c 0,29,30
 313 631 313 631 357.5 610.5 c 128,-1,31
 402 590 402 590 435 553 c 1,32,-1
 396 501 l 1,33,-1
 395 500 l 1,34,35
 365 541 365 541 332.5 557 c 128,-1,36
 300 573 300 573 251 573 c 0,37,38
 203 573 203 573 173.5 546.5 c 128,-1,39
 144 520 144 520 144 482 c 0,40,41
 144 453 144 453 156.5 431.5 c 128,-1,42
 169 410 169 410 202 389.5 c 128,-1,43
 235 369 235 369 298 344 c 0,44,0
 387 307 387 307 421 268 c 128,-1,1
384 498 m 2,45,46
 384 501 384 501 388 499 c 128,-1,47
 392 497 392 497 393 497 c 2,48,-1
 390 493 l 1,49,-1
 384 497 l 1,50,-1
 384 498 l 2,45,46
397.5 494.5 m 128,-1,52
 394 497 394 497 393 497 c 2,53,-1
 395 500 l 1,54,51
 401 492 401 492 397.5 494.5 c 128,-1,52
99 136 m 2,55,56
 99 133 99 133 95 135 c 128,-1,57
 91 137 91 137 90 137 c 2,58,-1
 92 141 l 1,59,-1
 99 137 l 1,60,-1
 99 136 l 2,55,56
90 137 m 1,62,-1
 88 133 l 1,63,61
 82 141 82 141 90 137 c 1,62,-1
EndSplineSet
Validated: 5
EndChar

StartChar: T
Encoding: 312 84 56
Width: 500
GlyphClass: 2
Flags: W
AnchorPoint: "Anchor-8" 0 0 basechar 0
AnchorPoint: "Anchor-7" 244 312 basechar 0
AnchorPoint: "Anchor-6" 250 623 basechar 0
AnchorPoint: "Anchor-5" 0 0 basechar 0
AnchorPoint: "Anchor-4" 250 0 basechar 0
LayerCount: 2
Fore
SplineSet
208 0 m 1,0,-1
 208 561 l 1,1,-1
 31 561 l 1,2,-1
 31 624 l 1,3,-1
 463 624 l 1,4,-1
 463 561 l 1,5,-1
 279 561 l 1,6,-1
 279 0 l 1,7,-1
 208 0 l 1,0,-1
EndSplineSet
Validated: 1
EndChar

StartChar: U
Encoding: 313 85 57
Width: 500
GlyphClass: 2
Flags: W
AnchorPoint: "Anchor-8" 454 623 basechar 0
AnchorPoint: "Anchor-7" 0 0 basechar 0
AnchorPoint: "Anchor-6" 250 623 basechar 0
AnchorPoint: "Anchor-5" 302 10 basechar 0
AnchorPoint: "Anchor-4" 250 0 basechar 0
LayerCount: 2
Fore
SplineSet
101 48 m 128,-1,1
 50 107 50 107 50 215 c 2,2,-1
 50 623 l 1,3,-1
 128 623 l 1,4,-1
 128 616 l 1,5,6
 122 610 122 610 120.5 603 c 128,-1,7
 119 596 119 596 119 579 c 2,8,-1
 119 214 l 2,9,10
 119 134 119 134 150 91 c 128,-1,11
 181 48 181 48 252 48 c 0,12,13
 324 48 324 48 355.5 91 c 128,-1,14
 387 134 387 134 387 217 c 2,15,-1
 387 623 l 1,16,-1
 454 623 l 1,17,-1
 454 218 l 2,18,19
 454 103 454 103 400.5 46 c 128,-1,20
 347 -11 347 -11 251 -11 c 0,21,0
 152 -11 152 -11 101 48 c 128,-1,1
EndSplineSet
Validated: 1
EndChar

StartChar: V
Encoding: 314 86 58
Width: 500
GlyphClass: 2
Flags: W
AnchorPoint: "Anchor-8" 0 0 basechar 0
AnchorPoint: "Anchor-7" 0 0 basechar 0
AnchorPoint: "Anchor-6" 250 623 basechar 0
AnchorPoint: "Anchor-5" 0 0 basechar 0
AnchorPoint: "Anchor-4" 250 0 basechar 0
LayerCount: 2
Fore
SplineSet
237 -4 m 1,0,-1
 25 624 l 1,1,-1
 98 624 l 1,2,-1
 258 145 l 1,3,-1
 409 623 l 1,4,-1
 478 623 l 1,5,-1
 269 -4 l 1,6,-1
 237 -4 l 1,0,-1
EndSplineSet
Validated: 1
EndChar

StartChar: W
Encoding: 315 87 59
Width: 500
GlyphClass: 2
Flags: W
AnchorPoint: "Anchor-8" 0 0 basechar 0
AnchorPoint: "Anchor-7" 0 0 basechar 0
AnchorPoint: "Anchor-6" 260 623 basechar 0
AnchorPoint: "Anchor-5" 0 0 basechar 0
AnchorPoint: "Anchor-4" 254 0 basechar 0
LayerCount: 2
Fore
SplineSet
117 0 m 1,0,-1
 17 623 l 1,1,-1
 82 623 l 1,2,-1
 149 202 l 1,3,-1
 249 577 l 1,4,-1
 271 577 l 1,5,-1
 372 200 l 1,6,-1
 429 623 l 1,7,-1
 488 623 l 1,8,-1
 389 0 l 1,9,-1
 362 0 l 1,10,-1
 255 407 l 1,11,-1
 146 0 l 1,12,-1
 117 0 l 1,0,-1
EndSplineSet
Validated: 1
EndChar

StartChar: X
Encoding: 316 88 60
Width: 500
GlyphClass: 2
Flags: W
AnchorPoint: "Anchor-8" 0 0 basechar 0
AnchorPoint: "Anchor-7" 0 0 basechar 0
AnchorPoint: "Anchor-6" 250 623 basechar 0
AnchorPoint: "Anchor-5" 0 0 basechar 0
AnchorPoint: "Anchor-4" 250 0 basechar 0
LayerCount: 2
Fore
SplineSet
41 0 m 1,0,-1
 211 318 l 1,1,-1
 44 624 l 1,2,-1
 119 624 l 1,3,-1
 250 387 l 1,4,-1
 379 624 l 1,5,-1
 449 624 l 1,6,-1
 291 319 l 1,7,-1
 468 0 l 1,8,-1
 389 0 l 1,9,-1
 251 247 l 1,10,-1
 117 0 l 1,11,-1
 41 0 l 1,0,-1
EndSplineSet
Validated: 1
EndChar

StartChar: Y
Encoding: 317 89 61
Width: 500
GlyphClass: 2
Flags: W
AnchorPoint: "Anchor-8" 0 0 basechar 0
AnchorPoint: "Anchor-7" 0 0 basechar 0
AnchorPoint: "Anchor-6" 250 623 basechar 0
AnchorPoint: "Anchor-5" 0 0 basechar 0
AnchorPoint: "Anchor-4" 258 0 basechar 0
LayerCount: 2
Fore
SplineSet
220 0 m 1,0,-1
 220 246 l 1,1,-1
 28 623 l 1,2,-1
 108 623 l 1,3,-1
 261 321 l 1,4,-1
 399 623 l 1,5,-1
 473 623 l 1,6,-1
 296 246 l 1,7,-1
 296 0 l 1,8,-1
 220 0 l 1,0,-1
EndSplineSet
Validated: 1
EndChar

StartChar: Z
Encoding: 318 90 62
Width: 500
GlyphClass: 2
Flags: W
AnchorPoint: "Anchor-8" 0 0 basechar 0
AnchorPoint: "Anchor-7" 0 0 basechar 0
AnchorPoint: "Anchor-6" 260 623 basechar 0
AnchorPoint: "Anchor-5" 0 0 basechar 0
AnchorPoint: "Anchor-4" 270 0 basechar 0
LayerCount: 2
Fore
SplineSet
50 49 m 1,0,-1
 364 560 l 1,1,-1
 62 560 l 1,2,-1
 62 623 l 1,3,-1
 447 623 l 1,4,-1
 447 574 l 1,5,-1
 138 62 l 1,6,-1
 419 62 l 2,7,8
 435 62 435 62 442.5 64 c 128,-1,9
 450 66 450 66 456 72 c 1,10,-1
 463 72 l 1,11,-1
 463 0 l 1,12,-1
 50 0 l 1,13,-1
 50 49 l 1,0,-1
EndSplineSet
Validated: 1
EndChar

StartChar: bracketleft
Encoding: 319 91 63
Width: 500
GlyphClass: 2
Flags: W
LayerCount: 2
Fore
SplineSet
131 -89 m 1,0,-1
 131 670 l 1,1,-1
 417 670 l 1,2,-1
 417 610 l 1,3,-1
 195 610 l 1,4,-1
 195 -32 l 1,5,-1
 418 -32 l 1,6,-1
 418 -89 l 1,7,-1
 131 -89 l 1,0,-1
EndSplineSet
Validated: 1
EndChar

StartChar: backslash
Encoding: 320 92 64
Width: 500
GlyphClass: 2
Flags: W
LayerCount: 2
Fore
SplineSet
378 -42 m 1,0,-1
 64 634 l 1,1,-1
 123 665 l 1,2,-1
 437 -13 l 1,3,-1
 378 -42 l 1,0,-1
EndSplineSet
Validated: 1
EndChar

StartChar: bracketright
Encoding: 321 93 65
Width: 500
GlyphClass: 2
Flags: W
LayerCount: 2
Fore
SplineSet
418 -89 m 1,0,-1
 131 -89 l 1,1,-1
 131 -32 l 1,2,-1
 354 -32 l 1,3,-1
 354 610 l 1,4,-1
 132 610 l 1,5,-1
 132 670 l 1,6,-1
 418 670 l 1,7,-1
 418 -89 l 1,0,-1
EndSplineSet
Validated: 1
EndChar

StartChar: asciicircum
Encoding: 322 94 66
Width: 500
GlyphClass: 2
Flags: W
LayerCount: 2
Fore
SplineSet
143 343 m 1,0,-1
 93 367 l 1,1,-1
 246 623 l 1,2,-1
 268 623 l 1,3,-1
 403 368 l 1,4,-1
 350 343 l 1,5,-1
 253 518 l 1,6,-1
 143 343 l 1,0,-1
EndSplineSet
Validated: 1
Substitution2: "'ss01' Style Set 1 in Latin lookup 25 subtable" asciicircum.ss01
Substitution2: "'salt' Stylistic Alternatives in Latin lookup 24 subtable" asciicircum.ss01
Substitution2: "'aalt' Access All Alternates in Latin lookup 0 subtable" asciicircum.ss01
EndChar

StartChar: underscore
Encoding: 323 95 67
Width: 500
GlyphClass: 2
Flags: W
LayerCount: 2
Fore
SplineSet
35 -80 m 1,0,-1
 35 -19 l 1,1,-1
 466 -19 l 1,2,-1
 466 -80 l 1,3,-1
 35 -80 l 1,0,-1
EndSplineSet
Validated: 1
EndChar

StartChar: grave
Encoding: 324 96 68
Width: 500
GlyphClass: 4
Flags: W
AnchorPoint: "Anchor-10" 229 609 basemark 0
LayerCount: 2
Fore
SplineSet
255 507 m 1,0,-1
 154 642 l 1,1,-1
 209 682 l 1,2,-1
 293 533 l 1,3,-1
 255 507 l 1,0,-1
EndSplineSet
Validated: 1
Substitution2: "Single Substitution lookup 28 subtable" grave.case
Substitution2: "'case' Case-Sensitive Forms in Latin lookup 22 subtable" grave.case
Substitution2: "'aalt' Access All Alternates in Latin lookup 0 subtable" grave.case
EndChar

StartChar: a
Encoding: 325 97 69
Width: 500
GlyphClass: 2
Flags: W
AnchorPoint: "Anchor-8" 0 0 basechar 0
AnchorPoint: "Anchor-7" 0 0 basechar 0
AnchorPoint: "Anchor-6" 250 457 basechar 0
AnchorPoint: "Anchor-5" 385 0 basechar 0
AnchorPoint: "Anchor-4" 250 0 basechar 0
LayerCount: 2
Fore
SplineSet
393.5 416 m 128,-1,1
 445 365 445 365 445 243 c 2,2,-1
 445 0 l 1,3,-1
 367 0 l 1,4,-1
 367 70 l 1,5,6
 325 -11 325 -11 211 -11 c 0,7,8
 135 -11 135 -11 92 23.5 c 128,-1,9
 49 58 49 58 49 115 c 0,10,11
 49 163 49 163 80 199 c 128,-1,12
 111 235 111 235 163.5 254.5 c 128,-1,13
 216 274 216 274 279 274 c 0,14,15
 336 274 336 274 382 268 c 1,16,17
 376 345 376 345 341.5 376.5 c 128,-1,18
 307 408 307 408 239 408 c 0,19,20
 205 408 205 408 173.5 395 c 128,-1,21
 142 382 142 382 116 357 c 1,22,-1
 81 403 l 1,23,24
 145 467 145 467 244 467 c 0,25,0
 342 467 342 467 393.5 416 c 128,-1,1
335 87.5 m 128,-1,27
 378 131 378 131 382 213 c 1,28,29
 337 220 337 220 285 220 c 0,30,31
 209 220 209 220 165 195 c 128,-1,32
 121 170 121 170 121 119 c 0,33,34
 121 44 121 44 218 44 c 0,35,26
 292 44 292 44 335 87.5 c 128,-1,27
EndSplineSet
Validated: 1
Substitution2: "Single Substitution lookup 28 subtable" ordfeminine
Substitution2: "'aalt' Access All Alternates in Latin lookup 0 subtable" ordfeminine
EndChar

StartChar: b
Encoding: 326 98 70
Width: 500
GlyphClass: 2
Flags: W
AnchorPoint: "Anchor-8" 0 0 basechar 0
AnchorPoint: "Anchor-7" 0 0 basechar 0
AnchorPoint: "Anchor-6" 250 457 basechar 0
AnchorPoint: "Anchor-5" 0 0 basechar 0
AnchorPoint: "Anchor-4" 250 0 basechar 0
LayerCount: 2
Fore
SplineSet
190 7.5 m 128,-1,1
 155 26 155 26 131 60 c 1,2,-1
 106 0 l 1,3,-1
 60 0 l 1,4,-1
 60 665 l 1,5,-1
 142 665 l 1,6,-1
 142 658 l 1,7,8
 136 652 136 652 134.5 645 c 128,-1,9
 133 638 133 638 133 621 c 2,10,-1
 133 387 l 1,11,12
 155 424 155 424 192.5 446 c 128,-1,13
 230 468 230 468 269 468 c 0,14,15
 355 468 355 468 406 408 c 128,-1,16
 457 348 457 348 457 233 c 0,17,18
 457 155 457 155 430 99.5 c 128,-1,19
 403 44 403 44 359 16.5 c 128,-1,20
 315 -11 315 -11 266 -11 c 0,21,0
 225 -11 225 -11 190 7.5 c 128,-1,1
347 95.5 m 128,-1,23
 383 138 383 138 383 229 c 0,24,25
 383 317 383 317 349.5 361.5 c 128,-1,26
 316 406 316 406 259 406 c 0,27,28
 203 406 203 406 168 356 c 128,-1,29
 133 306 133 306 133 227 c 0,30,31
 133 53 133 53 257 53 c 0,32,22
 311 53 311 53 347 95.5 c 128,-1,23
EndSplineSet
Validated: 1
EndChar

StartChar: c
Encoding: 327 99 71
Width: 500
GlyphClass: 2
Flags: W
AnchorPoint: "Anchor-8" 0 0 basechar 0
AnchorPoint: "Anchor-7" 0 0 basechar 0
AnchorPoint: "Anchor-6" 286 457 basechar 0
AnchorPoint: "Anchor-5" 0 0 basechar 0
AnchorPoint: "Anchor-4" 286 0 basechar 0
LayerCount: 2
Fore
SplineSet
408 110 m 1,1,-1
 450 61 l 1,2,3
 383 -11 383 -11 285 -11 c 0,4,5
 219 -11 219 -11 167 20 c 128,-1,6
 115 51 115 51 85.5 105.5 c 128,-1,7
 56 160 56 160 56 228 c 256,8,9
 56 296 56 296 85.5 350 c 128,-1,10
 115 404 115 404 167 435 c 128,-1,11
 219 466 219 466 284 466 c 0,12,13
 339 466 339 466 384 443.5 c 128,-1,14
 429 421 429 421 457 381 c 1,15,-1
 412 337 l 1,16,-1
 411 336 l 1,17,18
 382 374 382 374 351.5 389.5 c 128,-1,19
 321 405 321 405 276 405 c 0,20,21
 237 405 237 405 203.5 383.5 c 128,-1,22
 170 362 170 362 150 323 c 128,-1,23
 130 284 130 284 130 233 c 256,24,25
 130 182 130 182 150.5 141 c 128,-1,26
 171 100 171 100 207.5 77 c 128,-1,27
 244 54 244 54 289 54 c 0,28,0
 358 54 358 54 408 110 c 1,1,-1
409 334 m 1,30,-1
 405 330 l 1,31,-1
 400 335 l 1,32,29
 400 341 400 341 409 334 c 1,30,-1
413.5 331 m 128,-1,34
 411 333 411 333 409 334 c 2,35,-1
 411 336 l 1,36,33
 416 329 416 329 413.5 331 c 128,-1,34
EndSplineSet
Validated: 5
EndChar

StartChar: d
Encoding: 328 100 72
Width: 500
GlyphClass: 2
Flags: W
AnchorPoint: "Anchor-8" 470 457 basechar 0
AnchorPoint: "Anchor-7" 360 549 basechar 0
AnchorPoint: "Anchor-6" 250 457 basechar 0
AnchorPoint: "Anchor-5" 0 0 basechar 0
AnchorPoint: "Anchor-4" 250 0 basechar 0
LayerCount: 2
Fore
SplineSet
142 17.5 m 128,-1,1
 99 45 99 45 72 100 c 128,-1,2
 45 155 45 155 45 233 c 0,3,4
 45 312 45 312 73 365 c 128,-1,5
 101 418 101 418 145 443.5 c 128,-1,6
 189 469 189 469 238 469 c 0,7,8
 284 469 284 469 318.5 448 c 128,-1,9
 353 427 353 427 371 390 c 1,10,-1
 371 665 l 1,11,-1
 447 665 l 1,12,-1
 447 658 l 1,13,14
 441 652 441 652 439.5 645 c 128,-1,15
 438 638 438 638 438 621 c 2,16,-1
 439 71 l 2,17,18
 439 47 439 47 440.5 31.5 c 128,-1,19
 442 16 442 16 449 0 c 1,20,-1
 378 0 l 1,21,22
 371 16 371 16 369.5 31.5 c 128,-1,23
 368 47 368 47 368 71 c 1,24,25
 346 33 346 33 311.5 11.5 c 128,-1,26
 277 -10 277 -10 234 -10 c 0,27,0
 185 -10 185 -10 142 17.5 c 128,-1,1
336 102 m 128,-1,29
 365 151 365 151 365 231 c 0,30,31
 365 312 365 312 333.5 361 c 128,-1,32
 302 410 302 410 239 410 c 0,33,34
 179 410 179 410 147 365.5 c 128,-1,35
 115 321 115 321 115 244 c 0,36,37
 115 156 115 156 148.5 104.5 c 128,-1,38
 182 53 182 53 245 53 c 0,39,28
 307 53 307 53 336 102 c 128,-1,29
EndSplineSet
Validated: 1
EndChar

StartChar: e
Encoding: 329 101 73
Width: 500
GlyphClass: 2
Flags: W
AnchorPoint: "Anchor-8" 0 0 basechar 0
AnchorPoint: "Anchor-7" 0 0 basechar 0
AnchorPoint: "Anchor-6" 260 457 basechar 0
AnchorPoint: "Anchor-5" 318 10 basechar 0
AnchorPoint: "Anchor-4" 280 0 basechar 0
LayerCount: 2
Fore
SplineSet
109.5 52 m 128,-1,1
 49 114 49 114 49 227 c 0,2,3
 49 302 49 302 77 356.5 c 128,-1,4
 105 411 105 411 152.5 439.5 c 128,-1,5
 200 468 200 468 259 468 c 0,6,7
 342 468 342 468 393.5 413 c 128,-1,8
 445 358 445 358 445 251 c 0,9,10
 445 240 445 240 443 218 c 1,11,-1
 118 218 l 1,12,13
 122 134 122 134 165 91 c 128,-1,14
 208 48 208 48 274 48 c 0,15,16
 346 48 346 48 392 99 c 1,17,-1
 432 60 l 1,18,19
 374 -10 374 -10 272 -10 c 256,20,0
 170 -10 170 -10 109.5 52 c 128,-1,1
372 274 m 1,21,22
 372 338 372 338 339.5 375.5 c 128,-1,23
 307 413 307 413 254 413 c 0,24,25
 204 413 204 413 167 378 c 128,-1,26
 130 343 130 343 121 274 c 1,27,-1
 372 274 l 1,21,22
EndSplineSet
Validated: 1
EndChar

StartChar: f
Encoding: 330 102 74
Width: 500
GlyphClass: 2
Flags: W
LayerCount: 2
Fore
SplineSet
435 555 m 1,0,-1
 434 554 l 1,1,2
 406 589 406 589 386.5 601 c 128,-1,3
 367 613 367 613 332 613 c 0,4,5
 285 613 285 613 258 585 c 128,-1,6
 231 557 231 557 231 495 c 2,7,-1
 231 457 l 1,8,-1
 381 457 l 1,9,-1
 381 400 l 1,10,-1
 231 400 l 1,11,-1
 231 0 l 1,12,-1
 162 0 l 1,13,-1
 162 400 l 1,14,-1
 63 400 l 1,15,-1
 63 457 l 1,16,-1
 162 457 l 1,17,-1
 162 495 l 2,18,19
 162 583 162 583 207.5 627 c 128,-1,20
 253 671 253 671 330 671 c 0,21,22
 374 671 374 671 411.5 655 c 128,-1,23
 449 639 449 639 473 608 c 1,24,-1
 435 555 l 1,0,-1
423 552 m 2,25,26
 423 555 423 555 427 553 c 128,-1,27
 431 551 431 551 432 551 c 2,28,-1
 429 547 l 1,29,-1
 423 551 l 1,30,-1
 423 552 l 2,25,26
434 554 m 1,31,32
 440 546 440 546 436.5 548.5 c 128,-1,33
 433 551 433 551 432 551 c 2,34,-1
 434 554 l 1,31,32
EndSplineSet
Validated: 5
EndChar

StartChar: g
Encoding: 331 103 75
Width: 500
GlyphClass: 2
Flags: W
AnchorPoint: "Anchor-8" 0 0 basechar 0
AnchorPoint: "Anchor-7" 0 0 basechar 0
AnchorPoint: "Anchor-6" 226 457 basechar 0
AnchorPoint: "Anchor-5" 0 0 basechar 0
AnchorPoint: "Anchor-4" 240 -162 basechar 0
LayerCount: 2
Fore
SplineSet
449 411 m 0,1,2
 401 411 401 411 369 390 c 1,3,4
 386 356 386 356 386 315 c 0,5,6
 386 270 386 270 366.5 233.5 c 128,-1,7
 347 197 347 197 310.5 176 c 128,-1,8
 274 155 274 155 226 155 c 0,9,10
 188 155 188 155 155 169 c 1,11,12
 137 147 137 147 137 127 c 0,13,14
 137 103 137 103 167.5 92.5 c 128,-1,15
 198 82 198 82 277 82 c 0,16,17
 374 82 374 82 409.5 52.5 c 128,-1,18
 445 23 445 23 445 -34 c 0,19,20
 445 -93 445 -93 397 -132.5 c 128,-1,21
 349 -172 349 -172 247 -172 c 0,22,23
 149 -172 149 -172 93.5 -142 c 128,-1,24
 38 -112 38 -112 38 -54 c 0,25,26
 38 -18 38 -18 58 8 c 128,-1,27
 78 34 78 34 109 49 c 1,28,29
 76 71 76 71 76 110 c 0,30,31
 76 150 76 150 117 194 c 1,32,33
 92 216 92 216 79 247 c 128,-1,34
 66 278 66 278 66 315 c 0,35,36
 66 359 66 359 85.5 395.5 c 128,-1,37
 105 432 105 432 141.5 453 c 128,-1,38
 178 474 178 474 226 474 c 0,39,40
 299 474 299 474 343 427 c 1,41,42
 367 449 367 449 392.5 459.5 c 128,-1,43
 418 470 418 470 449 470 c 2,44,-1
 466 469 l 1,45,-1
 475 410 l 1,46,0
 466 411 466 411 449 411 c 0,1,2
297.5 244 m 128,-1,48
 326 273 326 273 326 315 c 256,49,50
 326 357 326 357 297.5 386 c 128,-1,51
 269 415 269 415 226 415 c 256,52,53
 183 415 183 415 154.5 386 c 128,-1,54
 126 357 126 357 126 315 c 256,55,56
 126 273 126 273 154.5 244 c 128,-1,57
 183 215 183 215 226 215 c 256,58,47
 269 215 269 215 297.5 244 c 128,-1,48
370.5 -7.5 m 128,-1,60
 362 6 362 6 337 12.5 c 128,-1,61
 312 19 312 19 262 19 c 0,62,63
 190 19 190 19 147 32 c 1,64,65
 123 16 123 16 113.5 -1 c 128,-1,66
 104 -18 104 -18 104 -46 c 0,67,68
 104 -80 104 -80 142 -99 c 128,-1,69
 180 -118 180 -118 248 -118 c 0,70,71
 314 -118 314 -118 346.5 -98.5 c 128,-1,72
 379 -79 379 -79 379 -45 c 0,73,59
 379 -21 379 -21 370.5 -7.5 c 128,-1,60
EndSplineSet
Validated: 1
EndChar

StartChar: h
Encoding: 332 104 76
Width: 500
GlyphClass: 2
Flags: W
AnchorPoint: "Anchor-8" 0 0 basechar 0
AnchorPoint: "Anchor-7" 130 549 basechar 0
AnchorPoint: "Anchor-6" 118 665 basechar 0
AnchorPoint: "Anchor-5" 0 0 basechar 0
AnchorPoint: "Anchor-4" 250 0 basechar 0
LayerCount: 2
Fore
SplineSet
73 665 m 1,0,-1
 152 665 l 1,1,-1
 152 658 l 1,2,3
 146 652 146 652 144.5 645 c 128,-1,4
 143 638 143 638 143 621 c 2,5,-1
 143 376 l 1,6,7
 170 418 170 418 210.5 443 c 128,-1,8
 251 468 251 468 293 468 c 0,9,10
 358 468 358 468 395 422 c 128,-1,11
 432 376 432 376 432 277 c 2,12,-1
 432 0 l 1,13,-1
 362 0 l 1,14,-1
 362 275 l 2,15,16
 362 343 362 343 339 374 c 128,-1,17
 316 405 316 405 278 405 c 0,18,19
 246 405 246 405 215 387.5 c 128,-1,20
 184 370 184 370 163.5 337.5 c 128,-1,21
 143 305 143 305 143 263 c 2,22,-1
 143 0 l 1,23,-1
 73 0 l 1,24,-1
 73 665 l 1,0,-1
EndSplineSet
Validated: 1
EndChar

StartChar: k
Encoding: 335 107 79
Width: 500
GlyphClass: 2
Flags: W
AnchorPoint: "Anchor-8" 0 0 basechar 0
AnchorPoint: "Anchor-7" 0 0 basechar 0
AnchorPoint: "Anchor-6" 104 665 basechar 0
AnchorPoint: "Anchor-5" 0 0 basechar 0
AnchorPoint: "Anchor-4" 250 0 basechar 0
LayerCount: 2
Fore
SplineSet
199 229 m 1,0,-1
 139 173 l 1,1,-1
 139 0 l 1,2,-1
 66 0 l 1,3,-1
 66 665 l 1,4,-1
 148 665 l 1,5,-1
 148 658 l 1,6,7
 142 652 142 652 140.5 645 c 128,-1,8
 139 638 139 638 139 621 c 2,9,-1
 139 247 l 1,10,-1
 368 459 l 1,11,12
 393 454 393 454 421 454 c 2,13,-1
 447 454 l 1,14,-1
 255 273 l 1,15,-1
 479 0 l 1,16,-1
 386 -4 l 1,17,-1
 199 229 l 1,0,-1
EndSplineSet
Validated: 1
EndChar

StartChar: l
Encoding: 336 108 80
Width: 500
GlyphClass: 2
Flags: W
AnchorPoint: "Anchor-8" 480 457 basechar 0
AnchorPoint: "Anchor-7" 250 229 basechar 0
AnchorPoint: "Anchor-6" 250 665 basechar 0
AnchorPoint: "Anchor-5" 144 0 basechar 0
AnchorPoint: "Anchor-4" 250 0 basechar 0
LayerCount: 2
Fore
SplineSet
214 0 m 1,0,-1
 214 607 l 1,1,-1
 85 607 l 1,2,-1
 85 665 l 1,3,-1
 287 665 l 1,4,-1
 287 58 l 1,5,-1
 421 58 l 1,6,-1
 421 0 l 1,7,-1
 214 0 l 1,0,-1
EndSplineSet
Validated: 1
EndChar

StartChar: m
Encoding: 337 109 81
Width: 500
GlyphClass: 2
Flags: W
AnchorPoint: "Anchor-8" 0 0 basechar 0
AnchorPoint: "Anchor-7" 0 0 basechar 0
AnchorPoint: "Anchor-6" 250 457 basechar 0
AnchorPoint: "Anchor-5" 0 0 basechar 0
AnchorPoint: "Anchor-4" 250 0 basechar 0
LayerCount: 2
Fore
SplineSet
38 457 m 1,0,-1
 104 457 l 1,1,-1
 104 412 l 1,2,3
 120 437 120 437 145 452.5 c 128,-1,4
 170 468 170 468 197 468 c 0,5,6
 227 468 227 468 249.5 449 c 128,-1,7
 272 430 272 430 278 401 c 1,8,9
 291 431 291 431 319 449.5 c 128,-1,10
 347 468 347 468 381 468 c 0,11,12
 426 468 426 468 448.5 435.5 c 128,-1,13
 471 403 471 403 469 351 c 2,14,-1
 469 0 l 1,15,-1
 403 0 l 1,16,-1
 403 324 l 2,17,18
 403 381 403 381 392 398 c 128,-1,19
 381 415 381 415 360 415 c 0,20,21
 342 415 342 415 325 398 c 128,-1,22
 308 381 308 381 297.5 354.5 c 128,-1,23
 287 328 287 328 287 302 c 2,24,-1
 287 0 l 1,25,-1
 220 0 l 1,26,-1
 220 318 l 2,27,28
 220 374 220 374 209.5 393.5 c 128,-1,29
 199 413 199 413 170 413 c 0,30,31
 155 413 155 413 139.5 399.5 c 128,-1,32
 124 386 124 386 114 361.5 c 128,-1,33
 104 337 104 337 104 305 c 2,34,-1
 104 0 l 1,35,-1
 38 0 l 1,36,-1
 38 457 l 1,0,-1
EndSplineSet
Validated: 33
EndChar

StartChar: n
Encoding: 338 110 82
Width: 500
GlyphClass: 2
Flags: W
AnchorPoint: "Anchor-8" 0 0 basechar 0
AnchorPoint: "Anchor-7" 0 0 basechar 0
AnchorPoint: "Anchor-6" 265 457 basechar 0
AnchorPoint: "Anchor-5" 0 0 basechar 0
AnchorPoint: "Anchor-4" 260 0 basechar 0
LayerCount: 2
Fore
SplineSet
72 457 m 1,0,-1
 142 457 l 1,1,-1
 142 376 l 1,2,3
 169 418 169 418 210 443 c 128,-1,4
 251 468 251 468 297 468 c 0,5,6
 358 468 358 468 394.5 421.5 c 128,-1,7
 431 375 431 375 431 277 c 2,8,-1
 431 0 l 1,9,-1
 361 0 l 1,10,-1
 361 275 l 2,11,12
 361 343 361 343 338 374 c 128,-1,13
 315 405 315 405 277 405 c 0,14,15
 246 405 246 405 214.5 387 c 128,-1,16
 183 369 183 369 162.5 336.5 c 128,-1,17
 142 304 142 304 142 263 c 2,18,-1
 142 0 l 1,19,-1
 72 0 l 1,20,-1
 72 457 l 1,0,-1
EndSplineSet
Validated: 1
EndChar

StartChar: o
Encoding: 339 111 83
Width: 500
GlyphClass: 2
Flags: W
AnchorPoint: "Anchor-8" 359 436 basechar 0
AnchorPoint: "Anchor-7" 250 229 basechar 0
AnchorPoint: "Anchor-6" 250 457 basechar 0
AnchorPoint: "Anchor-5" 286 10 basechar 0
AnchorPoint: "Anchor-4" 250 0 basechar 0
LayerCount: 2
Fore
SplineSet
141 22 m 128,-1,1
 93 52 93 52 66 106 c 128,-1,2
 39 160 39 160 39 229 c 256,3,4
 39 298 39 298 66 352 c 128,-1,5
 93 406 93 406 141 436.5 c 128,-1,6
 189 467 189 467 250 467 c 256,7,8
 311 467 311 467 359 436.5 c 128,-1,9
 407 406 407 406 434 352 c 128,-1,10
 461 298 461 298 461 229 c 256,11,12
 461 160 461 160 434 106 c 128,-1,13
 407 52 407 52 359 22 c 128,-1,14
 311 -8 311 -8 250 -8 c 256,15,0
 189 -8 189 -8 141 22 c 128,-1,1
319.5 75 m 128,-1,17
 350 98 350 98 367.5 138.5 c 128,-1,18
 385 179 385 179 385 230 c 0,19,20
 385 308 385 308 347 357.5 c 128,-1,21
 309 407 309 407 250 407 c 256,22,23
 191 407 191 407 153 357.5 c 128,-1,24
 115 308 115 308 115 230 c 0,25,26
 115 179 115 179 132.5 138.5 c 128,-1,27
 150 98 150 98 180.5 75 c 128,-1,28
 211 52 211 52 250 52 c 256,29,16
 289 52 289 52 319.5 75 c 128,-1,17
EndSplineSet
Validated: 1
Substitution2: "Single Substitution lookup 28 subtable" ordmasculine
Substitution2: "'aalt' Access All Alternates in Latin lookup 0 subtable" ordmasculine
EndChar

StartChar: p
Encoding: 340 112 84
Width: 500
GlyphClass: 2
Flags: W
AnchorPoint: "Anchor-8" 0 0 basechar 0
AnchorPoint: "Anchor-7" 0 0 basechar 0
AnchorPoint: "Anchor-6" 270 457 basechar 0
AnchorPoint: "Anchor-5" 0 0 basechar 0
AnchorPoint: "Anchor-4" 270 0 basechar 0
LayerCount: 2
Fore
SplineSet
60 457 m 1,0,-1
 133 457 l 1,1,-1
 133 367 l 1,2,3
 148 417 148 417 185 442 c 128,-1,4
 222 467 222 467 272 467 c 0,5,6
 324 467 324 467 367.5 440.5 c 128,-1,7
 411 414 411 414 437 361 c 128,-1,8
 463 308 463 308 463 232 c 0,9,10
 463 155 463 155 436 99.5 c 128,-1,11
 409 44 409 44 364.5 16 c 128,-1,12
 320 -12 320 -12 270 -12 c 0,13,14
 229 -12 229 -12 193 7 c 128,-1,15
 157 26 157 26 134 60 c 1,16,-1
 134 -167 l 1,17,-1
 60 -167 l 1,18,-1
 60 457 l 1,0,-1
350.5 93.5 m 128,-1,20
 388 135 388 135 388 229 c 0,21,22
 388 314 388 314 355 359.5 c 128,-1,23
 322 405 322 405 261 405 c 0,24,25
 204 405 204 405 168.5 357.5 c 128,-1,26
 133 310 133 310 133 213 c 0,27,28
 135 134 135 134 168 93 c 128,-1,29
 201 52 201 52 258 52 c 0,30,19
 313 52 313 52 350.5 93.5 c 128,-1,20
EndSplineSet
Validated: 1
EndChar

StartChar: q
Encoding: 341 113 85
Width: 500
GlyphClass: 2
Flags: W
LayerCount: 2
Fore
SplineSet
370 73 m 1,0,1
 349 34 349 34 312 12 c 128,-1,2
 275 -10 275 -10 230 -10 c 0,3,4
 178 -10 178 -10 135 20.5 c 128,-1,5
 92 51 92 51 67 105.5 c 128,-1,6
 42 160 42 160 42 230 c 0,7,8
 42 303 42 303 69 357.5 c 128,-1,9
 96 412 96 412 142 440.5 c 128,-1,10
 188 469 188 469 243 469 c 0,11,12
 290 469 290 469 323 448.5 c 128,-1,13
 356 428 356 428 374 390 c 1,14,-1
 374 457 l 1,15,-1
 442 457 l 1,16,-1
 442 -167 l 1,17,-1
 370 -167 l 1,18,-1
 370 73 l 1,0,1
333.5 99.5 m 128,-1,20
 368 146 368 146 368 241 c 0,21,22
 368 410 368 410 251 410 c 0,23,24
 191 410 191 410 153 365 c 128,-1,25
 115 320 115 320 115 233 c 0,26,27
 115 150 115 150 149.5 101.5 c 128,-1,28
 184 53 184 53 243 53 c 0,29,19
 299 53 299 53 333.5 99.5 c 128,-1,20
EndSplineSet
Validated: 1
EndChar

StartChar: r
Encoding: 342 114 86
Width: 500
GlyphClass: 2
Flags: W
AnchorPoint: "Anchor-8" 0 0 basechar 0
AnchorPoint: "Anchor-7" 0 0 basechar 0
AnchorPoint: "Anchor-6" 250 457 basechar 0
AnchorPoint: "Anchor-5" 0 0 basechar 0
AnchorPoint: "Anchor-4" 270 0 basechar 0
LayerCount: 2
Fore
SplineSet
426 362 m 1,0,-1
 426 361 l 1,1,2
 397 388 397 388 377.5 397 c 128,-1,3
 358 406 358 406 332 406 c 0,4,5
 296 406 296 406 264 388 c 128,-1,6
 232 370 232 370 212 333.5 c 128,-1,7
 192 297 192 297 192 242 c 2,8,-1
 192 -1 l 1,9,-1
 119 -1 l 1,10,-1
 119 457 l 1,11,-1
 194 457 l 1,12,-1
 192 373 l 1,13,14
 211 418 211 418 250.5 443 c 128,-1,15
 290 468 290 468 337 468 c 0,16,17
 410 468 410 468 458 418 c 1,18,-1
 426 362 l 1,0,-1
429.5 356 m 128,-1,20
 426 357 426 357 424 358 c 2,21,-1
 426 361 l 1,22,19
 433 355 433 355 429.5 356 c 128,-1,20
415 358 m 2,23,24
 415 361 415 361 418 360.5 c 128,-1,25
 421 360 421 360 424 358 c 2,26,-1
 422 353 l 1,27,-1
 415 357 l 1,28,-1
 415 358 l 2,23,24
EndSplineSet
Validated: 5
EndChar

StartChar: s
Encoding: 343 115 87
Width: 500
GlyphClass: 2
Flags: W
LayerCount: 2
Fore
SplineSet
404.5 212.5 m 128,-1,1
 440 182 440 182 440 133 c 0,2,3
 440 71 440 71 391.5 30.5 c 128,-1,4
 343 -10 343 -10 251 -10 c 0,5,6
 135 -10 135 -10 57 62 c 1,7,-1
 97 130 l 1,8,-1
 98 131 l 1,9,-1
 99 130 l 1,10,11
 130 90 130 90 163 70 c 128,-1,12
 196 50 196 50 253 50 c 0,13,14
 307 50 307 50 338 69.5 c 128,-1,15
 369 89 369 89 369 123 c 0,16,17
 369 152 369 152 344 171 c 128,-1,18
 319 190 319 190 254 211 c 0,19,20
 82 260 82 260 82 353 c 0,21,22
 82 406 82 406 125.5 437 c 128,-1,23
 169 468 169 468 250 468 c 0,24,25
 312 468 312 468 354.5 450.5 c 128,-1,26
 397 433 397 433 432 396 c 1,27,-1
 391 346 l 1,28,-1
 390 345 l 1,29,30
 369 377 369 377 330.5 395.5 c 128,-1,31
 292 414 292 414 252 414 c 0,32,33
 209 414 209 414 181.5 399 c 128,-1,34
 154 384 154 384 154 357 c 0,35,36
 154 332 154 332 182 311 c 128,-1,37
 210 290 210 290 283 269 c 0,38,0
 369 243 369 243 404.5 212.5 c 128,-1,1
387 342 m 1,40,-1
 384 338 l 1,41,-1
 379 343 l 2,42,39
 379 348 379 348 387 342 c 1,40,-1
392.5 340 m 128,-1,44
 392 339 392 339 390 340 c 128,-1,45
 388 341 388 341 387 342 c 2,46,-1
 390 345 l 1,47,43
 393 341 393 341 392.5 340 c 128,-1,44
109 134 m 2,48,49
 109 130 109 130 100 134 c 1,50,-1
 103 139 l 1,51,-1
 109 135 l 1,52,-1
 109 134 l 2,48,49
96 136 m 128,-1,54
 97 136 97 136 100 134 c 2,55,-1
 98 131 l 1,56,53
 95 136 95 136 96 136 c 128,-1,54
EndSplineSet
Validated: 5
EndChar

StartChar: t
Encoding: 344 116 88
Width: 500
GlyphClass: 2
Flags: W
AnchorPoint: "Anchor-8" 310 457 basechar 0
AnchorPoint: "Anchor-7" 213 312 basechar 0
AnchorPoint: "Anchor-6" 241 587 basechar 0
AnchorPoint: "Anchor-5" 0 0 basechar 0
AnchorPoint: "Anchor-4" 250 0 basechar 0
LayerCount: 2
Fore
SplineSet
444 42 m 1,0,1
 378 -7 378 -7 299 -7 c 0,2,3
 223 -7 223 -7 191.5 39 c 128,-1,4
 160 85 160 85 160 189 c 0,5,6
 160 206 160 206 162 248 c 2,7,-1
 171 398 l 1,8,-1
 70 398 l 1,9,-1
 70 457 l 1,10,-1
 175 457 l 1,11,-1
 182 579 l 1,12,-1
 262 592 l 1,13,-1
 272 593 l 1,14,-1
 273 587 l 1,15,16
 266 577 266 577 262.5 570 c 128,-1,17
 259 563 259 563 258 548 c 2,18,-1
 247 457 l 1,19,-1
 399 457 l 1,20,-1
 399 398 l 1,21,-1
 243 398 l 1,22,-1
 234 243 l 2,23,24
 232 203 232 203 232 190 c 0,25,26
 232 110 232 110 250.5 81.5 c 128,-1,27
 269 53 269 53 310 53 c 0,28,29
 340 53 340 53 365 64 c 128,-1,30
 390 75 390 75 422 99 c 1,31,-1
 444 42 l 1,0,1
EndSplineSet
Validated: 1
EndChar

StartChar: u
Encoding: 345 117 89
Width: 500
GlyphClass: 2
Flags: W
AnchorPoint: "Anchor-8" 432 457 basechar 0
AnchorPoint: "Anchor-7" 0 0 basechar 0
AnchorPoint: "Anchor-6" 250 457 basechar 0
AnchorPoint: "Anchor-5" 392 0 basechar 0
AnchorPoint: "Anchor-4" 231 0 basechar 0
LayerCount: 2
Fore
SplineSet
106 42.5 m 128,-1,1
 63 96 63 96 64 202 c 2,2,-1
 65 457 l 1,3,-1
 135 457 l 1,4,-1
 135 202 l 2,5,6
 135 120 135 120 163.5 83.5 c 128,-1,7
 192 47 192 47 239 47 c 0,8,9
 291 47 291 47 326.5 87.5 c 128,-1,10
 362 128 362 128 362 205 c 2,11,-1
 362 457 l 1,12,-1
 432 457 l 1,13,-1
 432 71 l 2,14,15
 432 47 432 47 433.5 31.5 c 128,-1,16
 435 16 435 16 442 0 c 1,17,-1
 373 0 l 1,18,19
 366 15 366 15 364.5 31 c 128,-1,20
 363 47 363 47 363 70 c 1,21,22
 341 32 341 32 303.5 10.5 c 128,-1,23
 266 -11 266 -11 221 -11 c 0,24,0
 149 -11 149 -11 106 42.5 c 128,-1,1
EndSplineSet
Validated: 33
EndChar

StartChar: v
Encoding: 346 118 90
Width: 500
GlyphClass: 2
Flags: W
AnchorPoint: "Anchor-8" 0 0 basechar 0
AnchorPoint: "Anchor-7" 0 0 basechar 0
AnchorPoint: "Anchor-6" 250 457 basechar 0
AnchorPoint: "Anchor-5" 0 0 basechar 0
AnchorPoint: "Anchor-4" 250 0 basechar 0
LayerCount: 2
Fore
SplineSet
455 457 m 1,0,1
 439 376 439 376 388 257 c 2,2,-1
 277 0 l 1,3,-1
 221 0 l 1,4,-1
 40 457 l 1,5,-1
 112 457 l 1,6,-1
 253 99 l 1,7,-1
 327 268 l 2,8,9
 373 372 373 372 387 457 c 1,10,-1
 455 457 l 1,0,1
EndSplineSet
Validated: 1
EndChar

StartChar: w
Encoding: 347 119 91
Width: 500
GlyphClass: 2
Flags: W
AnchorPoint: "Anchor-8" 0 0 basechar 0
AnchorPoint: "Anchor-7" 0 0 basechar 0
AnchorPoint: "Anchor-6" 250 457 basechar 0
AnchorPoint: "Anchor-5" 0 0 basechar 0
AnchorPoint: "Anchor-4" 250 0 basechar 0
LayerCount: 2
Fore
SplineSet
16 457 m 1,0,-1
 79 457 l 1,1,-1
 153 90 l 1,2,-1
 231 414 l 1,3,-1
 275 414 l 1,4,-1
 372 91 l 1,5,6
 400 278 400 278 407 336.5 c 128,-1,7
 414 395 414 395 414 442 c 2,8,-1
 414 457 l 1,9,-1
 481 457 l 1,10,11
 451 225 451 225 405 -1 c 1,12,-1
 337 -1 l 1,13,-1
 253 295 l 1,14,-1
 173 -1 l 1,15,-1
 108 -1 l 1,16,-1
 16 457 l 1,0,-1
EndSplineSet
Validated: 1
EndChar

StartChar: x
Encoding: 348 120 92
Width: 500
GlyphClass: 2
Flags: W
AnchorPoint: "Anchor-8" 0 0 basechar 0
AnchorPoint: "Anchor-7" 0 0 basechar 0
AnchorPoint: "Anchor-6" 250 457 basechar 0
AnchorPoint: "Anchor-5" 0 0 basechar 0
AnchorPoint: "Anchor-4" 250 0 basechar 0
LayerCount: 2
Fore
SplineSet
47 0 m 1,0,-1
 208 232 l 1,1,-1
 50 457 l 1,2,-1
 129 457 l 1,3,-1
 248 288 l 1,4,-1
 362 457 l 1,5,-1
 436 457 l 1,6,-1
 288 235 l 1,7,-1
 456 0 l 1,8,-1
 374 0 l 1,9,-1
 248 178 l 1,10,-1
 129 0 l 1,11,-1
 47 0 l 1,0,-1
EndSplineSet
Validated: 1
EndChar

StartChar: y
Encoding: 349 121 93
Width: 500
GlyphClass: 2
Flags: W
AnchorPoint: "Anchor-8" 0 0 basechar 0
AnchorPoint: "Anchor-7" 0 0 basechar 0
AnchorPoint: "Anchor-6" 253 457 basechar 0
AnchorPoint: "Anchor-5" 0 0 basechar 0
AnchorPoint: "Anchor-4" 370 0 basechar 0
LayerCount: 2
Fore
SplineSet
443 457 m 1,0,1
 437 416 437 416 424.5 376 c 128,-1,2
 412 336 412 336 389 270 c 2,3,-1
 275 -52 l 2,4,5
 252 -116 252 -116 215 -145 c 128,-1,6
 178 -174 178 -174 127 -174 c 0,7,8
 63 -174 63 -174 22 -135 c 1,9,-1
 53 -86 l 1,10,-1
 54 -85 l 1,11,-1
 55 -86 l 2,12,13
 71 -101 71 -101 89 -108 c 128,-1,14
 107 -115 107 -115 131 -115 c 0,15,16
 168 -115 168 -115 190 -89 c 128,-1,17
 212 -63 212 -63 233 -3 c 1,18,-1
 46 457 l 1,19,-1
 121 457 l 1,20,-1
 263 91 l 1,21,-1
 323 275 l 2,22,23
 345 344 345 344 355.5 380.5 c 128,-1,24
 366 417 366 417 371 457 c 1,25,-1
 443 457 l 1,0,1
65 -82 m 2,26,27
 65 -84 65 -84 63 -84 c 2,28,-1
 55 -82 l 1,29,-1
 59 -77 l 1,30,-1
 65 -81 l 1,31,-1
 65 -82 l 2,26,27
51.5 -81 m 128,-1,33
 54 -82 54 -82 55 -82 c 2,34,-1
 54 -85 l 1,35,32
 49 -80 49 -80 51.5 -81 c 128,-1,33
EndSplineSet
Validated: 5
EndChar

StartChar: z
Encoding: 350 122 94
Width: 500
GlyphClass: 2
Flags: W
AnchorPoint: "Anchor-8" 0 0 basechar 0
AnchorPoint: "Anchor-7" 0 0 basechar 0
AnchorPoint: "Anchor-6" 250 457 basechar 0
AnchorPoint: "Anchor-5" 0 0 basechar 0
AnchorPoint: "Anchor-4" 250 0 basechar 0
LayerCount: 2
Fore
SplineSet
50 49 m 1,0,-1
 333 394 l 1,1,-1
 71 394 l 1,2,-1
 71 457 l 1,3,-1
 426 457 l 1,4,-1
 426 408 l 1,5,-1
 148 62 l 1,6,-1
 406 62 l 2,7,8
 422 62 422 62 429.5 64 c 128,-1,9
 437 66 437 66 443 72 c 1,10,-1
 450 72 l 1,11,-1
 450 0 l 1,12,-1
 50 0 l 1,13,-1
 50 49 l 1,0,-1
EndSplineSet
Validated: 1
EndChar

StartChar: braceleft
Encoding: 351 123 95
Width: 500
GlyphClass: 2
Flags: W
LayerCount: 2
Fore
SplineSet
248 -144 m 128,-1,1
 201 -129 201 -129 178.5 -91 c 128,-1,2
 156 -53 156 -53 159 16 c 2,3,-1
 163 116 l 2,4,5
 163 179 163 179 141 203.5 c 128,-1,6
 119 228 119 228 73 228 c 2,7,-1
 53 228 l 1,8,-1
 53 284 l 1,9,-1
 72 284 l 2,10,11
 119 284 119 284 142 309.5 c 128,-1,12
 165 335 165 335 165 391 c 2,13,-1
 163 463 l 1,14,15
 163 637 163 637 345 637 c 2,16,-1
 408 637 l 1,17,-1
 408 580 l 1,18,-1
 326 580 l 2,19,20
 233 580 233 580 233 474 c 2,21,-1
 235 404 l 2,22,23
 235 294 235 294 148 256 c 1,24,25
 233 228 233 228 233 101 c 1,26,-1
 230 17 l 2,27,28
 230 -50 230 -50 259 -76.5 c 128,-1,29
 288 -103 288 -103 356 -103 c 2,30,-1
 407 -103 l 1,31,-1
 407 -159 l 1,32,-1
 371 -159 l 2,33,0
 295 -159 295 -159 248 -144 c 128,-1,1
EndSplineSet
Validated: 33
EndChar

StartChar: braceright
Encoding: 353 125 97
Width: 500
GlyphClass: 2
Flags: W
LayerCount: 2
Fore
SplineSet
55 -159 m 1,0,-1
 55 -103 l 1,1,-1
 106 -103 l 2,2,3
 174 -103 174 -103 203 -76.5 c 128,-1,4
 232 -50 232 -50 232 17 c 2,5,-1
 229 101 l 1,6,7
 229 228 229 228 314 256 c 1,8,9
 227 294 227 294 227 404 c 2,10,-1
 229 474 l 2,11,12
 229 580 229 580 136 580 c 2,13,-1
 54 580 l 1,14,-1
 54 637 l 1,15,-1
 117 637 l 2,16,17
 299 637 299 637 299 463 c 1,18,-1
 297 391 l 2,19,20
 297 335 297 335 320 309.5 c 128,-1,21
 343 284 343 284 390 284 c 2,22,-1
 409 284 l 1,23,-1
 409 228 l 1,24,-1
 389 228 l 2,25,26
 343 228 343 228 321 203.5 c 128,-1,27
 299 179 299 179 299 116 c 2,28,-1
 303 16 l 2,29,30
 306 -53 306 -53 283.5 -91 c 128,-1,31
 261 -129 261 -129 214 -144 c 128,-1,32
 167 -159 167 -159 91 -159 c 2,33,-1
 55 -159 l 1,0,-1
EndSplineSet
Validated: 33
EndChar

StartChar: asciitilde
Encoding: 354 126 98
Width: 500
GlyphClass: 2
Flags: W
LayerCount: 2
Fore
SplineSet
303.5 274 m 128,-1,1
 284 282 284 282 261 296 c 0,2,3
 239 308 239 308 225.5 314 c 128,-1,4
 212 320 212 320 196 320 c 0,5,6
 172 320 172 320 154 309.5 c 128,-1,7
 136 299 136 299 120 273 c 1,8,-1
 71 295 l 1,9,10
 88 331 88 331 119 353 c 128,-1,11
 150 375 150 375 194 375 c 0,12,13
 218 375 218 375 235.5 367.5 c 128,-1,14
 253 360 253 360 277 346 c 0,15,16
 297 333 297 333 312 327 c 128,-1,17
 327 321 327 321 344 321 c 0,18,19
 366 321 366 321 380.5 331 c 128,-1,20
 395 341 395 341 415 369 c 1,21,-1
 461 341 l 1,22,23
 435 299 435 299 410 282.5 c 128,-1,24
 385 266 385 266 348 266 c 0,25,0
 323 266 323 266 303.5 274 c 128,-1,1
EndSplineSet
Validated: 1
Substitution2: "'ss01' Style Set 1 in Latin lookup 25 subtable" asciitilde.ss01
Substitution2: "'salt' Stylistic Alternatives in Latin lookup 24 subtable" asciitilde.ss01
Substitution2: "'aalt' Access All Alternates in Latin lookup 0 subtable" asciitilde.ss01
EndChar

StartChar: exclamdown
Encoding: 356 161 100
Width: 500
GlyphClass: 2
Flags: W
LayerCount: 2
Fore
SplineSet
281 580.5 m 128,-1,1
 299 563 299 563 299 540 c 0,2,3
 299 516 299 516 281 498 c 128,-1,4
 263 480 263 480 239 480 c 256,5,6
 215 480 215 480 197.5 498 c 128,-1,7
 180 516 180 516 180 540 c 256,8,9
 180 564 180 564 197.5 581 c 128,-1,10
 215 598 215 598 239 598 c 256,11,0
 263 598 263 598 281 580.5 c 128,-1,1
265 393 m 1,12,-1
 292 3 l 1,13,14
 292 -81 292 -81 241 -81 c 0,15,16
 217 -81 217 -81 203.5 -61.5 c 128,-1,17
 190 -42 190 -42 190 -7 c 2,18,-1
 215 393 l 1,19,-1
 265 393 l 1,12,-1
EndSplineSet
Validated: 1
EndChar

StartChar: cent
Encoding: 357 162 101
Width: 500
GlyphClass: 2
Flags: W
AnchorPoint: "Anchor-3" 0 0 basechar 0
AnchorPoint: "Anchor-2" 0 0 basechar 0
AnchorPoint: "Anchor-1" 286 500 basechar 0
AnchorPoint: "Anchor-0" 286 43 basechar 0
LayerCount: 2
Fore
SplineSet
408 153 m 1,1,-1
 450 104 l 1,2,3
 383 32 383 32 285 32 c 0,4,5
 268 32 268 32 260 33 c 1,6,-1
 246 -73 l 1,7,-1
 194 -73 l 1,8,-1
 210 44 l 1,9,10
 140 67 140 67 98 128 c 128,-1,11
 56 189 56 189 56 271 c 0,12,13
 56 337 56 337 84 390 c 128,-1,14
 112 443 112 443 161.5 475 c 128,-1,15
 211 507 211 507 273 509 c 1,16,-1
 289 623 l 1,17,-1
 338 623 l 1,18,-1
 323 506 l 1,19,20
 365 499 365 499 400 478 c 128,-1,21
 435 457 435 457 457 424 c 1,22,-1
 412 380 l 1,23,-1
 411 379 l 1,24,25
 388 409 388 409 365.5 424.5 c 128,-1,26
 343 440 343 440 314 445 c 1,27,-1
 269 98 l 1,28,29
 275 97 275 97 289 97 c 0,30,0
 358 97 358 97 408 153 c 1,1,-1
154 177 m 128,-1,32
 178 134 178 134 219 113 c 1,33,-1
 265 448 l 1,34,35
 229 445 229 445 198 423 c 128,-1,36
 167 401 167 401 148.5 362.5 c 128,-1,37
 130 324 130 324 130 276 c 0,38,31
 130 220 130 220 154 177 c 128,-1,32
409 377 m 1,40,-1
 405 373 l 1,41,-1
 400 378 l 1,42,39
 400 384 400 384 409 377 c 1,40,-1
413.5 374 m 128,-1,44
 411 376 411 376 409 377 c 2,45,-1
 411 379 l 1,46,43
 416 372 416 372 413.5 374 c 128,-1,44
EndSplineSet
Validated: 5
EndChar

StartChar: sterling
Encoding: 358 163 102
Width: 500
GlyphClass: 2
Flags: W
LayerCount: 2
Fore
SplineSet
39 49 m 1,0,1
 101 79 101 79 124.5 115.5 c 128,-1,2
 148 152 148 152 148 222 c 0,3,4
 148 260 148 260 133 321 c 1,5,-1
 67 321 l 1,6,-1
 67 378 l 1,7,-1
 119 378 l 1,8,9
 112 410 112 410 112 442 c 0,10,11
 112 495 112 495 135.5 536.5 c 128,-1,12
 159 578 159 578 199.5 600.5 c 128,-1,13
 240 623 240 623 288 623 c 0,14,15
 363 623 363 623 418 572 c 1,16,-1
 374 517 l 1,17,18
 353 542 353 542 332 554 c 128,-1,19
 311 566 311 566 270 566 c 256,20,21
 229 566 229 566 204 533 c 128,-1,22
 179 500 179 500 179 443 c 0,23,24
 179 421 179 421 187 378 c 1,25,-1
 317 378 l 1,26,-1
 317 321 l 1,27,-1
 201 321 l 1,28,29
 214 268 214 268 214 224 c 0,30,31
 214 149 214 149 178 90 c 1,32,33
 184 91 184 91 195 91 c 0,34,35
 218 91 218 91 240.5 85.5 c 128,-1,36
 263 80 263 80 293 69 c 0,37,38
 323 59 323 59 339.5 55 c 128,-1,39
 356 51 356 51 373 51 c 0,40,41
 410 51 410 51 444 79 c 1,42,-1
 470 27 l 1,43,44
 418 -15 418 -15 366 -15 c 0,45,46
 349 -15 349 -15 290 4 c 0,47,48
 248 17 248 17 224 23.5 c 128,-1,49
 200 30 200 30 180 30 c 0,50,51
 136 30 136 30 65 -8 c 1,52,-1
 39 49 l 1,0,1
EndSplineSet
Validated: 1
EndChar

StartChar: currency
Encoding: 359 164 103
Width: 500
GlyphClass: 2
Flags: W
LayerCount: 2
Fore
SplineSet
68 199 m 1,0,-1
 124 256 l 1,1,2
 96 296 96 296 96 345 c 0,3,4
 96 396 96 396 125 435 c 1,5,-1
 68 492 l 1,6,-1
 104 527 l 1,7,-1
 160 471 l 1,8,9
 201 500 201 500 251 500 c 0,10,11
 299 500 299 500 340 472 c 1,12,-1
 396 527 l 1,13,-1
 432 492 l 1,14,-1
 376 437 l 1,15,16
 406 395 406 395 406 345 c 256,17,18
 406 295 406 295 377 254 c 1,19,-1
 432 199 l 1,20,-1
 396 164 l 1,21,-1
 341 219 l 1,22,23
 302 190 302 190 251 190 c 0,24,25
 201 190 201 190 159 220 c 1,26,-1
 104 164 l 1,27,-1
 68 199 l 1,0,-1
324 274 m 128,-1,29
 351 303 351 303 351 345 c 0,30,31
 351 388 351 388 324 417 c 128,-1,32
 297 446 297 446 250 446 c 0,33,34
 204 446 204 446 177 417 c 128,-1,35
 150 388 150 388 150 345 c 0,36,37
 150 303 150 303 177 274 c 128,-1,38
 204 245 204 245 250 245 c 0,39,28
 297 245 297 245 324 274 c 128,-1,29
EndSplineSet
Validated: 1
EndChar

StartChar: yen
Encoding: 360 165 104
Width: 500
GlyphClass: 2
Flags: W
LayerCount: 2
Fore
SplineSet
292 295 m 1,0,-1
 292 274 l 1,1,-1
 426 274 l 1,2,-1
 426 217 l 1,3,-1
 292 217 l 1,4,-1
 292 154 l 1,5,-1
 426 154 l 1,6,-1
 426 98 l 1,7,-1
 292 98 l 1,8,-1
 292 0 l 1,9,-1
 224 0 l 1,10,-1
 224 98 l 1,11,-1
 84 98 l 1,12,-1
 84 154 l 1,13,-1
 224 154 l 1,14,-1
 224 217 l 1,15,-1
 84 217 l 1,16,-1
 84 274 l 1,17,-1
 224 274 l 1,18,-1
 224 295 l 1,19,-1
 36 624 l 1,20,-1
 114 624 l 1,21,-1
 259 363 l 1,22,-1
 392 623 l 1,23,-1
 466 623 l 1,24,-1
 292 295 l 1,0,-1
EndSplineSet
Validated: 1
EndChar

StartChar: brokenbar
Encoding: 361 166 105
Width: 500
GlyphClass: 2
Flags: W
LayerCount: 2
Fore
SplineSet
217 295 m 1,0,-1
 217 652 l 1,1,-1
 284 652 l 1,2,-1
 284 295 l 1,3,-1
 217 295 l 1,0,-1
217 -151 m 1,4,-1
 217 196 l 1,5,-1
 284 196 l 1,6,-1
 284 -151 l 1,7,-1
 217 -151 l 1,4,-1
EndSplineSet
Validated: 1
EndChar

StartChar: section
Encoding: 362 167 106
Width: 500
GlyphClass: 2
Flags: W
LayerCount: 2
Fore
SplineSet
140.5 -32 m 128,-1,1
 95 -10 95 -10 65 31 c 1,2,-1
 117 92 l 1,3,4
 124 90 124 90 125.5 82.5 c 128,-1,5
 127 75 127 75 132 66 c 128,-1,6
 137 57 137 57 154 41 c 0,7,8
 186 12 186 12 234 12 c 0,9,10
 281 12 281 12 309 34.5 c 128,-1,11
 337 57 337 57 337 91 c 0,12,13
 337 126 337 126 312.5 147 c 128,-1,14
 288 168 288 168 220 188 c 0,15,16
 143 213 143 213 111 242 c 128,-1,17
 79 271 79 271 79 316 c 0,18,19
 79 349 79 349 101.5 376.5 c 128,-1,20
 124 404 124 404 161 417 c 1,21,22
 94 457 94 457 94 530 c 0,23,24
 94 568 94 568 115.5 600.5 c 128,-1,25
 137 633 137 633 174.5 652.5 c 128,-1,26
 212 672 212 672 257 672 c 0,27,28
 306 672 306 672 347.5 648.5 c 128,-1,29
 389 625 389 625 413 583 c 1,30,-1
 356 533 l 1,31,32
 352 537 352 537 350 544 c 0,33,34
 346 571 346 571 319 592 c 128,-1,35
 292 613 292 613 256 613 c 0,36,37
 219 613 219 613 193 590.5 c 128,-1,38
 167 568 167 568 167 536 c 0,39,40
 167 509 167 509 180.5 492 c 128,-1,41
 194 475 194 475 220 462 c 128,-1,42
 246 449 246 449 302 428 c 2,43,-1
 326 419 l 1,44,45
 418 375 418 375 418 305 c 0,46,47
 418 275 418 275 397.5 248.5 c 128,-1,48
 377 222 377 222 344 209 c 1,49,50
 408 166 408 166 408 98 c 0,51,52
 408 55 408 55 386 20 c 128,-1,53
 364 -15 364 -15 325 -34.5 c 128,-1,54
 286 -54 286 -54 238 -54 c 0,55,0
 186 -54 186 -54 140.5 -32 c 128,-1,1
343 292 m 0,57,58
 343 324 343 324 319.5 344.5 c 128,-1,59
 296 365 296 365 240 384 c 2,60,-1
 197 399 l 1,61,62
 177 392 177 392 164.5 375 c 128,-1,63
 152 358 152 358 152 336 c 0,64,65
 152 303 152 303 176.5 281.5 c 128,-1,66
 201 260 201 260 256 244 c 2,67,-1
 276 238 l 2,68,69
 303 230 303 230 307 228 c 0,70,56
 343 248 343 248 343 292 c 0,57,58
EndSplineSet
Validated: 1
EndChar

StartChar: dieresis
Encoding: 363 168 107
Width: 500
GlyphClass: 2
Flags: W
LayerCount: 2
Fore
SplineSet
127 579 m 128,-1,1
 112 594 112 594 112 614 c 256,2,3
 112 634 112 634 127 649.5 c 128,-1,4
 142 665 142 665 163 665 c 0,5,6
 183 665 183 665 198 650 c 128,-1,7
 213 635 213 635 213 614 c 0,8,9
 213 594 213 594 198 579 c 128,-1,10
 183 564 183 564 163 564 c 0,11,0
 142 564 142 564 127 579 c 128,-1,1
305.5 578.5 m 128,-1,13
 291 593 291 593 291 614 c 256,14,15
 291 635 291 635 305.5 650 c 128,-1,16
 320 665 320 665 341 665 c 0,17,18
 361 665 361 665 376 650 c 128,-1,19
 391 635 391 635 391 614 c 0,20,21
 391 594 391 594 376 579 c 128,-1,22
 361 564 361 564 341 564 c 0,23,12
 320 564 320 564 305.5 578.5 c 128,-1,13
EndSplineSet
Validated: 1
Substitution2: "Single Substitution lookup 28 subtable" dieresis.case
Substitution2: "'case' Case-Sensitive Forms in Latin lookup 22 subtable" dieresis.case
Substitution2: "'aalt' Access All Alternates in Latin lookup 0 subtable" dieresis.case
EndChar

StartChar: copyright
Encoding: 364 169 108
Width: 500
GlyphClass: 2
Flags: W
LayerCount: 2
Fore
SplineSet
134.5 53.5 m 128,-1,1
 79 88 79 88 46.5 146.5 c 128,-1,2
 14 205 14 205 14 274 c 256,3,4
 14 343 14 343 46.5 402 c 128,-1,5
 79 461 79 461 135 495.5 c 128,-1,6
 191 530 191 530 256 530 c 256,7,8
 321 530 321 530 376.5 495.5 c 128,-1,9
 432 461 432 461 465 402 c 128,-1,10
 498 343 498 343 498 274 c 0,11,12
 498 168 498 168 426 93 c 0,13,14
 355 19 355 19 255 19 c 0,15,0
 190 19 190 19 134.5 53.5 c 128,-1,1
355.5 91 m 128,-1,17
 401 120 401 120 428 169 c 128,-1,18
 455 218 455 218 455 275 c 256,19,20
 455 332 455 332 428.5 381 c 128,-1,21
 402 430 402 430 356.5 459 c 128,-1,22
 311 488 311 488 257 488 c 256,23,24
 203 488 203 488 157.5 459.5 c 128,-1,25
 112 431 112 431 85.5 382 c 128,-1,26
 59 333 59 333 59 274 c 0,27,28
 59 216 59 216 85.5 167.5 c 128,-1,29
 112 119 112 119 157.5 90.5 c 128,-1,30
 203 62 203 62 257 62 c 0,31,16
 310 62 310 62 355.5 91 c 128,-1,17
187.5 143 m 128,-1,33
 154 164 154 164 134.5 199.5 c 128,-1,34
 115 235 115 235 115 276 c 256,35,36
 115 317 115 317 135 351 c 128,-1,37
 155 385 155 385 187.5 404.5 c 128,-1,38
 220 424 220 424 254 424 c 0,39,40
 307 424 307 424 342 399 c 128,-1,41
 377 374 377 374 387 331 c 1,42,-1
 335 312 l 1,43,44
 331 318 331 318 330.5 327 c 128,-1,45
 330 336 330 336 325.5 343.5 c 128,-1,46
 321 351 321 351 302 364 c 0,47,48
 286 374 286 374 262 374 c 0,49,50
 229 374 229 374 200 350.5 c 128,-1,51
 171 327 171 327 171 281 c 0,52,53
 171 237 171 237 198.5 205.5 c 128,-1,54
 226 174 226 174 265 174 c 0,55,56
 289 174 289 174 309 186 c 128,-1,57
 329 198 329 198 340 219 c 1,58,-1
 384 190 l 1,59,60
 363 158 363 158 330 140 c 128,-1,61
 297 122 297 122 261 122 c 0,62,32
 221 122 221 122 187.5 143 c 128,-1,33
EndSplineSet
Validated: 1
EndChar

StartChar: ordfeminine
Encoding: 365 170 109
Width: 500
GlyphClass: 2
Flags: W
LayerCount: 2
Fore
SplineSet
136 287.5 m 128,-1,1
 102 318 102 318 102 362 c 0,2,3
 102 478 102 478 276 478 c 0,4,5
 291 478 291 478 325 476 c 1,6,7
 325 525 325 525 308 547 c 128,-1,8
 291 569 291 569 251 569 c 0,9,10
 189 569 189 569 157 525 c 1,11,-1
 123 566 l 1,12,13
 173 622 173 622 257 622 c 0,14,15
 327 620 327 620 358 586 c 128,-1,16
 389 552 389 552 389 485 c 2,17,-1
 389 267 l 1,18,-1
 326 267 l 1,19,-1
 326 300 l 1,20,21
 280 257 280 257 224 257 c 0,22,0
 170 257 170 257 136 287.5 c 128,-1,1
302.5 340 m 128,-1,24
 328 369 328 369 328 424 c 1,25,26
 310 426 310 426 278 426 c 0,27,28
 221 426 221 426 193.5 410.5 c 128,-1,29
 166 395 166 395 166 363 c 0,30,31
 166 342 166 342 183.5 326.5 c 128,-1,32
 201 311 201 311 231 311 c 0,33,23
 277 311 277 311 302.5 340 c 128,-1,24
76 152 m 1,34,-1
 76 206 l 1,35,-1
 425 206 l 1,36,-1
 425 152 l 1,37,-1
 76 152 l 1,34,-1
EndSplineSet
Validated: 1
EndChar

StartChar: guillemotleft
Encoding: 366 171 110
Width: 500
GlyphClass: 2
Flags: W
LayerCount: 2
Fore
SplineSet
225 61 m 1,0,-1
 67 230 l 1,1,-1
 67 253 l 1,2,-1
 219 400 l 1,3,-1
 258 359 l 1,4,-1
 137 241 l 1,5,-1
 265 101 l 1,6,-1
 225 61 l 1,0,-1
406 61 m 1,7,-1
 249 230 l 1,8,-1
 249 253 l 1,9,-1
 400 400 l 1,10,-1
 439 359 l 1,11,-1
 318 241 l 1,12,-1
 446 101 l 1,13,-1
 406 61 l 1,7,-1
EndSplineSet
Validated: 1
EndChar

StartChar: logicalnot
Encoding: 367 172 111
Width: 500
GlyphClass: 2
Flags: W
LayerCount: 2
Fore
SplineSet
350 157 m 1,0,-1
 350 284 l 1,1,-1
 91 284 l 1,2,-1
 91 347 l 1,3,-1
 414 347 l 1,4,-1
 414 157 l 1,5,-1
 350 157 l 1,0,-1
EndSplineSet
Validated: 1
EndChar

StartChar: uni00AD
Encoding: 368 173 112
Width: 500
GlyphClass: 2
Flags: W
LayerCount: 2
Fore
SplineSet
71 281 m 1,0,-1
 71 348 l 1,1,-1
 431 348 l 1,2,-1
 431 281 l 1,3,-1
 71 281 l 1,0,-1
EndSplineSet
Validated: 1
EndChar

StartChar: registered
Encoding: 369 174 113
Width: 500
GlyphClass: 2
Flags: W
LayerCount: 2
Fore
SplineSet
134.5 53.5 m 128,-1,1
 79 88 79 88 46.5 146.5 c 128,-1,2
 14 205 14 205 14 274 c 256,3,4
 14 343 14 343 46.5 402 c 128,-1,5
 79 461 79 461 135 495.5 c 128,-1,6
 191 530 191 530 256 530 c 256,7,8
 321 530 321 530 376.5 495.5 c 128,-1,9
 432 461 432 461 465 402 c 128,-1,10
 498 343 498 343 498 274 c 0,11,12
 498 168 498 168 426 93 c 0,13,14
 355 19 355 19 255 19 c 0,15,0
 190 19 190 19 134.5 53.5 c 128,-1,1
355.5 91 m 128,-1,17
 401 120 401 120 428 169 c 128,-1,18
 455 218 455 218 455 275 c 256,19,20
 455 332 455 332 428.5 381 c 128,-1,21
 402 430 402 430 356.5 459 c 128,-1,22
 311 488 311 488 257 488 c 256,23,24
 203 488 203 488 157.5 459.5 c 128,-1,25
 112 431 112 431 85.5 382 c 128,-1,26
 59 333 59 333 59 274 c 0,27,28
 59 216 59 216 85.5 167.5 c 128,-1,29
 112 119 112 119 157.5 90.5 c 128,-1,30
 203 62 203 62 257 62 c 0,31,16
 310 62 310 62 355.5 91 c 128,-1,17
267 256 m 1,32,-1
 201 256 l 1,33,-1
 201 133 l 1,34,-1
 155 133 l 1,35,-1
 155 425 l 1,36,-1
 249 425 l 2,37,38
 311 425 311 425 340 402 c 128,-1,39
 369 379 369 379 369 340 c 0,40,41
 369 314 369 314 354 292.5 c 128,-1,42
 339 271 339 271 312 263 c 1,43,-1
 376 138 l 1,44,-1
 329 131 l 1,45,-1
 267 256 l 1,32,-1
253 296 m 2,46,47
 324 296 324 296 324 340 c 256,48,49
 324 384 324 384 250 384 c 2,50,-1
 201 384 l 1,51,-1
 201 296 l 1,52,-1
 253 296 l 2,46,47
EndSplineSet
Validated: 1
EndChar

StartChar: macron
Encoding: 370 175 114
Width: 500
GlyphClass: 2
Flags: W
LayerCount: 2
Fore
SplineSet
123 565 m 1,0,-1
 123 621 l 1,1,-1
 377 621 l 1,2,-1
 377 565 l 1,3,-1
 123 565 l 1,0,-1
EndSplineSet
Validated: 1
EndChar

StartChar: degree
Encoding: 371 176 115
Width: 500
GlyphClass: 2
Flags: W
LayerCount: 2
Fore
SplineSet
188 388 m 128,-1,1
 157 406 157 406 139 436.5 c 128,-1,2
 121 467 121 467 121 504 c 256,3,4
 121 541 121 541 139.5 572 c 128,-1,5
 158 603 158 603 189 621 c 128,-1,6
 220 639 220 639 256 639 c 256,7,8
 292 639 292 639 323 620.5 c 128,-1,9
 354 602 354 602 372.5 571 c 128,-1,10
 391 540 391 540 391 504 c 256,11,12
 391 468 391 468 373 437.5 c 128,-1,13
 355 407 355 407 324 388.5 c 128,-1,14
 293 370 293 370 256 370 c 256,15,0
 219 370 219 370 188 388 c 128,-1,1
309.5 448.5 m 128,-1,17
 331 472 331 472 331 505 c 0,18,19
 331 537 331 537 309.5 561.5 c 128,-1,20
 288 586 288 586 257 586 c 256,21,22
 226 586 226 586 204 561.5 c 128,-1,23
 182 537 182 537 182 505 c 256,24,25
 182 473 182 473 203.5 449 c 128,-1,26
 225 425 225 425 256 425 c 0,27,16
 288 425 288 425 309.5 448.5 c 128,-1,17
EndSplineSet
Validated: 1
EndChar

StartChar: plusminus
Encoding: 372 177 116
Width: 500
GlyphClass: 2
Flags: W
LayerCount: 2
Fore
SplineSet
222 155 m 1,0,-1
 222 343 l 1,1,-1
 45 343 l 1,2,-1
 45 404 l 1,3,-1
 222 404 l 1,4,-1
 222 575 l 1,5,-1
 285 575 l 1,6,-1
 285 404 l 1,7,-1
 456 404 l 1,8,-1
 456 343 l 1,9,-1
 285 343 l 1,10,-1
 285 155 l 1,11,-1
 222 155 l 1,0,-1
46 17 m 1,12,-1
 46 80 l 1,13,-1
 457 80 l 1,14,-1
 457 17 l 1,15,-1
 46 17 l 1,12,-1
EndSplineSet
Validated: 1
EndChar

StartChar: uni00B2
Encoding: 373 178 117
Width: 500
GlyphClass: 2
Flags: W
LayerCount: 2
Fore
SplineSet
400 317 m 1,0,-1
 400 253 l 1,1,-1
 121 253 l 1,2,-1
 121 307 l 1,3,4
 200 372 200 372 241 409.5 c 128,-1,5
 282 447 282 447 302 474.5 c 128,-1,6
 322 502 322 502 322 525 c 0,7,8
 322 553 322 553 307 567.5 c 128,-1,9
 292 582 292 582 266 582 c 0,10,11
 236 582 236 582 208 572 c 128,-1,12
 180 562 180 562 176 553 c 0,13,14
 158 518 158 518 158 517 c 256,15,16
 158 516 158 516 159 516 c 256,17,18
 160 516 160 516 163 517.5 c 128,-1,19
 166 519 166 519 167 515 c 2,20,-1
 164 509 l 1,21,-1
 155 514 l 1,22,-1
 111 554 l 1,23,24
 135 594 135 594 175.5 617 c 128,-1,25
 216 640 216 640 267 640 c 0,26,27
 325 640 325 640 356.5 608 c 128,-1,28
 388 576 388 576 388 525 c 0,29,30
 388 493 388 493 369.5 464.5 c 128,-1,31
 351 436 351 436 323 411 c 128,-1,32
 295 386 295 386 243 346 c 0,33,34
 232 337 232 337 219 327.5 c 128,-1,35
 206 318 206 318 193 307 c 1,36,-1
 356 307 l 2,37,38
 372 307 372 307 379.5 309 c 128,-1,39
 387 311 387 311 393 317 c 1,40,-1
 400 317 l 1,0,-1
EndSplineSet
Validated: 1
EndChar

StartChar: uni00B3
Encoding: 374 179 118
Width: 500
GlyphClass: 2
Flags: W
LayerCount: 2
Fore
SplineSet
387.5 425 m 128,-1,1
 407 401 407 401 407 367 c 0,2,3
 407 334 407 334 387 306.5 c 128,-1,4
 367 279 367 279 333 263 c 128,-1,5
 299 247 299 247 259 247 c 0,6,7
 169 247 169 247 112 316 c 1,8,-1
 153 363 l 1,9,-1
 154 364 l 1,10,11
 175 331 175 331 198 316.5 c 128,-1,12
 221 302 221 302 260 302 c 0,13,14
 297 302 297 302 320 318.5 c 128,-1,15
 343 335 343 335 343 362 c 0,16,17
 343 393 343 393 319 409 c 128,-1,18
 295 425 295 425 256 425 c 0,19,20
 248 425 248 425 226 423 c 1,21,-1
 226 478 l 1,22,23
 233 477 233 477 246 477 c 0,24,25
 286 477 286 477 303.5 491 c 128,-1,26
 321 505 321 505 321 532 c 0,27,28
 321 583 321 583 257 583 c 0,29,30
 202 583 202 583 163 535 c 1,31,-1
 123 579 l 1,32,33
 175 640 175 640 258 640 c 0,34,35
 314 640 314 640 349 614 c 128,-1,36
 384 588 384 588 384 544 c 0,37,38
 384 513 384 513 372 492 c 128,-1,39
 360 471 360 471 335 457 c 1,40,0
 368 449 368 449 387.5 425 c 128,-1,1
157 367 m 1,42,-1
 160 371 l 1,43,-1
 165 366 l 2,44,41
 165 361 165 361 157 367 c 1,42,-1
151.5 369 m 128,-1,46
 152 370 152 370 154 369 c 128,-1,47
 156 368 156 368 157 367 c 2,48,-1
 154 364 l 1,49,45
 151 368 151 368 151.5 369 c 128,-1,46
EndSplineSet
Validated: 5
EndChar

StartChar: acute
Encoding: 375 180 119
Width: 500
GlyphClass: 2
Flags: W
LayerCount: 2
Fore
SplineSet
254 522 m 1,0,-1
 216 548 l 1,1,-1
 300 697 l 1,2,-1
 355 657 l 1,3,-1
 254 522 l 1,0,-1
EndSplineSet
Validated: 1
Substitution2: "Single Substitution lookup 28 subtable" acute.case
Substitution2: "'case' Case-Sensitive Forms in Latin lookup 22 subtable" acute.case
Substitution2: "'aalt' Access All Alternates in Latin lookup 0 subtable" acute.case
EndChar

StartChar: uni00B5
Encoding: 376 181 120
Width: 500
GlyphClass: 2
Flags: W
LayerCount: 2
Fore
SplineSet
33 -1 m 0,1,2
 44 175 44 175 44 202 c 2,3,-1
 44 457 l 1,4,-1
 110 457 l 1,5,-1
 110 186 l 2,6,7
 110 110 110 110 136 78.5 c 128,-1,8
 162 47 162 47 207 43 c 1,9,10
 256 47 256 47 282 85.5 c 128,-1,11
 308 124 308 124 308 192 c 2,12,-1
 308 457 l 1,13,-1
 372 457 l 1,14,-1
 372 116 l 2,15,16
 372 47 372 47 412 47 c 0,17,18
 426 47 426 47 440.5 58.5 c 128,-1,19
 455 70 455 70 461 84 c 2,20,-1
 467 96 l 1,21,-1
 494 45 l 1,22,23
 457 -10 457 -10 406 -10 c 0,24,25
 374 -10 374 -10 351 12 c 128,-1,26
 328 34 328 34 324 67 c 1,27,28
 307 30 307 30 273.5 10 c 128,-1,29
 240 -10 240 -10 201 -10 c 0,30,31
 163 -10 163 -10 132 8 c 128,-1,32
 101 26 101 26 87 60 c 1,33,34
 87 -91 87 -91 86 -167 c 1,35,-1
 24 -167 l 1,36,0
 24 -131 24 -131 33 -1 c 0,1,2
EndSplineSet
Validated: 1
EndChar

StartChar: paragraph
Encoding: 377 182 121
Width: 500
GlyphClass: 2
Flags: W
LayerCount: 2
Fore
SplineSet
243 322 m 1,0,1
 194 324 194 324 153 349 c 128,-1,2
 112 374 112 374 88 414.5 c 128,-1,3
 64 455 64 455 64 502 c 0,4,5
 64 574 64 574 123 619.5 c 128,-1,6
 182 665 182 665 311 665 c 2,7,-1
 436 665 l 1,8,-1
 436 -68 l 1,9,-1
 378 -68 l 1,10,-1
 378 608 l 1,11,-1
 302 608 l 1,12,-1
 302 -68 l 1,13,-1
 243 -68 l 1,14,-1
 243 322 l 1,0,1
EndSplineSet
Validated: 1
EndChar

StartChar: periodcentered
Encoding: 378 183 122
Width: 500
GlyphClass: 2
Flags: W
LayerCount: 2
Fore
SplineSet
196 290.5 m 128,-1,1
 179 307 179 307 179 331 c 256,2,3
 179 355 179 355 196.5 371.5 c 128,-1,4
 214 388 214 388 238 388 c 0,5,6
 261 388 261 388 279.5 371 c 128,-1,7
 298 354 298 354 298 331 c 256,8,9
 298 308 298 308 280.5 291 c 128,-1,10
 263 274 263 274 238 274 c 256,11,0
 213 274 213 274 196 290.5 c 128,-1,1
EndSplineSet
Validated: 1
Substitution2: "Single Substitution lookup 28 subtable" periodcentered.loclCAT
Substitution2: "'aalt' Access All Alternates in Latin lookup 0 subtable" periodcentered.loclCAT
EndChar

StartChar: cedilla
Encoding: 379 184 123
Width: 500
GlyphClass: 2
Flags: W
LayerCount: 2
Fore
SplineSet
169 -166 m 1,1,-1
 194 -124 l 1,2,3
 232 -154 232 -154 281 -154 c 0,4,5
 331 -154 331 -154 331 -118 c 0,6,7
 331 -102 331 -102 317.5 -93.5 c 128,-1,8
 304 -85 304 -85 280 -85 c 2,9,-1
 250 -85 l 1,10,-1
 261 0 l 1,11,-1
 305 0 l 1,12,-1
 299 -47 l 1,13,14
 341 -51 341 -51 362.5 -69.5 c 128,-1,15
 384 -88 384 -88 384 -112 c 0,16,17
 384 -148 384 -148 354 -172.5 c 128,-1,18
 324 -197 324 -197 268 -197 c 0,19,0
 215 -197 215 -197 169 -166 c 1,1,-1
EndSplineSet
Validated: 1
EndChar

StartChar: uni00B9
Encoding: 380 185 124
Width: 500
GlyphClass: 2
Flags: W
LayerCount: 2
Fore
SplineSet
235 253 m 1,0,-1
 235 563 l 1,1,-1
 138 528 l 1,2,-1
 122 559 l 1,3,-1
 255 633 l 1,4,-1
 299 633 l 1,5,-1
 299 253 l 1,6,-1
 235 253 l 1,0,-1
EndSplineSet
Validated: 1
EndChar

StartChar: ordmasculine
Encoding: 381 186 125
Width: 500
GlyphClass: 2
Flags: W
LayerCount: 2
Fore
SplineSet
170 278.5 m 128,-1,1
 136 301 136 301 116 341.5 c 128,-1,2
 96 382 96 382 96 434 c 0,3,4
 96 488 96 488 117 531 c 128,-1,5
 138 574 138 574 173 598 c 128,-1,6
 208 622 208 622 249 622 c 0,7,8
 313 622 313 622 355 573.5 c 128,-1,9
 397 525 397 525 397 441 c 0,10,11
 397 385 397 385 376 343 c 128,-1,12
 355 301 355 301 320.5 278.5 c 128,-1,13
 286 256 286 256 245 256 c 256,14,0
 204 256 204 256 170 278.5 c 128,-1,1
311 346.5 m 128,-1,16
 337 379 337 379 337 437 c 0,17,18
 337 496 337 496 311 531 c 128,-1,19
 285 566 285 566 247 566 c 256,20,21
 209 566 209 566 182.5 531 c 128,-1,22
 156 496 156 496 156 438 c 256,23,24
 156 380 156 380 182 347 c 128,-1,25
 208 314 208 314 246 314 c 0,26,15
 285 314 285 314 311 346.5 c 128,-1,16
76 152 m 1,27,-1
 76 206 l 1,28,-1
 425 206 l 1,29,-1
 425 152 l 1,30,-1
 76 152 l 1,27,-1
EndSplineSet
Validated: 1
EndChar

StartChar: guillemotright
Encoding: 382 187 126
Width: 500
GlyphClass: 2
Flags: W
LayerCount: 2
Fore
SplineSet
112 61 m 1,0,-1
 72 101 l 1,1,-1
 200 241 l 1,2,-1
 79 359 l 1,3,-1
 118 400 l 1,4,-1
 269 253 l 1,5,-1
 269 230 l 1,6,-1
 112 61 l 1,0,-1
293 61 m 1,7,-1
 253 101 l 1,8,-1
 381 241 l 1,9,-1
 260 359 l 1,10,-1
 299 400 l 1,11,-1
 451 253 l 1,12,-1
 451 230 l 1,13,-1
 293 61 l 1,7,-1
EndSplineSet
Validated: 1
EndChar

StartChar: onequarter
Encoding: 383 188 127
Width: 500
GlyphClass: 2
Flags: W
LayerCount: 2
Fore
SplineSet
95 374 m 1,0,-1
 95 614 l 1,1,-1
 18 594 l 1,2,-1
 5 619 l 1,3,-1
 112 677 l 1,4,-1
 146 677 l 1,5,-1
 146 374 l 1,6,-1
 95 374 l 1,0,-1
123 -42 m 1,7,-1
 76 -16 l 1,8,-1
 389 665 l 1,9,-1
 437 638 l 1,10,-1
 123 -42 l 1,7,-1
381 -70 m 1,11,-1
 381 8 l 1,12,-1
 236 8 l 1,13,-1
 236 37 l 1,14,-1
 396 242 l 1,15,-1
 427 242 l 1,16,-1
 427 45 l 1,17,-1
 477 45 l 1,18,-1
 477 8 l 1,19,-1
 427 8 l 1,20,-1
 427 -70 l 1,21,-1
 381 -70 l 1,11,-1
288 45 m 1,22,-1
 382 45 l 1,23,-1
 382 164 l 1,24,-1
 288 45 l 1,22,-1
EndSplineSet
Validated: 1
EndChar

StartChar: onehalf
Encoding: 384 189 128
Width: 500
GlyphClass: 2
Flags: W
LayerCount: 2
Fore
SplineSet
95 374 m 1,0,-1
 95 614 l 1,1,-1
 18 594 l 1,2,-1
 5 619 l 1,3,-1
 112 677 l 1,4,-1
 146 677 l 1,5,-1
 146 374 l 1,6,-1
 95 374 l 1,0,-1
123 -42 m 1,7,-1
 76 -16 l 1,8,-1
 389 665 l 1,9,-1
 437 638 l 1,10,-1
 123 -42 l 1,7,-1
270 -38 m 1,11,12
 312 18 312 18 375 65 c 0,13,14
 413 95 413 95 426 109.5 c 128,-1,15
 439 124 439 124 439 140 c 0,16,17
 439 165 439 165 422.5 179.5 c 128,-1,18
 406 194 406 194 379 194 c 0,19,20
 333 194 333 194 308 160 c 0,21,22
 306 158 306 158 304 152 c 128,-1,23
 302 146 302 146 300 143 c 2,24,-1
 263 168 l 1,25,26
 302 235 302 235 389 235 c 0,27,28
 430 235 430 235 458.5 207.5 c 128,-1,29
 487 180 487 180 487 143 c 0,30,31
 487 121 487 121 480.5 106 c 128,-1,32
 474 91 474 91 456 75 c 128,-1,33
 438 59 438 59 398 31 c 0,34,35
 354 -1 354 -1 329 -29 c 1,36,-1
 475 -29 l 2,37,38
 477 -29 477 -29 483.5 -25.5 c 128,-1,39
 490 -22 490 -22 494 -22 c 1,40,-1
 494 -73 l 1,41,-1
 270 -73 l 1,42,-1
 270 -38 l 1,11,12
EndSplineSet
Validated: 1
EndChar

StartChar: threequarters
Encoding: 385 190 129
Width: 500
GlyphClass: 2
Flags: W
LayerCount: 2
Fore
SplineSet
11 426 m 1,1,-1
 49 468 l 2,2,3
 51 466 51 466 54 457 c 128,-1,4
 57 448 57 448 60 445 c 0,5,6
 86 419 86 419 123 419 c 0,7,8
 152 419 152 419 174.5 433.5 c 128,-1,9
 197 448 197 448 197 467 c 0,10,11
 197 491 197 491 180.5 503 c 128,-1,12
 164 515 164 515 126 515 c 0,13,14
 110 515 110 515 102 514 c 1,15,-1
 102 554 l 1,16,17
 108 552 108 552 111 552 c 2,18,-1
 124 553 l 2,19,20
 154 553 154 553 169.5 565 c 128,-1,21
 185 577 185 577 185 594 c 0,22,23
 185 612 185 612 168 627 c 128,-1,24
 151 642 151 642 125 642 c 0,25,26
 80 642 80 642 51 604 c 1,27,-1
 22 634 l 1,28,29
 64 684 64 684 128 684 c 0,30,31
 172 684 172 684 202 659 c 128,-1,32
 232 634 232 634 232 598 c 0,33,34
 232 576 232 576 219.5 559 c 128,-1,35
 207 542 207 542 187 535 c 1,36,37
 213 531 213 531 229.5 511.5 c 128,-1,38
 246 492 246 492 246 467 c 0,39,40
 246 428 246 428 210 401 c 128,-1,41
 174 374 174 374 125 374 c 0,42,0
 57 374 57 374 11 426 c 1,1,-1
128 -42 m 1,43,-1
 81 -16 l 1,44,-1
 394 665 l 1,45,-1
 442 638 l 1,46,-1
 128 -42 l 1,43,-1
381 -70 m 1,47,-1
 381 8 l 1,48,-1
 236 8 l 1,49,-1
 236 37 l 1,50,-1
 396 242 l 1,51,-1
 427 242 l 1,52,-1
 427 45 l 1,53,-1
 477 45 l 1,54,-1
 477 8 l 1,55,-1
 427 8 l 1,56,-1
 427 -70 l 1,57,-1
 381 -70 l 1,47,-1
288 45 m 1,58,-1
 382 45 l 1,59,-1
 382 164 l 1,60,-1
 288 45 l 1,58,-1
EndSplineSet
Validated: 1
EndChar

StartChar: questiondown
Encoding: 386 191 130
Width: 500
GlyphClass: 2
Flags: W
LayerCount: 2
Fore
SplineSet
278 536 m 128,-1,1
 295 519 295 519 295 496 c 256,2,3
 295 473 295 473 278 456 c 128,-1,4
 261 439 261 439 237 439 c 0,5,6
 214 439 214 439 197 456 c 128,-1,7
 180 473 180 473 180 496 c 256,8,9
 180 519 180 519 197 536 c 128,-1,10
 214 553 214 553 237 553 c 0,11,0
 261 553 261 553 278 536 c 128,-1,1
272 316 m 2,12,13
 272 267 272 267 254 237 c 128,-1,14
 236 207 236 207 201 173 c 0,15,16
 167 139 167 139 150 111 c 128,-1,17
 133 83 133 83 133 38 c 256,18,19
 133 -7 133 -7 164 -34.5 c 128,-1,20
 195 -62 195 -62 244 -62 c 0,21,22
 290 -62 290 -62 322.5 -48.5 c 128,-1,23
 355 -35 355 -35 365 -18 c 0,24,25
 384 12 384 12 384 16 c 0,26,27
 384 17 384 17 380.5 15.5 c 128,-1,28
 377 14 377 14 376 18 c 2,29,-1
 379 24 l 1,30,-1
 388 19 l 1,31,-1
 434 -19 l 1,32,33
 399 -71 399 -71 355 -97 c 128,-1,34
 311 -123 311 -123 241 -123 c 0,35,36
 161 -123 161 -123 112.5 -81 c 128,-1,37
 64 -39 64 -39 64 33 c 0,38,39
 64 90 64 90 84 124 c 128,-1,40
 104 158 104 158 142 194 c 0,41,42
 175 227 175 227 190.5 252 c 128,-1,43
 206 277 206 277 206 316 c 2,44,-1
 206 357 l 1,45,-1
 272 357 l 1,46,-1
 272 316 l 2,12,13
EndSplineSet
Validated: 1
EndChar

StartChar: Aring
Encoding: 392 197 136
Width: 500
GlyphClass: 2
Flags: W
AnchorPoint: "Anchor-8" 0 0 basechar 0
AnchorPoint: "Anchor-7" 0 0 basechar 0
AnchorPoint: "Anchor-6" 250 795 basechar 0
AnchorPoint: "Anchor-5" 414 0 basechar 0
AnchorPoint: "Anchor-4" 250 0 basechar 0
LayerCount: 2
Fore
SplineSet
349 182 m 1,0,-1
 148 182 l 1,1,-1
 85 0 l 1,2,-1
 16 0 l 1,3,-1
 241 619 l 1,4,5
 206 623 206 623 182 648 c 128,-1,6
 158 673 158 673 158 707 c 0,7,8
 158 743 158 743 185.5 769 c 128,-1,9
 213 795 213 795 250 795 c 256,10,11
 287 795 287 795 314 769 c 128,-1,12
 341 743 341 743 341 706 c 0,13,14
 341 673 341 673 317.5 648 c 128,-1,15
 294 623 294 623 259 619 c 1,16,-1
 484 0 l 1,17,-1
 412 0 l 1,18,-1
 349 182 l 1,0,-1
221.5 675 m 128,-1,20
 234 662 234 662 251 662 c 256,21,22
 268 662 268 662 280 675 c 128,-1,23
 292 688 292 688 292 707 c 0,24,25
 292 727 292 727 280 740 c 128,-1,26
 268 753 268 753 251 753 c 0,27,28
 233 753 233 753 221 740 c 128,-1,29
 209 727 209 727 209 707 c 0,30,19
 209 688 209 688 221.5 675 c 128,-1,20
167 236 m 1,31,-1
 331 236 l 1,32,-1
 249 474 l 1,33,-1
 167 236 l 1,31,-1
EndSplineSet
Validated: 1
EndChar

StartChar: AE
Encoding: 393 198 137
Width: 500
GlyphClass: 2
Flags: W
LayerCount: 2
Fore
SplineSet
15 0 m 1,0,-1
 211 624 l 1,1,-1
 495 624 l 1,2,-1
 495 562 l 1,3,-1
 324 562 l 1,4,-1
 324 357 l 1,5,-1
 469 357 l 1,6,-1
 469 293 l 1,7,-1
 324 293 l 1,8,-1
 324 62 l 1,9,-1
 493 62 l 1,10,-1
 493 0 l 1,11,-1
 263 0 l 1,12,-1
 263 169 l 1,13,-1
 133 169 l 1,14,-1
 79 0 l 1,15,-1
 15 0 l 1,0,-1
147 227 m 1,16,-1
 263 227 l 1,17,-1
 263 562 l 1,18,-1
 252 562 l 1,19,-1
 147 227 l 1,16,-1
EndSplineSet
Validated: 1
EndChar

StartChar: Ccedilla
Encoding: 394 199 138
Width: 500
GlyphClass: 2
Flags: W
AnchorPoint: "Anchor-8" 0 0 basechar 0
AnchorPoint: "Anchor-7" 0 0 basechar 0
AnchorPoint: "Anchor-6" 270 623 basechar 0
AnchorPoint: "Anchor-5" 0 0 basechar 0
AnchorPoint: "Anchor-4" 280 -177 basechar 0
LayerCount: 2
Fore
SplineSet
353 70.5 m 128,-1,1
 387 91 387 91 408 126 c 1,2,-1
 460 92 l 1,3,4
 433 47 433 47 397.5 22 c 128,-1,5
 362 -3 362 -3 313 -9 c 1,6,-1
 308 -47 l 1,7,8
 350 -51 350 -51 371.5 -69.5 c 128,-1,9
 393 -88 393 -88 393 -112 c 0,10,11
 393 -148 393 -148 363 -172.5 c 128,-1,12
 333 -197 333 -197 277 -197 c 0,13,14
 224 -197 224 -197 178 -166 c 1,15,-1
 203 -124 l 1,16,17
 241 -154 241 -154 290 -154 c 0,18,19
 340 -154 340 -154 340 -118 c 0,20,21
 340 -102 340 -102 326.5 -93.5 c 128,-1,22
 313 -85 313 -85 289 -85 c 2,23,-1
 259 -85 l 1,24,-1
 269 -10 l 1,25,26
 167 -4 167 -4 104.5 76 c 128,-1,27
 42 156 42 156 41 308 c 0,28,29
 41 423 41 423 76 494.5 c 128,-1,30
 111 566 111 566 165 597 c 128,-1,31
 219 628 219 628 281 628 c 0,32,33
 347 628 347 628 395.5 595 c 128,-1,34
 444 562 444 562 469 505 c 1,35,-1
 409 477 l 2,36,37
 408 477 408 477 408 477.5 c 128,-1,38
 408 478 408 478 408 478 c 1,39,40
 382 530 382 530 350 551 c 128,-1,41
 318 572 318 572 279 572 c 0,42,43
 200 572 200 572 154.5 503.5 c 128,-1,44
 109 435 109 435 109 313 c 0,45,46
 109 236 109 236 132 176 c 128,-1,47
 155 116 155 116 194.5 83 c 128,-1,48
 234 50 234 50 282 50 c 0,49,0
 319 50 319 50 353 70.5 c 128,-1,1
399 482 m 2,51,52
 401 482 401 482 407 476 c 1,53,-1
 400 473 l 1,54,-1
 397 480 l 2,55,50
 399 482 399 482 399 482 c 2,51,52
407 476 m 1,57,-1
 409 477 l 1,58,56
 413 468 413 468 407 476 c 1,57,-1
EndSplineSet
Validated: 5
EndChar

StartChar: Eth
Encoding: 403 208 147
Width: 500
GlyphClass: 2
Flags: W
LayerCount: 2
Fore
SplineSet
79 301 m 1,0,-1
 30 301 l 1,1,-1
 30 359 l 1,2,-1
 79 359 l 1,3,-1
 79 623 l 1,4,-1
 218 623 l 2,5,6
 346 623 346 623 406 539 c 128,-1,7
 466 455 466 455 466 306 c 0,8,9
 466 213 466 213 426.5 131 c 128,-1,10
 387 49 387 49 319 18 c 0,11,12
 281 -1 281 -1 206 -1 c 2,13,-1
 79 -1 l 1,14,-1
 79 301 l 1,0,-1
203 57 m 2,15,16
 298 57 298 57 348.5 122 c 128,-1,17
 399 187 399 187 399 306 c 0,18,19
 399 430 399 430 353.5 497 c 128,-1,20
 308 564 308 564 214 564 c 2,21,-1
 143 564 l 1,22,-1
 143 359 l 1,23,-1
 248 359 l 1,24,-1
 248 301 l 1,25,-1
 143 301 l 1,26,-1
 143 57 l 1,27,-1
 203 57 l 2,15,16
EndSplineSet
Validated: 1
EndChar

StartChar: multiply
Encoding: 410 215 154
Width: 500
GlyphClass: 2
Flags: W
LayerCount: 2
Fore
SplineSet
381 145 m 1,0,-1
 254 278 l 1,1,-1
 129 149 l 1,2,-1
 85 193 l 1,3,-1
 211 324 l 1,4,-1
 85 457 l 1,5,-1
 132 503 l 1,6,-1
 256 372 l 1,7,-1
 382 503 l 1,8,-1
 430 459 l 1,9,-1
 300 325 l 1,10,-1
 427 191 l 1,11,-1
 381 145 l 1,0,-1
EndSplineSet
Validated: 1
EndChar

StartChar: Oslash
Encoding: 411 216 155
Width: 500
GlyphClass: 2
Flags: W
AnchorPoint: "Anchor-8" 379 584 basechar 0
AnchorPoint: "Anchor-7" 250 312 basechar 0
AnchorPoint: "Anchor-6" 250 623 basechar 0
AnchorPoint: "Anchor-5" 287 10 basechar 0
AnchorPoint: "Anchor-4" 250 0 basechar 0
LayerCount: 2
Fore
SplineSet
455 452.5 m 128,-1,1
 473 389 473 389 473 308 c 0,2,3
 473 155 473 155 415 72 c 128,-1,4
 357 -11 357 -11 250 -11 c 0,5,6
 175 -11 175 -11 123 30 c 1,7,-1
 85 -42 l 1,8,-1
 41 -22 l 1,9,-1
 88 67 l 1,10,11
 27 149 27 149 27 308 c 0,12,13
 27 457 27 457 85.5 542 c 128,-1,14
 144 627 144 627 250 627 c 0,15,16
 316 627 316 627 368 591 c 1,17,-1
 416 682 l 1,18,-1
 458 660 l 1,19,-1
 403 557 l 1,20,0
 437 516 437 516 455 452.5 c 128,-1,1
127 140 m 1,22,-1
 335 530 l 1,23,24
 299 566 299 566 250 566 c 0,25,26
 179 566 179 566 139 496.5 c 128,-1,27
 99 427 99 427 99 308 c 0,28,21
 99 205 99 205 127 140 c 1,22,-1
361.5 117 m 128,-1,30
 401 184 401 184 401 308 c 0,31,32
 401 420 401 420 366 487 c 1,33,-1
 156 92 l 1,34,35
 194 50 194 50 250 50 c 0,36,29
 322 50 322 50 361.5 117 c 128,-1,30
EndSplineSet
Validated: 1
EndChar

StartChar: Thorn
Encoding: 417 222 161
Width: 500
GlyphClass: 2
Flags: W
LayerCount: 2
Fore
SplineSet
59 623 m 1,0,-1
 137 623 l 2,1,2
 139 621 139 621 139 620 c 0,3,4
 139 618 139 618 135 610 c 128,-1,5
 131 602 131 602 129 595 c 2,6,-1
 129 506 l 1,7,-1
 259 506 l 2,8,9
 357 506 357 506 404.5 457.5 c 128,-1,10
 452 409 452 409 456 330 c 1,11,12
 452 252 452 252 406 205 c 128,-1,13
 360 158 360 158 264 158 c 2,14,-1
 129 158 l 1,15,-1
 129 0 l 1,16,-1
 59 0 l 1,17,-1
 59 623 l 1,0,-1
264 219 m 2,18,19
 375 219 375 219 384 328 c 1,20,21
 380 378 380 378 349.5 409 c 128,-1,22
 319 440 319 440 257 440 c 2,23,-1
 129 440 l 1,24,-1
 129 219 l 1,25,-1
 264 219 l 2,18,19
EndSplineSet
Validated: 1
EndChar

StartChar: germandbls
Encoding: 418 223 162
Width: 500
GlyphClass: 2
Flags: W
LayerCount: 2
Fore
SplineSet
177 21 m 1,1,-1
 212 77 l 1,2,3
 242 53 242 53 285 53 c 0,4,5
 313 53 313 53 339.5 71.5 c 128,-1,6
 366 90 366 90 382 122 c 128,-1,7
 398 154 398 154 398 193 c 0,8,9
 398 251 398 251 359.5 287 c 128,-1,10
 321 323 321 323 244 323 c 2,11,-1
 214 323 l 1,12,-1
 214 380 l 1,13,-1
 250 380 l 2,14,15
 290 380 290 380 321 409.5 c 128,-1,16
 352 439 352 439 352 490 c 256,17,18
 352 541 352 541 320 576 c 128,-1,19
 288 611 288 611 241 611 c 0,20,21
 185 611 185 611 154 560.5 c 128,-1,22
 123 510 123 510 123 425 c 2,23,-1
 123 0 l 1,24,-1
 55 0 l 1,25,-1
 55 423 l 2,26,27
 55 543 55 543 102.5 606 c 128,-1,28
 150 669 150 669 231 669 c 0,29,30
 283 669 283 669 326.5 644.5 c 128,-1,31
 370 620 370 620 395 579.5 c 128,-1,32
 420 539 420 539 420 493 c 0,33,34
 420 450 420 450 399 414 c 128,-1,35
 378 378 378 378 341 359 c 1,36,37
 398 341 398 341 431 292.5 c 128,-1,38
 464 244 464 244 464 181 c 0,39,40
 464 128 464 128 441.5 84.5 c 128,-1,41
 419 41 419 41 377.5 15.5 c 128,-1,42
 336 -10 336 -10 281 -10 c 0,43,0
 223 -10 223 -10 177 21 c 1,1,-1
EndSplineSet
Validated: 1
EndChar

StartChar: ae
Encoding: 425 230 169
Width: 500
GlyphClass: 2
Flags: W
LayerCount: 2
Fore
SplineSet
42.5 26 m 128,-1,1
 10 63 10 63 10 123 c 0,2,3
 10 196 10 196 63 235.5 c 128,-1,4
 116 275 116 275 221 279 c 1,5,6
 221 346 221 346 202 378.5 c 128,-1,7
 183 411 183 411 142 411 c 0,8,9
 97 411 97 411 66 368 c 1,10,-1
 31 412 l 1,11,12
 74 467 74 467 147 467 c 0,13,14
 183 467 183 467 212.5 450.5 c 128,-1,15
 242 434 242 434 258 405 c 1,16,17
 275 434 275 434 303.5 450.5 c 128,-1,18
 332 467 332 467 362 467 c 0,19,20
 490 467 490 467 490 268 c 2,21,-1
 490 230 l 1,22,-1
 282 223 l 1,23,-1
 282 175 l 2,24,25
 282 117 282 117 310 82 c 128,-1,26
 338 47 338 47 386 47 c 0,27,28
 432 47 432 47 459 84 c 1,29,-1
 494 42 l 1,30,31
 450 -11 450 -11 380 -11 c 0,32,33
 342 -11 342 -11 308.5 7.5 c 128,-1,34
 275 26 275 26 255 58 c 1,35,36
 238 26 238 26 208 7.5 c 128,-1,37
 178 -11 178 -11 142 -11 c 0,38,0
 75 -11 75 -11 42.5 26 c 128,-1,1
432 284 m 1,39,40
 432 348 432 348 415.5 379.5 c 128,-1,41
 399 411 399 411 362 411 c 0,42,43
 324 411 324 411 303 376.5 c 128,-1,44
 282 342 282 342 282 279 c 1,45,-1
 432 284 l 1,39,40
206.5 92.5 m 128,-1,47
 221 135 221 135 221 219 c 1,48,49
 139 215 139 215 106.5 194.5 c 128,-1,50
 74 174 74 174 74 122 c 0,51,52
 74 82 74 82 91 66 c 128,-1,53
 108 50 108 50 144 50 c 0,54,46
 192 50 192 50 206.5 92.5 c 128,-1,47
EndSplineSet
Validated: 1
EndChar

StartChar: ccedilla
Encoding: 426 231 170
Width: 500
GlyphClass: 2
Flags: W
AnchorPoint: "Anchor-8" 0 0 basechar 0
AnchorPoint: "Anchor-7" 0 0 basechar 0
AnchorPoint: "Anchor-6" 286 457 basechar 0
AnchorPoint: "Anchor-5" 0 0 basechar 0
AnchorPoint: "Anchor-4" 286 -177 basechar 0
LayerCount: 2
Fore
SplineSet
408 110 m 1,1,-1
 450 61 l 1,2,3
 393 1 393 1 319 -9 c 1,4,-1
 314 -47 l 1,5,6
 356 -51 356 -51 377.5 -69.5 c 128,-1,7
 399 -88 399 -88 399 -112 c 0,8,9
 399 -148 399 -148 369 -172.5 c 128,-1,10
 339 -197 339 -197 283 -197 c 0,11,12
 230 -197 230 -197 184 -166 c 1,13,-1
 209 -124 l 1,14,15
 247 -154 247 -154 296 -154 c 0,16,17
 346 -154 346 -154 346 -118 c 0,18,19
 346 -102 346 -102 332.5 -93.5 c 128,-1,20
 319 -85 319 -85 295 -85 c 2,21,-1
 265 -85 l 1,22,-1
 275 -11 l 1,23,24
 212 -9 212 -9 162 23 c 128,-1,25
 112 55 112 55 84 108.5 c 128,-1,26
 56 162 56 162 56 228 c 0,27,28
 56 296 56 296 85.5 350 c 128,-1,29
 115 404 115 404 167 435 c 128,-1,30
 219 466 219 466 284 466 c 0,31,32
 339 466 339 466 384 443.5 c 128,-1,33
 429 421 429 421 457 381 c 1,34,-1
 412 337 l 1,35,-1
 411 336 l 1,36,37
 382 374 382 374 351.5 389.5 c 128,-1,38
 321 405 321 405 276 405 c 0,39,40
 237 405 237 405 203.5 383.5 c 128,-1,41
 170 362 170 362 150 323 c 128,-1,42
 130 284 130 284 130 233 c 256,43,44
 130 182 130 182 150.5 141 c 128,-1,45
 171 100 171 100 207.5 77 c 128,-1,46
 244 54 244 54 289 54 c 0,47,0
 358 54 358 54 408 110 c 1,1,-1
409 334 m 1,49,-1
 405 330 l 1,50,-1
 400 335 l 1,51,48
 400 341 400 341 409 334 c 1,49,-1
413.5 331 m 128,-1,53
 411 333 411 333 409 334 c 2,54,-1
 411 336 l 1,55,52
 416 329 416 329 413.5 331 c 128,-1,53
EndSplineSet
Validated: 5
EndChar

StartChar: eth
Encoding: 435 240 179
Width: 500
GlyphClass: 2
Flags: W
LayerCount: 2
Fore
SplineSet
148.5 18.5 m 128,-1,1
 99 49 99 49 69.5 103 c 128,-1,2
 40 157 40 157 40 223 c 0,3,4
 40 288 40 288 69 344 c 128,-1,5
 98 400 98 400 144.5 433.5 c 128,-1,6
 191 467 191 467 242 467 c 0,7,8
 320 467 320 467 369 415 c 1,9,10
 336 494 336 494 283 552 c 1,11,-1
 155 516 l 1,12,-1
 137 564 l 1,13,-1
 241 592 l 1,14,15
 193 632 193 632 139 656 c 1,16,-1
 220 672 l 1,17,18
 268 645 268 645 307 610 c 1,19,-1
 415 639 l 1,20,-1
 432 595 l 1,21,-1
 347 570 l 1,22,23
 460 442 460 442 460 253 c 0,24,25
 460 131 460 131 406.5 59.5 c 128,-1,26
 353 -12 353 -12 256 -12 c 0,27,0
 198 -12 198 -12 148.5 18.5 c 128,-1,1
349 96 m 128,-1,29
 387 142 387 142 387 232 c 0,30,31
 387 321 387 321 347 363.5 c 128,-1,32
 307 406 307 406 253 406 c 0,33,34
 219 406 219 406 188 386 c 128,-1,35
 157 366 157 366 137 326.5 c 128,-1,36
 117 287 117 287 117 232 c 0,37,38
 117 179 117 179 135.5 137.5 c 128,-1,39
 154 96 154 96 186 73 c 128,-1,40
 218 50 218 50 256 50 c 0,41,28
 311 50 311 50 349 96 c 128,-1,29
EndSplineSet
Validated: 1
EndChar

StartChar: divide
Encoding: 442 247 186
Width: 500
GlyphClass: 2
Flags: W
LayerCount: 2
Fore
SplineSet
224 435 m 128,-1,1
 211 448 211 448 211 466 c 0,2,3
 211 485 211 485 224.5 498.5 c 128,-1,4
 238 512 238 512 255 512 c 0,5,6
 273 512 273 512 286.5 498 c 128,-1,7
 300 484 300 484 300 466 c 256,8,9
 300 448 300 448 287 435 c 128,-1,10
 274 422 274 422 255 422 c 0,11,0
 237 422 237 422 224 435 c 128,-1,1
71 281 m 1,12,-1
 71 348 l 1,13,-1
 431 348 l 1,14,-1
 431 281 l 1,15,-1
 71 281 l 1,12,-1
224 127 m 128,-1,17
 210 140 210 140 210 158 c 0,18,19
 210 178 210 178 224 191 c 128,-1,20
 238 204 238 204 256 204 c 0,21,22
 273 204 273 204 286.5 190 c 128,-1,23
 300 176 300 176 300 158 c 256,24,25
 300 140 300 140 287 127 c 128,-1,26
 274 114 274 114 256 114 c 256,27,16
 238 114 238 114 224 127 c 128,-1,17
EndSplineSet
Validated: 1
EndChar

StartChar: oslash
Encoding: 443 248 187
Width: 500
GlyphClass: 2
Flags: W
LayerCount: 2
Fore
SplineSet
70 -37 m 1,0,-1
 114 44 l 1,1,2
 40 115 40 115 40 221 c 0,3,4
 40 291 40 291 69.5 347 c 128,-1,5
 99 403 99 403 149 435 c 128,-1,6
 199 467 199 467 257 467 c 0,7,8
 295 467 295 467 335 450 c 1,9,-1
 372 519 l 1,10,-1
 425 490 l 1,11,-1
 386 417 l 1,12,13
 460 349 460 349 460 233 c 0,14,15
 460 158 460 158 432.5 102.5 c 128,-1,16
 405 47 405 47 358.5 17.5 c 128,-1,17
 312 -12 312 -12 255 -12 c 0,18,19
 205 -12 205 -12 162 10 c 1,20,-1
 122 -64 l 1,21,-1
 70 -37 l 1,0,-1
304 393 m 1,22,23
 279 406 279 406 252 406 c 0,24,25
 216 406 216 406 184.5 384 c 128,-1,26
 153 362 153 362 134.5 323 c 128,-1,27
 116 284 116 284 116 235 c 0,28,29
 116 159 116 159 150 110 c 1,30,-1
 304 393 l 1,22,23
321.5 71 m 128,-1,32
 352 92 352 92 370 131.5 c 128,-1,33
 388 171 388 171 388 223 c 0,34,35
 388 305 388 305 351 354 c 1,36,-1
 194 67 l 1,37,38
 223 50 223 50 255 50 c 0,39,31
 291 50 291 50 321.5 71 c 128,-1,32
EndSplineSet
Validated: 1
EndChar

StartChar: thorn
Encoding: 449 254 193
Width: 500
GlyphClass: 2
Flags: W
LayerCount: 2
Fore
SplineSet
60 665 m 1,0,-1
 140 665 l 1,1,2
 140 658 140 658 136.5 645.5 c 128,-1,3
 133 633 133 633 133 622 c 2,4,-1
 133 387 l 1,5,6
 156 423 156 423 194.5 445 c 128,-1,7
 233 467 233 467 272 467 c 0,8,9
 324 467 324 467 367.5 440.5 c 128,-1,10
 411 414 411 414 437 361 c 128,-1,11
 463 308 463 308 463 232 c 0,12,13
 463 155 463 155 436 99.5 c 128,-1,14
 409 44 409 44 365 16 c 128,-1,15
 321 -12 321 -12 271 -12 c 0,16,17
 229 -12 229 -12 193 7 c 128,-1,18
 157 26 157 26 134 60 c 1,19,-1
 134 -167 l 1,20,-1
 60 -167 l 1,21,-1
 60 665 l 1,0,-1
350.5 91 m 128,-1,23
 388 130 388 130 388 219 c 0,24,25
 388 307 388 307 354 356.5 c 128,-1,26
 320 406 320 406 259 406 c 0,27,28
 202 406 202 406 167.5 358 c 128,-1,29
 133 310 133 310 133 220 c 0,30,31
 135 130 135 130 166.5 91 c 128,-1,32
 198 52 198 52 256 52 c 0,33,22
 313 52 313 52 350.5 91 c 128,-1,23
EndSplineSet
Validated: 1
EndChar

StartChar: Aogonek
Encoding: 455 260 199
Width: 500
GlyphClass: 2
Flags: W
AnchorPoint: "Anchor-8" 0 0 basechar 0
AnchorPoint: "Anchor-7" 0 0 basechar 0
AnchorPoint: "Anchor-6" 250 623 basechar 0
AnchorPoint: "Anchor-5" 414 0 basechar 0
AnchorPoint: "Anchor-4" 250 0 basechar 0
LayerCount: 2
Fore
SplineSet
404 -63 m 128,-1,1
 382 -96 382 -96 382 -123 c 0,2,3
 382 -145 382 -145 397.5 -160 c 128,-1,4
 413 -175 413 -175 444 -179 c 1,5,-1
 428 -227 l 1,6,7
 377 -220 377 -220 346.5 -197 c 128,-1,8
 316 -174 316 -174 316 -137 c 0,9,10
 316 -102 316 -102 340.5 -66.5 c 128,-1,11
 365 -31 365 -31 412 1 c 1,12,-1
 349 182 l 1,13,-1
 148 182 l 1,14,-1
 85 0 l 1,15,-1
 16 0 l 1,16,-1
 246 634 l 1,17,-1
 254 634 l 1,18,-1
 484 0 l 1,19,-1
 464 0 l 1,20,0
 426 -30 426 -30 404 -63 c 128,-1,1
167 236 m 1,21,-1
 331 236 l 1,22,-1
 249 474 l 1,23,-1
 167 236 l 1,21,-1
EndSplineSet
Validated: 1
EndChar

StartChar: aogonek
Encoding: 456 261 200
Width: 500
GlyphClass: 2
Flags: W
AnchorPoint: "Anchor-8" 0 0 basechar 0
AnchorPoint: "Anchor-7" 0 0 basechar 0
AnchorPoint: "Anchor-6" 250 457 basechar 0
AnchorPoint: "Anchor-5" 385 0 basechar 0
AnchorPoint: "Anchor-4" 250 0 basechar 0
LayerCount: 2
Fore
SplineSet
338 -102 m 0,1,2
 338 -114 338 -114 346 -122 c 128,-1,3
 354 -130 354 -130 366 -130 c 0,4,5
 395 -130 395 -130 424 -107 c 1,6,-1
 424 -153 l 1,7,8
 395 -176 395 -176 357 -176 c 0,9,10
 318 -176 318 -176 297 -159 c 128,-1,11
 276 -142 276 -142 276 -115 c 0,12,13
 276 -65 276 -65 356 0 c 1,14,-1
 367 0 l 1,15,-1
 367 70 l 1,16,17
 325 -11 325 -11 211 -11 c 0,18,19
 135 -11 135 -11 92 23.5 c 128,-1,20
 49 58 49 58 49 115 c 0,21,22
 49 163 49 163 80 199 c 128,-1,23
 111 235 111 235 163.5 254.5 c 128,-1,24
 216 274 216 274 279 274 c 0,25,26
 336 274 336 274 382 268 c 1,27,28
 376 345 376 345 341.5 376.5 c 128,-1,29
 307 408 307 408 239 408 c 0,30,31
 205 408 205 408 173.5 395 c 128,-1,32
 142 382 142 382 116 357 c 1,33,-1
 81 403 l 1,34,35
 145 467 145 467 244 467 c 0,36,37
 342 467 342 467 393.5 416 c 128,-1,38
 445 365 445 365 445 243 c 2,39,-1
 445 0 l 1,40,-1
 422 0 l 1,41,0
 338 -75 338 -75 338 -102 c 0,1,2
335 87.5 m 128,-1,43
 378 131 378 131 382 213 c 1,44,45
 337 220 337 220 285 220 c 0,46,47
 209 220 209 220 165 195 c 128,-1,48
 121 170 121 170 121 119 c 0,49,50
 121 44 121 44 218 44 c 0,51,42
 292 44 292 44 335 87.5 c 128,-1,43
EndSplineSet
Validated: 1
EndChar

StartChar: dcaron
Encoding: 466 271 210
Width: 500
GlyphClass: 2
Flags: W
LayerCount: 2
Fore
SplineSet
102.5 17 m 128,-1,1
 67 44 67 44 46 99 c 128,-1,2
 25 154 25 154 25 233 c 256,3,4
 25 312 25 312 48.5 365 c 128,-1,5
 72 418 72 418 109 443.5 c 128,-1,6
 146 469 146 469 187 469 c 0,7,8
 223 469 223 469 250 448 c 128,-1,9
 277 427 277 427 291 390 c 1,10,-1
 291 665 l 1,11,-1
 368 665 l 1,12,13
 368 659 368 659 363 649 c 128,-1,14
 358 639 358 639 358 632 c 2,15,-1
 359 43 l 2,16,17
 359 20 359 20 364 0 c 1,18,-1
 292 0 l 1,19,20
 288 11 288 11 288 34 c 2,21,-1
 288 73 l 1,22,23
 271 35 271 35 241 12.5 c 128,-1,24
 211 -10 211 -10 181 -10 c 0,25,0
 138 -10 138 -10 102.5 17 c 128,-1,1
467.5 655 m 128,-1,27
 478 645 478 645 478 629 c 0,28,29
 478 620 478 620 473 607 c 2,30,-1
 422 483 l 1,31,-1
 380 499 l 1,32,-1
 394 543 l 2,33,34
 400 563 400 563 400 593 c 2,35,-1
 400 625 l 2,36,37
 400 644 400 644 411.5 654.5 c 128,-1,38
 423 665 423 665 441 665 c 0,39,26
 457 665 457 665 467.5 655 c 128,-1,27
260.5 104 m 128,-1,41
 285 155 285 155 285 231 c 0,42,43
 285 312 285 312 262 361 c 128,-1,44
 239 410 239 410 198 410 c 0,45,46
 147 410 147 410 121 366 c 128,-1,47
 95 322 95 322 95 244 c 0,48,49
 95 156 95 156 121 104.5 c 128,-1,50
 147 53 147 53 195 53 c 0,51,40
 236 53 236 53 260.5 104 c 128,-1,41
EndSplineSet
Validated: 1
EndChar

StartChar: dcroat
Encoding: 468 273 212
Width: 500
GlyphClass: 2
Flags: W
AnchorPoint: "Anchor-8" 470 457 basechar 0
AnchorPoint: "Anchor-7" 360 549 basechar 0
AnchorPoint: "Anchor-6" 250 457 basechar 0
AnchorPoint: "Anchor-5" 0 0 basechar 0
AnchorPoint: "Anchor-4" 250 0 basechar 0
LayerCount: 2
Fore
SplineSet
500 520 m 1,0,-1
 438 520 l 1,1,-1
 439 71 l 2,2,3
 439 47 439 47 440.5 31.5 c 128,-1,4
 442 16 442 16 449 0 c 1,5,-1
 378 0 l 1,6,7
 371 16 371 16 369.5 31.5 c 128,-1,8
 368 47 368 47 368 71 c 1,9,10
 346 33 346 33 311.5 11.5 c 128,-1,11
 277 -10 277 -10 234 -10 c 0,12,13
 185 -10 185 -10 142 17.5 c 128,-1,14
 99 45 99 45 72 100 c 128,-1,15
 45 155 45 155 45 233 c 0,16,17
 45 312 45 312 73 365 c 128,-1,18
 101 418 101 418 145 443.5 c 128,-1,19
 189 469 189 469 238 469 c 0,20,21
 284 469 284 469 318.5 448 c 128,-1,22
 353 427 353 427 371 390 c 1,23,-1
 371 520 l 1,24,-1
 230 520 l 1,25,-1
 230 577 l 1,26,-1
 371 577 l 1,27,-1
 371 665 l 1,28,-1
 447 665 l 1,29,-1
 447 658 l 1,30,31
 441 652 441 652 439.5 645 c 128,-1,32
 438 638 438 638 438 621 c 2,33,-1
 438 577 l 1,34,-1
 500 577 l 1,35,-1
 500 520 l 1,0,-1
336 102 m 128,-1,37
 365 151 365 151 365 231 c 0,38,39
 365 312 365 312 333.5 361 c 128,-1,40
 302 410 302 410 239 410 c 0,41,42
 179 410 179 410 147 365.5 c 128,-1,43
 115 321 115 321 115 244 c 0,44,45
 115 156 115 156 148.5 104.5 c 128,-1,46
 182 53 182 53 245 53 c 0,47,36
 307 53 307 53 336 102 c 128,-1,37
EndSplineSet
Validated: 1
EndChar

StartChar: Hbar
Encoding: 489 294 233
Width: 500
GlyphClass: 2
Flags: W
AnchorPoint: "Anchor-8" 0 0 basechar 0
AnchorPoint: "Anchor-7" 250 312 basechar 0
AnchorPoint: "Anchor-6" 250 623 basechar 0
AnchorPoint: "Anchor-5" 0 0 basechar 0
AnchorPoint: "Anchor-4" 250 0 basechar 0
LayerCount: 2
Fore
SplineSet
449 616 m 1,0,1
 443 610 443 610 441.5 603 c 128,-1,2
 440 596 440 596 440 579 c 2,3,-1
 440 0 l 1,4,-1
 366 0 l 1,5,-1
 366 278 l 1,6,-1
 123 278 l 1,7,-1
 123 0 l 1,8,-1
 50 0 l 1,9,-1
 50 623 l 1,10,-1
 132 623 l 1,11,-1
 132 616 l 1,12,13
 126 610 126 610 124.5 603 c 128,-1,14
 123 596 123 596 123 579 c 2,15,-1
 123 357 l 1,16,-1
 367 357 l 1,17,-1
 367 623 l 1,18,-1
 449 623 l 1,19,-1
 449 616 l 1,0,1
EndSplineSet
Validated: 1
EndChar

StartChar: hbar
Encoding: 490 295 234
Width: 500
GlyphClass: 2
Flags: W
AnchorPoint: "Anchor-8" 0 0 basechar 0
AnchorPoint: "Anchor-7" 130 549 basechar 0
AnchorPoint: "Anchor-6" 118 665 basechar 0
AnchorPoint: "Anchor-5" 0 0 basechar 0
AnchorPoint: "Anchor-4" 250 0 basechar 0
LayerCount: 2
Fore
SplineSet
395 422 m 128,-1,1
 432 376 432 376 432 277 c 2,2,-1
 432 0 l 1,3,-1
 362 0 l 1,4,-1
 362 275 l 2,5,6
 362 343 362 343 339 374 c 128,-1,7
 316 405 316 405 278 405 c 0,8,9
 246 405 246 405 215 387.5 c 128,-1,10
 184 370 184 370 163.5 337.5 c 128,-1,11
 143 305 143 305 143 263 c 2,12,-1
 143 0 l 1,13,-1
 73 0 l 1,14,-1
 73 520 l 1,15,-1
 0 520 l 1,16,-1
 0 577 l 1,17,-1
 73 577 l 1,18,-1
 73 665 l 1,19,-1
 152 665 l 1,20,-1
 152 658 l 1,21,22
 146 652 146 652 144.5 645 c 128,-1,23
 143 638 143 638 143 621 c 2,24,-1
 143 577 l 1,25,-1
 270 577 l 1,26,-1
 270 520 l 1,27,-1
 143 520 l 1,28,-1
 143 376 l 1,29,30
 170 418 170 418 210.5 443 c 128,-1,31
 251 468 251 468 293 468 c 0,32,0
 358 468 358 468 395 422 c 128,-1,1
EndSplineSet
Validated: 1
EndChar

StartChar: Iogonek
Encoding: 497 302 241
Width: 500
GlyphClass: 2
Flags: W
AnchorPoint: "Anchor-8" 0 0 basechar 0
AnchorPoint: "Anchor-7" 0 0 basechar 0
AnchorPoint: "Anchor-6" 239 623 basechar 0
AnchorPoint: "Anchor-5" 353 0 basechar 0
AnchorPoint: "Anchor-4" 250 0 basechar 0
LayerCount: 2
Fore
SplineSet
343 -63 m 128,-1,1
 321 -96 321 -96 321 -123 c 0,2,3
 321 -145 321 -145 336.5 -160 c 128,-1,4
 352 -175 352 -175 383 -179 c 1,5,-1
 367 -227 l 1,6,7
 316 -220 316 -220 285.5 -197 c 128,-1,8
 255 -174 255 -174 255 -137 c 0,9,10
 255 -102 255 -102 279 -67 c 128,-1,11
 303 -32 303 -32 349 0 c 1,12,-1
 81 0 l 1,13,-1
 81 59 l 1,14,-1
 204 59 l 1,15,-1
 204 564 l 1,16,-1
 88 564 l 1,17,-1
 88 623 l 1,18,-1
 397 623 l 1,19,-1
 397 564 l 1,20,-1
 274 564 l 1,21,-1
 274 58 l 1,22,-1
 403 58 l 1,23,-1
 403 0 l 1,24,0
 365 -30 365 -30 343 -63 c 128,-1,1
EndSplineSet
Validated: 1
EndChar

StartChar: iogonek
Encoding: 498 303 242
Width: 500
GlyphClass: 2
Flags: W
AnchorPoint: "Anchor-8" 0 0 basechar 0
AnchorPoint: "Anchor-7" 0 0 basechar 0
AnchorPoint: "Anchor-6" 250 605 basechar 0
AnchorPoint: "Anchor-5" 346 0 basechar 0
AnchorPoint: "Anchor-4" 250 0 basechar 0
LayerCount: 2
Fore
SplineSet
213 568 m 128,-1,1
 198 583 198 583 198 604 c 0,2,3
 198 626 198 626 212.5 641 c 128,-1,4
 227 656 227 656 249 656 c 0,5,6
 270 656 270 656 285.5 640.5 c 128,-1,7
 301 625 301 625 301 604 c 256,8,9
 301 583 301 583 285.5 568 c 128,-1,10
 270 553 270 553 249 553 c 256,11,0
 228 553 228 553 213 568 c 128,-1,1
336 -63 m 128,-1,13
 314 -96 314 -96 314 -123 c 0,14,15
 314 -145 314 -145 329.5 -160 c 128,-1,16
 345 -175 345 -175 376 -179 c 1,17,-1
 360 -227 l 1,18,19
 309 -220 309 -220 278.5 -197 c 128,-1,20
 248 -174 248 -174 248 -137 c 0,21,22
 248 -102 248 -102 272 -67 c 128,-1,23
 296 -32 296 -32 342 0 c 1,24,-1
 100 0 l 1,25,-1
 100 58 l 1,26,-1
 217 58 l 1,27,-1
 217 399 l 1,28,-1
 106 399 l 1,29,-1
 106 457 l 1,30,-1
 289 457 l 1,31,-1
 289 58 l 1,32,-1
 396 58 l 1,33,-1
 396 0 l 1,34,12
 358 -30 358 -30 336 -63 c 128,-1,13
EndSplineSet
Validated: 1
EndChar

StartChar: dotlessi
Encoding: 500 305 244
Width: 500
GlyphClass: 2
Flags: W
AnchorPoint: "Anchor-8" 0 0 basechar 0
AnchorPoint: "Anchor-7" 0 0 basechar 0
AnchorPoint: "Anchor-6" 250 457 basechar 0
AnchorPoint: "Anchor-5" 346 0 basechar 0
AnchorPoint: "Anchor-4" 250 0 basechar 0
LayerCount: 2
Fore
SplineSet
100 0 m 1,0,-1
 100 58 l 1,1,-1
 217 58 l 1,2,-1
 217 399 l 1,3,-1
 106 399 l 1,4,-1
 106 457 l 1,5,-1
 289 457 l 1,6,-1
 289 58 l 1,7,-1
 396 58 l 1,8,-1
 396 0 l 1,9,-1
 100 0 l 1,0,-1
EndSplineSet
Validated: 1
EndChar

StartChar: kgreenlandic
Encoding: 505 312 249
Width: 500
GlyphClass: 2
Flags: W
AnchorPoint: "Anchor-8" 0 0 basechar 0
AnchorPoint: "Anchor-7" 0 0 basechar 0
AnchorPoint: "Anchor-6" 104 457 basechar 0
AnchorPoint: "Anchor-5" 0 0 basechar 0
AnchorPoint: "Anchor-4" 250 0 basechar 0
LayerCount: 2
Fore
SplineSet
199 229 m 1,0,-1
 139 173 l 1,1,-1
 139 0 l 1,2,-1
 66 0 l 1,3,-1
 66 457 l 1,4,-1
 148 457 l 1,5,6
 148 453 148 453 143.5 444 c 128,-1,7
 139 435 139 435 139 431 c 2,8,-1
 139 247 l 1,9,-1
 369 462 l 1,10,11
 394 457 394 457 422 457 c 2,12,-1
 448 457 l 1,13,-1
 255 273 l 1,14,-1
 479 0 l 1,15,-1
 386 -4 l 1,16,-1
 199 229 l 1,0,-1
EndSplineSet
Validated: 1
EndChar

StartChar: Lcaron
Encoding: 510 317 254
Width: 500
GlyphClass: 2
Flags: W
AnchorPoint: "Anchor-8" 180 457 basechar 0
AnchorPoint: "Anchor-7" 107 312 basechar 0
AnchorPoint: "Anchor-6" 200 623 basechar 0
AnchorPoint: "Anchor-5" 0 0 basechar 0
AnchorPoint: "Anchor-4" 250 0 basechar 0
LayerCount: 2
Fore
SplineSet
311 435 m 1,0,1
 334 455 334 455 348.5 479.5 c 128,-1,2
 363 504 363 504 363 519 c 0,3,4
 363 530 363 530 344 547 c 0,5,6
 322 565 322 565 322 581 c 0,7,8
 322 601 322 601 335.5 614.5 c 128,-1,9
 349 628 349 628 370 628 c 0,10,11
 392 628 392 628 408 609 c 128,-1,12
 424 590 424 590 424 562 c 0,13,14
 424 496 424 496 339 411 c 1,15,-1
 311 435 l 1,0,1
66 623 m 1,16,-1
 148 623 l 1,17,-1
 148 616 l 1,18,19
 142 610 142 610 140.5 603 c 128,-1,20
 139 596 139 596 139 579 c 2,21,-1
 139 60 l 1,22,-1
 439 60 l 1,23,-1
 439 0 l 1,24,-1
 66 0 l 1,25,-1
 66 623 l 1,16,-1
EndSplineSet
Validated: 1
EndChar

StartChar: ldot
Encoding: 513 320 257
Width: 500
GlyphClass: 2
Flags: W
LayerCount: 2
Fore
SplineSet
184 0 m 1,0,-1
 184 607 l 1,1,-1
 75 607 l 1,2,-1
 75 665 l 1,3,-1
 257 665 l 1,4,-1
 257 58 l 1,5,-1
 411 58 l 1,6,-1
 411 0 l 1,7,-1
 184 0 l 1,0,-1
346 290.5 m 128,-1,9
 329 307 329 307 329 331 c 256,10,11
 329 355 329 355 346.5 371.5 c 128,-1,12
 364 388 364 388 388 388 c 0,13,14
 411 388 411 388 429.5 371 c 128,-1,15
 448 354 448 354 448 331 c 256,16,17
 448 308 448 308 430.5 291 c 128,-1,18
 413 274 413 274 388 274 c 256,19,8
 363 274 363 274 346 290.5 c 128,-1,9
EndSplineSet
Validated: 1
EndChar

StartChar: Lslash
Encoding: 514 321 258
Width: 500
GlyphClass: 2
Flags: W
LayerCount: 2
Fore
SplineSet
73 243 m 1,0,-1
 20 226 l 1,1,-1
 20 287 l 1,2,-1
 73 305 l 1,3,-1
 73 623 l 1,4,-1
 154 623 l 2,5,6
 156 623 156 623 156 621 c 256,7,8
 156 619 156 619 152 608 c 128,-1,9
 148 597 148 597 146 589 c 2,10,-1
 146 328 l 1,11,-1
 312 382 l 2,12,13
 333 390 333 390 337 392 c 1,14,-1
 337 328 l 1,15,-1
 146 267 l 1,16,-1
 146 60 l 1,17,-1
 446 60 l 1,18,-1
 446 -1 l 1,19,-1
 73 -1 l 1,20,-1
 73 243 l 1,0,-1
EndSplineSet
Validated: 1
EndChar

StartChar: lslash
Encoding: 515 322 259
Width: 500
GlyphClass: 2
Flags: W
LayerCount: 2
Fore
SplineSet
214 0 m 1,0,-1
 214 279 l 1,1,-1
 135 252 l 1,2,-1
 135 318 l 1,3,-1
 214 345 l 1,4,-1
 214 607 l 1,5,-1
 85 607 l 1,6,-1
 85 665 l 1,7,-1
 287 665 l 1,8,-1
 287 370 l 1,9,-1
 378 403 l 1,10,-1
 378 334 l 1,11,-1
 287 303 l 1,12,-1
 287 58 l 1,13,-1
 421 58 l 1,14,-1
 421 0 l 1,15,-1
 214 0 l 1,0,-1
EndSplineSet
Validated: 1
EndChar

StartChar: Eng
Encoding: 522 330 266
Width: 500
GlyphClass: 2
Flags: W
AnchorPoint: "Anchor-8" 0 0 basechar 0
AnchorPoint: "Anchor-7" 0 0 basechar 0
AnchorPoint: "Anchor-6" 250 623 basechar 0
AnchorPoint: "Anchor-5" 0 0 basechar 0
AnchorPoint: "Anchor-4" 250 0 basechar 0
LayerCount: 2
Fore
SplineSet
454 623 m 2,0,1
 454 620 454 620 450.5 612 c 128,-1,2
 447 604 447 604 447 596 c 2,3,-1
 447 0 l 2,4,5
 447 -91 447 -91 406.5 -138 c 128,-1,6
 366 -185 366 -185 295 -185 c 0,7,8
 248 -185 248 -185 208 -160 c 1,9,-1
 243 -98 l 1,10,11
 249 -100 249 -100 256 -107 c 128,-1,12
 263 -114 263 -114 271 -118 c 128,-1,13
 279 -122 279 -122 298 -122 c 0,14,15
 343 -122 343 -122 360.5 -88.5 c 128,-1,16
 378 -55 378 -55 380 22 c 1,17,-1
 117 490 l 1,18,-1
 117 0 l 1,19,-1
 50 0 l 1,20,-1
 50 623 l 1,21,-1
 118 623 l 1,22,-1
 380 161 l 1,23,-1
 380 623 l 1,24,-1
 454 623 l 2,0,1
EndSplineSet
Validated: 1
EndChar

StartChar: eng
Encoding: 523 331 267
Width: 500
GlyphClass: 2
Flags: W
LayerCount: 2
Fore
SplineSet
165 -142 m 1,1,-1
 199 -75 l 2,2,3
 201 -76 201 -76 207 -85.5 c 128,-1,4
 213 -95 213 -95 226 -102 c 128,-1,5
 239 -109 239 -109 264 -109 c 0,6,7
 361 -109 361 -109 361 45 c 2,8,-1
 361 275 l 2,9,10
 361 343 361 343 338 374 c 128,-1,11
 315 405 315 405 277 405 c 0,12,13
 245 405 245 405 213.5 387 c 128,-1,14
 182 369 182 369 162 336.5 c 128,-1,15
 142 304 142 304 142 263 c 2,16,-1
 142 0 l 1,17,-1
 68 0 l 1,18,-1
 68 457 l 1,19,-1
 142 457 l 1,20,-1
 142 376 l 1,21,22
 168 418 168 418 208.5 443 c 128,-1,23
 249 468 249 468 291 468 c 0,24,25
 356 468 356 468 394 422 c 128,-1,26
 432 376 432 376 432 277 c 2,27,-1
 432 56 l 2,28,29
 432 -61 432 -61 385.5 -118.5 c 128,-1,30
 339 -176 339 -176 262 -176 c 0,31,0
 208 -176 208 -176 165 -142 c 1,1,-1
EndSplineSet
Validated: 1
EndChar

StartChar: OE
Encoding: 530 338 274
Width: 500
GlyphClass: 2
Flags: W
LayerCount: 2
Fore
SplineSet
52 72.5 m 128,-1,1
 9 152 9 152 9 312 c 0,2,3
 9 469 9 469 51.5 550.5 c 128,-1,4
 94 632 94 632 173 632 c 0,5,6
 220 632 220 632 253 595 c 1,7,-1
 253 624 l 1,8,-1
 484 624 l 1,9,-1
 484 562 l 1,10,-1
 315 562 l 1,11,-1
 315 357 l 1,12,-1
 458 357 l 1,13,-1
 458 293 l 1,14,-1
 315 293 l 1,15,-1
 315 62 l 1,16,-1
 482 62 l 1,17,-1
 482 0 l 1,18,-1
 252 0 l 1,19,-1
 252 31 l 1,20,21
 220 -7 220 -7 172 -7 c 0,22,0
 95 -7 95 -7 52 72.5 c 128,-1,1
225 75 m 128,-1,24
 245 96 245 96 252 129 c 1,25,-1
 252 485 l 1,26,27
 220 574 220 574 171 574 c 0,28,29
 127 574 127 574 100 514 c 128,-1,30
 73 454 73 454 73 313 c 0,31,32
 73 190 73 190 100.5 122 c 128,-1,33
 128 54 128 54 179 54 c 0,34,23
 205 54 205 54 225 75 c 128,-1,24
EndSplineSet
Validated: 1
EndChar

StartChar: oe
Encoding: 531 339 275
Width: 500
GlyphClass: 2
Flags: W
LayerCount: 2
Fore
SplineSet
253 29 m 1,1,2
 210 -11 210 -11 154 -11 c 0,3,4
 93 -11 93 -11 49.5 43.5 c 128,-1,5
 6 98 6 98 6 228 c 0,6,7
 6 351 6 351 50 408.5 c 128,-1,8
 94 466 94 466 161 466 c 0,9,10
 221 466 221 466 255 420 c 1,11,12
 294 466 294 466 356 466 c 0,13,14
 420 466 420 466 455 419.5 c 128,-1,15
 490 373 490 373 490 283 c 2,16,-1
 490 221 l 1,17,-1
 262 221 l 1,18,19
 263 151 263 151 274.5 113.5 c 128,-1,20
 286 76 286 76 307.5 61.5 c 128,-1,21
 329 47 329 47 363 47 c 0,22,23
 424 47 424 47 459 85 c 1,24,-1
 494 42 l 1,25,26
 442 -12 442 -12 372 -12 c 0,27,0
 303 -12 303 -12 253 29 c 1,1,2
431 278 m 1,28,29
 431 349 431 349 412 380 c 128,-1,30
 393 411 393 411 350 411 c 0,31,32
 310 411 310 411 286.5 376 c 128,-1,33
 263 341 263 341 263 278 c 1,34,-1
 431 278 l 1,28,29
198.5 61 m 128,-1,36
 213 72 213 72 213 89 c 2,37,-1
 210 112 l 2,38,39
 200 171 200 171 200 238 c 0,40,41
 200 295 200 295 204.5 326 c 128,-1,42
 209 357 209 357 209 362 c 0,43,44
 209 381 209 381 195 393.5 c 128,-1,45
 181 406 181 406 161 406 c 0,46,47
 121 406 121 406 93.5 365 c 128,-1,48
 66 324 66 324 66 239 c 0,49,50
 66 145 66 145 91.5 97.5 c 128,-1,51
 117 50 117 50 163 50 c 0,52,35
 184 50 184 50 198.5 61 c 128,-1,36
EndSplineSet
Validated: 1
EndChar

StartChar: Scedilla
Encoding: 542 350 286
Width: 500
GlyphClass: 2
Flags: W
AnchorPoint: "Anchor-8" 0 0 basechar 0
AnchorPoint: "Anchor-7" 0 0 basechar 0
AnchorPoint: "Anchor-6" 261 623 basechar 0
AnchorPoint: "Anchor-5" 0 0 basechar 0
AnchorPoint: "Anchor-4" 247 -177 basechar 0
LayerCount: 2
Fore
SplineSet
436 90 m 128,-1,1
 417 52 417 52 377.5 25 c 128,-1,2
 338 -2 338 -2 280 -8 c 1,3,-1
 275 -47 l 1,4,5
 317 -51 317 -51 338.5 -69.5 c 128,-1,6
 360 -88 360 -88 360 -112 c 0,7,8
 360 -148 360 -148 330 -172.5 c 128,-1,9
 300 -197 300 -197 244 -197 c 0,10,11
 191 -197 191 -197 145 -166 c 1,12,-1
 170 -124 l 1,13,14
 208 -154 208 -154 257 -154 c 0,15,16
 307 -154 307 -154 307 -118 c 0,17,18
 307 -102 307 -102 293.5 -93.5 c 128,-1,19
 280 -85 280 -85 256 -85 c 2,20,-1
 226 -85 l 1,21,-1
 236 -10 l 1,22,23
 122 -6 122 -6 52 69 c 1,24,-1
 88 132 l 1,25,-1
 88 133 l 2,26,27
 89 133 89 133 89 132.5 c 128,-1,28
 89 132 89 132 89 132 c 1,29,30
 116 96 116 96 158.5 74.5 c 128,-1,31
 201 53 201 53 257 53 c 0,32,33
 312 53 312 53 349 84 c 128,-1,34
 386 115 386 115 386 160 c 0,35,36
 386 189 386 189 374.5 208.5 c 128,-1,37
 363 228 363 228 333 247 c 128,-1,38
 303 266 303 266 243 292 c 0,39,40
 151 328 151 328 111.5 374 c 128,-1,41
 72 420 72 420 72 477 c 0,42,43
 72 547 72 547 123 589 c 128,-1,44
 174 631 174 631 262 631 c 0,45,46
 313 631 313 631 357.5 610.5 c 128,-1,47
 402 590 402 590 435 553 c 1,48,-1
 396 501 l 1,49,-1
 395 500 l 1,50,51
 365 541 365 541 332.5 557 c 128,-1,52
 300 573 300 573 251 573 c 0,53,54
 203 573 203 573 173.5 546.5 c 128,-1,55
 144 520 144 520 144 482 c 0,56,57
 144 453 144 453 156.5 431.5 c 128,-1,58
 169 410 169 410 202 389.5 c 128,-1,59
 235 369 235 369 298 344 c 0,60,61
 387 307 387 307 421 268 c 128,-1,62
 455 229 455 229 455 170 c 0,63,0
 455 128 455 128 436 90 c 128,-1,1
384 498 m 2,64,65
 384 501 384 501 388 499 c 128,-1,66
 392 497 392 497 393 497 c 2,67,-1
 390 493 l 1,68,-1
 384 497 l 1,69,-1
 384 498 l 2,64,65
397.5 494.5 m 128,-1,71
 394 497 394 497 393 497 c 2,72,-1
 395 500 l 1,73,70
 401 492 401 492 397.5 494.5 c 128,-1,71
99 136 m 2,74,75
 99 133 99 133 95 135 c 128,-1,76
 91 137 91 137 90 137 c 2,77,-1
 92 141 l 1,78,-1
 99 137 l 1,79,-1
 99 136 l 2,74,75
90 137 m 1,81,-1
 88 133 l 1,82,80
 82 141 82 141 90 137 c 1,81,-1
EndSplineSet
Validated: 5
Substitution2: "'locl' Localized Forms in Latin lookup 7 subtable" Scommaaccent
Substitution2: "'locl' Localized Forms in Latin lookup 6 subtable" Scommaaccent
Substitution2: "'aalt' Access All Alternates in Latin lookup 0 subtable" Scommaaccent
EndChar

StartChar: scedilla
Encoding: 543 351 287
Width: 500
GlyphClass: 2
Flags: W
AnchorPoint: "Anchor-8" 0 0 basechar 0
AnchorPoint: "Anchor-7" 0 0 basechar 0
AnchorPoint: "Anchor-6" 0 0 basechar 0
AnchorPoint: "Anchor-5" 0 0 basechar 0
AnchorPoint: "Anchor-4" 271 -177 basechar 0
LayerCount: 2
Fore
SplineSet
405 44 m 128,-1,1
 370 6 370 6 304 -6 c 1,2,-1
 299 -47 l 1,3,4
 341 -51 341 -51 362.5 -69.5 c 128,-1,5
 384 -88 384 -88 384 -112 c 0,6,7
 384 -148 384 -148 354 -172.5 c 128,-1,8
 324 -197 324 -197 268 -197 c 0,9,10
 215 -197 215 -197 169 -166 c 1,11,-1
 194 -124 l 1,12,13
 232 -154 232 -154 281 -154 c 0,14,15
 331 -154 331 -154 331 -118 c 0,16,17
 331 -102 331 -102 317.5 -93.5 c 128,-1,18
 304 -85 304 -85 280 -85 c 2,19,-1
 250 -85 l 1,20,-1
 260 -10 l 1,21,-1
 251 -10 l 2,22,23
 135 -10 135 -10 57 62 c 1,24,-1
 97 130 l 1,25,-1
 98 131 l 1,26,-1
 99 130 l 1,27,28
 130 90 130 90 163 70 c 128,-1,29
 196 50 196 50 253 50 c 0,30,31
 307 50 307 50 338 69.5 c 128,-1,32
 369 89 369 89 369 123 c 0,33,34
 369 152 369 152 344 171 c 128,-1,35
 319 190 319 190 254 211 c 0,36,37
 82 260 82 260 82 353 c 0,38,39
 82 406 82 406 125.5 437 c 128,-1,40
 169 468 169 468 250 468 c 0,41,42
 312 468 312 468 354.5 450.5 c 128,-1,43
 397 433 397 433 432 396 c 1,44,-1
 391 346 l 1,45,-1
 390 345 l 1,46,47
 369 377 369 377 330.5 395.5 c 128,-1,48
 292 414 292 414 252 414 c 0,49,50
 209 414 209 414 181.5 399 c 128,-1,51
 154 384 154 384 154 357 c 0,52,53
 154 332 154 332 182 311 c 128,-1,54
 210 290 210 290 283 269 c 0,55,56
 369 243 369 243 404.5 212.5 c 128,-1,57
 440 182 440 182 440 133 c 0,58,0
 440 82 440 82 405 44 c 128,-1,1
387 342 m 1,60,-1
 384 338 l 1,61,-1
 379 343 l 2,62,59
 379 348 379 348 387 342 c 1,60,-1
392.5 340 m 128,-1,64
 392 339 392 339 390 340 c 128,-1,65
 388 341 388 341 387 342 c 2,66,-1
 390 345 l 1,67,63
 393 341 393 341 392.5 340 c 128,-1,64
109 134 m 2,68,69
 109 130 109 130 100 134 c 1,70,-1
 103 139 l 1,71,-1
 109 135 l 1,72,-1
 109 134 l 2,68,69
96 136 m 128,-1,74
 97 136 97 136 100 134 c 2,75,-1
 98 131 l 1,76,73
 95 136 95 136 96 136 c 128,-1,74
EndSplineSet
Validated: 5
Substitution2: "'locl' Localized Forms in Latin lookup 7 subtable" scommaaccent
Substitution2: "'locl' Localized Forms in Latin lookup 6 subtable" scommaaccent
Substitution2: "'aalt' Access All Alternates in Latin lookup 0 subtable" scommaaccent
EndChar

StartChar: uni0163
Encoding: 547 355 291
Width: 500
GlyphClass: 2
Flags: W
AnchorPoint: "Anchor-8" 310 457 basechar 0
AnchorPoint: "Anchor-7" 213 312 basechar 0
AnchorPoint: "Anchor-6" 241 587 basechar 0
AnchorPoint: "Anchor-5" 0 0 basechar 0
AnchorPoint: "Anchor-4" 250 -177 basechar 0
LayerCount: 2
Fore
SplineSet
341.5 -69.5 m 128,-1,1
 363 -88 363 -88 363 -112 c 0,2,3
 363 -148 363 -148 333 -172.5 c 128,-1,4
 303 -197 303 -197 247 -197 c 0,5,6
 194 -197 194 -197 148 -166 c 1,7,-1
 173 -124 l 1,8,9
 211 -154 211 -154 260 -154 c 0,10,11
 310 -154 310 -154 310 -118 c 0,12,13
 310 -102 310 -102 296.5 -93.5 c 128,-1,14
 283 -85 283 -85 259 -85 c 2,15,-1
 229 -85 l 1,16,-1
 240 0 l 1,17,-1
 246 0 l 1,18,19
 200 15 200 15 180 60.5 c 128,-1,20
 160 106 160 106 160 190 c 0,21,22
 160 206 160 206 162 248 c 2,23,-1
 171 398 l 1,24,-1
 70 398 l 1,25,-1
 70 457 l 1,26,-1
 175 457 l 1,27,-1
 182 579 l 1,28,-1
 262 592 l 1,29,-1
 272 593 l 1,30,-1
 273 587 l 1,31,32
 266 577 266 577 262.5 570 c 128,-1,33
 259 563 259 563 258 548 c 2,34,-1
 247 457 l 1,35,-1
 399 457 l 1,36,-1
 399 398 l 1,37,-1
 243 398 l 1,38,-1
 234 243 l 2,39,40
 232 203 232 203 232 190 c 0,41,42
 232 110 232 110 250.5 81.5 c 128,-1,43
 269 53 269 53 310 53 c 0,44,45
 340 53 340 53 365 64 c 128,-1,46
 390 75 390 75 422 99 c 1,47,-1
 444 42 l 1,48,49
 378 -7 378 -7 299 -7 c 0,50,51
 288 -7 288 -7 283 -6 c 1,52,-1
 278 -47 l 1,53,0
 320 -51 320 -51 341.5 -69.5 c 128,-1,1
EndSplineSet
Validated: 1
Substitution2: "'locl' Localized Forms in Latin lookup 7 subtable" uni021B
Substitution2: "'locl' Localized Forms in Latin lookup 6 subtable" uni021B
Substitution2: "'aalt' Access All Alternates in Latin lookup 0 subtable" uni021B
EndChar

StartChar: Tbar
Encoding: 550 358 294
Width: 500
GlyphClass: 2
Flags: W
AnchorPoint: "Anchor-8" 0 0 basechar 0
AnchorPoint: "Anchor-7" 244 312 basechar 0
AnchorPoint: "Anchor-6" 250 623 basechar 0
AnchorPoint: "Anchor-5" 0 0 basechar 0
AnchorPoint: "Anchor-4" 250 0 basechar 0
LayerCount: 2
Fore
SplineSet
463 561 m 1,0,-1
 279 561 l 1,1,-1
 279 340 l 1,2,-1
 412 340 l 1,3,-1
 412 283 l 1,4,-1
 279 283 l 1,5,-1
 279 0 l 1,6,-1
 208 0 l 1,7,-1
 208 283 l 1,8,-1
 88 283 l 1,9,-1
 88 340 l 1,10,-1
 208 340 l 1,11,-1
 208 561 l 1,12,-1
 31 561 l 1,13,-1
 31 624 l 1,14,-1
 463 624 l 1,15,-1
 463 561 l 1,0,-1
EndSplineSet
Validated: 1
EndChar

StartChar: tbar
Encoding: 551 359 295
Width: 500
GlyphClass: 2
Flags: W
AnchorPoint: "Anchor-8" 310 457 basechar 0
AnchorPoint: "Anchor-7" 213 312 basechar 0
AnchorPoint: "Anchor-6" 241 587 basechar 0
AnchorPoint: "Anchor-5" 0 0 basechar 0
AnchorPoint: "Anchor-4" 250 0 basechar 0
LayerCount: 2
Fore
SplineSet
444 42 m 1,0,1
 378 -7 378 -7 299 -7 c 0,2,3
 223 -7 223 -7 191.5 39 c 128,-1,4
 160 85 160 85 160 186 c 2,5,-1
 161 220 l 1,6,-1
 61 220 l 1,7,-1
 61 277 l 1,8,-1
 164 277 l 1,9,-1
 171 398 l 1,10,-1
 70 398 l 1,11,-1
 70 457 l 1,12,-1
 175 457 l 1,13,-1
 182 579 l 1,14,-1
 262 592 l 1,15,-1
 272 593 l 1,16,-1
 273 587 l 1,17,18
 266 577 266 577 262.5 570 c 128,-1,19
 259 563 259 563 258 548 c 2,20,-1
 247 457 l 1,21,-1
 399 457 l 1,22,-1
 399 398 l 1,23,-1
 243 398 l 1,24,-1
 236 277 l 1,25,-1
 390 277 l 1,26,-1
 390 220 l 1,27,-1
 233 220 l 1,28,29
 231 152 231 152 238.5 116 c 128,-1,30
 246 80 246 80 263.5 66.5 c 128,-1,31
 281 53 281 53 310 53 c 0,32,33
 340 53 340 53 365 64 c 128,-1,34
 390 75 390 75 422 99 c 1,35,-1
 444 42 l 1,0,1
EndSplineSet
Validated: 33
EndChar

StartChar: Uogonek
Encoding: 562 370 306
Width: 500
GlyphClass: 2
Flags: W
AnchorPoint: "Anchor-8" 454 623 basechar 0
AnchorPoint: "Anchor-7" 0 0 basechar 0
AnchorPoint: "Anchor-6" 250 623 basechar 0
AnchorPoint: "Anchor-5" 302 10 basechar 0
AnchorPoint: "Anchor-4" 250 0 basechar 0
LayerCount: 2
Fore
SplineSet
454 623 m 1,0,-1
 454 218 l 2,1,2
 454 138 454 138 427.5 86 c 128,-1,3
 401 34 401 34 352 10 c 1,4,5
 314 -20 314 -20 292 -53 c 128,-1,6
 270 -86 270 -86 270 -113 c 0,7,8
 270 -135 270 -135 285.5 -150 c 128,-1,9
 301 -165 301 -165 332 -169 c 1,10,-1
 316 -217 l 1,11,12
 265 -210 265 -210 234.5 -187 c 128,-1,13
 204 -164 204 -164 204 -127 c 0,14,15
 204 -98 204 -98 221.5 -68 c 128,-1,16
 239 -38 239 -38 272 -10 c 1,17,18
 265 -11 265 -11 251 -11 c 0,19,20
 152 -11 152 -11 101 48 c 128,-1,21
 50 107 50 107 50 215 c 2,22,-1
 50 623 l 1,23,-1
 128 623 l 1,24,-1
 128 616 l 1,25,26
 122 610 122 610 120.5 603 c 128,-1,27
 119 596 119 596 119 579 c 2,28,-1
 119 214 l 2,29,30
 119 134 119 134 150 91 c 128,-1,31
 181 48 181 48 252 48 c 0,32,33
 324 48 324 48 355.5 91 c 128,-1,34
 387 134 387 134 387 217 c 2,35,-1
 387 623 l 1,36,-1
 454 623 l 1,0,-1
EndSplineSet
Validated: 1
EndChar

StartChar: uogonek
Encoding: 563 371 307
Width: 500
GlyphClass: 2
Flags: W
AnchorPoint: "Anchor-8" 432 457 basechar 0
AnchorPoint: "Anchor-7" 0 0 basechar 0
AnchorPoint: "Anchor-6" 250 457 basechar 0
AnchorPoint: "Anchor-5" 392 0 basechar 0
AnchorPoint: "Anchor-4" 231 0 basechar 0
LayerCount: 2
Fore
SplineSet
375.5 -160 m 128,-1,1
 391 -175 391 -175 422 -179 c 1,2,-1
 406 -227 l 1,3,4
 355 -220 355 -220 324.5 -197 c 128,-1,5
 294 -174 294 -174 294 -137 c 0,6,7
 294 -102 294 -102 318 -67 c 128,-1,8
 342 -32 342 -32 388 0 c 1,9,-1
 373 0 l 1,10,11
 366 15 366 15 364.5 31 c 128,-1,12
 363 47 363 47 363 70 c 1,13,14
 341 32 341 32 303.5 10.5 c 128,-1,15
 266 -11 266 -11 221 -11 c 0,16,17
 149 -11 149 -11 106 42.5 c 128,-1,18
 63 96 63 96 64 202 c 2,19,-1
 65 457 l 1,20,-1
 135 457 l 1,21,-1
 135 202 l 2,22,23
 135 120 135 120 163.5 83.5 c 128,-1,24
 192 47 192 47 239 47 c 0,25,26
 291 47 291 47 326.5 87.5 c 128,-1,27
 362 128 362 128 362 205 c 2,28,-1
 362 457 l 1,29,-1
 432 457 l 1,30,-1
 432 71 l 2,31,32
 432 47 432 47 433.5 31.5 c 128,-1,33
 435 16 435 16 442 0 c 1,34,35
 404 -30 404 -30 382 -63 c 128,-1,36
 360 -96 360 -96 360 -123 c 0,37,0
 360 -145 360 -145 375.5 -160 c 128,-1,1
EndSplineSet
Validated: 33
EndChar

StartChar: florin
Encoding: 576 402 320
Width: 500
GlyphClass: 2
Flags: W
LayerCount: 2
Fore
SplineSet
18 -140 m 1,1,-1
 59 -76 l 2,2,3
 62 -77 62 -77 68.5 -86.5 c 128,-1,4
 75 -96 75 -96 84 -102 c 128,-1,5
 93 -108 93 -108 109 -108 c 0,6,7
 137 -108 137 -108 155.5 -73.5 c 128,-1,8
 174 -39 174 -39 179 27 c 2,9,-1
 201 326 l 1,10,-1
 80 326 l 1,11,-1
 80 383 l 1,12,-1
 205 383 l 1,13,-1
 212 475 l 2,14,15
 220 575 220 575 260 624 c 128,-1,16
 300 673 300 673 368 673 c 256,17,18
 436 673 436 673 480 620 c 1,19,-1
 447 554 l 1,20,21
 439 554 439 554 438 564 c 0,22,23
 434 587 434 587 413.5 601.5 c 128,-1,24
 393 616 393 616 369 616 c 0,25,26
 329 616 329 616 308 584 c 128,-1,27
 287 552 287 552 281 465 c 2,28,-1
 275 383 l 1,29,-1
 398 383 l 1,30,-1
 398 326 l 1,31,-1
 270 326 l 1,32,-1
 246 24 l 2,33,34
 228 -175 228 -175 100 -175 c 0,35,0
 51 -175 51 -175 18 -140 c 1,1,-1
EndSplineSet
Validated: 1
EndChar

StartChar: uni0198
Encoding: 577 408 321
Width: 500
GlyphClass: 2
Flags: W
LayerCount: 2
Fore
SplineSet
465 551 m 1,0,-1
 465 550 l 1,1,2
 454 553 454 553 444.5 554.5 c 128,-1,3
 435 556 435 556 418 556 c 0,4,5
 388 556 388 556 340.5 520 c 128,-1,6
 293 484 293 484 208 370 c 1,7,-1
 471 0 l 1,8,-1
 381 -4 l 1,9,-1
 166 311 l 1,10,-1
 117 238 l 1,11,-1
 117 0 l 1,12,-1
 42 0 l 1,13,-1
 42 623 l 1,14,-1
 126 623 l 1,15,-1
 126 616 l 1,16,17
 120 610 120 610 118.5 603 c 128,-1,18
 117 596 117 596 117 579 c 2,19,-1
 117 326 l 1,20,21
 209 487 209 487 286 557 c 128,-1,22
 363 627 363 627 431 627 c 0,23,24
 451 627 451 627 466 623 c 1,25,-1
 465 551 l 1,0,-1
470 548 m 128,-1,27
 470 547 470 547 468 546.5 c 128,-1,28
 466 546 466 546 465 546 c 2,29,-1
 465 550 l 1,30,26
 470 549 470 549 470 548 c 128,-1,27
457 543 m 2,31,32
 457 546 457 546 465 546 c 1,33,-1
 465 541 l 1,34,-1
 458 541 l 1,35,-1
 457 543 l 2,31,32
EndSplineSet
Validated: 5
EndChar

StartChar: Ohorn
Encoding: 578 416 322
Width: 500
GlyphClass: 2
Flags: W
AnchorPoint: "Anchor-8" 379 584 basechar 0
AnchorPoint: "Anchor-7" 250 312 basechar 0
AnchorPoint: "Anchor-6" 250 623 basechar 0
AnchorPoint: "Anchor-5" 287 10 basechar 0
AnchorPoint: "Anchor-4" 250 0 basechar 0
LayerCount: 2
Fore
SplineSet
473 308 m 0,1,2
 473 155 473 155 415 72 c 128,-1,3
 357 -11 357 -11 250 -11 c 256,4,5
 143 -11 143 -11 85 72 c 128,-1,6
 27 155 27 155 27 308 c 0,7,8
 27 457 27 457 85.5 542 c 128,-1,9
 144 627 144 627 250 627 c 0,10,11
 324 627 324 627 376 584 c 1,12,13
 392 586 392 586 399 594 c 128,-1,14
 406 602 406 602 408 620 c 128,-1,15
 410 638 410 638 410 678 c 1,16,-1
 468 678 l 1,17,18
 468 609 468 609 458 578.5 c 128,-1,19
 448 548 448 548 417 539 c 1,20,0
 473 456 473 456 473 308 c 0,1,2
361.5 117 m 128,-1,22
 401 184 401 184 401 308 c 0,23,24
 401 427 401 427 361 496.5 c 128,-1,25
 321 566 321 566 250 566 c 256,26,27
 179 566 179 566 139 496.5 c 128,-1,28
 99 427 99 427 99 308 c 0,29,30
 99 184 99 184 138.5 117 c 128,-1,31
 178 50 178 50 250 50 c 256,32,21
 322 50 322 50 361.5 117 c 128,-1,22
EndSplineSet
Validated: 1
EndChar

StartChar: ohorn
Encoding: 579 417 323
Width: 500
GlyphClass: 2
Flags: W
AnchorPoint: "Anchor-8" 359 436 basechar 0
AnchorPoint: "Anchor-7" 250 229 basechar 0
AnchorPoint: "Anchor-6" 250 457 basechar 0
AnchorPoint: "Anchor-5" 286 10 basechar 0
AnchorPoint: "Anchor-4" 250 0 basechar 0
LayerCount: 2
Fore
SplineSet
447 320 m 128,-1,1
 461 278 461 278 461 229 c 0,2,3
 461 160 461 160 434 106 c 128,-1,4
 407 52 407 52 359 22 c 128,-1,5
 311 -8 311 -8 250 -8 c 256,6,7
 189 -8 189 -8 141 22 c 128,-1,8
 93 52 93 52 66 106 c 128,-1,9
 39 160 39 160 39 229 c 256,10,11
 39 298 39 298 66 352 c 128,-1,12
 93 406 93 406 141 436.5 c 128,-1,13
 189 467 189 467 250 467 c 0,14,15
 312 467 312 467 360 436 c 1,16,17
 376 437 376 437 382.5 454 c 128,-1,18
 389 471 389 471 389 520 c 1,19,-1
 453 520 l 1,20,21
 453 462 453 462 443.5 433.5 c 128,-1,22
 434 405 434 405 407 394 c 1,23,0
 433 362 433 362 447 320 c 128,-1,1
319.5 75 m 128,-1,25
 350 98 350 98 367.5 138.5 c 128,-1,26
 385 179 385 179 385 230 c 0,27,28
 385 308 385 308 347 357.5 c 128,-1,29
 309 407 309 407 250 407 c 256,30,31
 191 407 191 407 153 357.5 c 128,-1,32
 115 308 115 308 115 230 c 0,33,34
 115 179 115 179 132.5 138.5 c 128,-1,35
 150 98 150 98 180.5 75 c 128,-1,36
 211 52 211 52 250 52 c 256,37,24
 289 52 289 52 319.5 75 c 128,-1,25
EndSplineSet
Validated: 1
EndChar

StartChar: Uhorn
Encoding: 580 431 324
Width: 500
GlyphClass: 2
Flags: W
AnchorPoint: "Anchor-8" 408 623 basechar 0
AnchorPoint: "Anchor-7" 0 0 basechar 0
AnchorPoint: "Anchor-6" 223 623 basechar 0
AnchorPoint: "Anchor-5" 450 10 basechar 0
AnchorPoint: "Anchor-4" 222 0 basechar 0
LayerCount: 2
Fore
SplineSet
491 630.5 m 128,-1,1
 485 601 485 601 466.5 587.5 c 128,-1,2
 448 574 448 574 409 574 c 1,3,-1
 409 218 l 2,4,5
 409 103 409 103 360.5 46 c 128,-1,6
 312 -11 312 -11 226 -11 c 0,7,8
 137 -11 137 -11 91 47.5 c 128,-1,9
 45 106 45 106 45 215 c 2,10,-1
 45 623 l 1,11,-1
 116 623 l 1,12,-1
 116 616 l 1,13,14
 110 610 110 610 108.5 603 c 128,-1,15
 107 596 107 596 107 579 c 2,16,-1
 107 214 l 2,17,18
 107 134 107 134 135 91 c 128,-1,19
 163 48 163 48 227 48 c 0,20,21
 292 48 292 48 320 91 c 128,-1,22
 348 134 348 134 348 217 c 2,23,-1
 348 623 l 1,24,-1
 398 623 l 2,25,26
 417 623 417 623 425.5 630.5 c 128,-1,27
 434 638 434 638 436.5 656.5 c 128,-1,28
 439 675 439 675 439 717 c 1,29,-1
 497 717 l 1,30,0
 497 660 497 660 491 630.5 c 128,-1,1
EndSplineSet
Validated: 1
EndChar

StartChar: uni01B8
Encoding: 582 440 326
Width: 500
GlyphClass: 2
Flags: W
LayerCount: 2
Fore
SplineSet
429 60 m 1,0,1
 364 -11 364 -11 268 -11 c 0,2,3
 205 -11 205 -11 160.5 14 c 128,-1,4
 116 39 116 39 93.5 80.5 c 128,-1,5
 71 122 71 122 71 172 c 0,6,7
 71 225 71 225 95.5 270 c 128,-1,8
 120 315 120 315 164 342.5 c 128,-1,9
 208 370 208 370 264 372 c 1,10,-1
 88 560 l 1,11,-1
 88 623 l 1,12,-1
 393 623 l 1,13,-1
 393 560 l 1,14,-1
 166 560 l 1,15,-1
 338 372 l 1,16,-1
 338 320 l 1,17,18
 246 325 246 325 194.5 290 c 128,-1,19
 143 255 143 255 143 177 c 0,20,21
 143 119 143 119 178 84 c 128,-1,22
 213 49 213 49 275 49 c 0,23,24
 332 49 332 49 359 80 c 0,25,26
 383 109 383 109 383 112 c 0,27,28
 383 113 383 113 379.5 112 c 128,-1,29
 376 111 376 111 375 115 c 2,30,-1
 379 120 l 1,31,-1
 387 114 l 1,32,-1
 429 60 l 1,0,1
EndSplineSet
Validated: 33
EndChar

StartChar: uni01C7
Encoding: 584 455 328
Width: 500
GlyphClass: 2
Flags: W
LayerCount: 2
Fore
SplineSet
66 623 m 1,0,-1
 148 623 l 1,1,2
 148 616 148 616 143.5 605.5 c 128,-1,3
 139 595 139 595 139 589 c 2,4,-1
 139 61 l 1,5,-1
 309 61 l 1,6,-1
 309 0 l 1,7,-1
 66 0 l 1,8,-1
 66 623 l 1,0,-1
139 -82 m 1,10,-1
 186 -25 l 1,11,12
 192 -30 192 -30 195.5 -40.5 c 128,-1,13
 199 -51 199 -51 205 -57 c 0,14,15
 214 -69 214 -69 236 -79 c 128,-1,16
 258 -89 258 -89 285 -89 c 0,17,18
 334 -89 334 -89 358 -52.5 c 128,-1,19
 382 -16 382 -16 382 68 c 2,20,-1
 382 564 l 1,21,-1
 252 564 l 1,22,-1
 252 623 l 1,23,-1
 451 623 l 1,24,-1
 451 69 l 2,25,26
 454 -43 454 -43 406.5 -97 c 128,-1,27
 359 -151 359 -151 286 -151 c 0,28,9
 198 -151 198 -151 139 -82 c 1,10,-1
EndSplineSet
Validated: 33
EndChar

StartChar: uni01C8
Encoding: 585 456 329
Width: 500
GlyphClass: 2
Flags: W
LayerCount: 2
Fore
SplineSet
347 567 m 128,-1,1
 332 582 332 582 332 603 c 0,2,3
 332 625 332 625 346.5 640 c 128,-1,4
 361 655 361 655 383 655 c 0,5,6
 404 655 404 655 419.5 639.5 c 128,-1,7
 435 624 435 624 435 603 c 256,8,9
 435 582 435 582 419.5 567 c 128,-1,10
 404 552 404 552 383 552 c 256,11,0
 362 552 362 552 347 567 c 128,-1,1
66 623 m 1,12,-1
 148 623 l 1,13,14
 148 616 148 616 143.5 605.5 c 128,-1,15
 139 595 139 595 139 589 c 2,16,-1
 139 61 l 1,17,-1
 299 61 l 1,18,-1
 299 0 l 1,19,-1
 66 0 l 1,20,-1
 66 623 l 1,12,-1
108 -110 m 1,22,-1
 155 -48 l 1,23,24
 159 -52 159 -52 163 -63 c 128,-1,25
 167 -74 167 -74 175.5 -82.5 c 128,-1,26
 184 -91 184 -91 206 -101 c 0,27,28
 230 -112 230 -112 253 -112 c 0,29,30
 300 -112 300 -112 328 -80 c 128,-1,31
 356 -48 356 -48 356 18 c 2,32,-1
 356 398 l 1,33,-1
 216 398 l 1,34,-1
 216 457 l 1,35,-1
 429 457 l 1,36,-1
 429 22 l 2,37,38
 429 -76 429 -76 379.5 -123 c 128,-1,39
 330 -170 330 -170 248 -174 c 1,40,21
 160 -174 160 -174 108 -110 c 1,22,-1
EndSplineSet
Validated: 1
EndChar

StartChar: uni01C9
Encoding: 586 457 330
Width: 500
GlyphClass: 2
Flags: W
LayerCount: 2
Fore
SplineSet
19 0 m 1,0,-1
 19 58 l 1,1,-1
 84 58 l 1,2,-1
 84 607 l 1,3,-1
 25 607 l 1,4,-1
 25 665 l 1,5,-1
 157 665 l 1,6,-1
 157 58 l 1,7,-1
 281 58 l 1,8,-1
 281 0 l 1,9,-1
 19 0 l 1,0,-1
346 568 m 128,-1,11
 331 583 331 583 331 604 c 0,12,13
 331 626 331 626 345.5 641 c 128,-1,14
 360 656 360 656 382 656 c 0,15,16
 403 656 403 656 418.5 640.5 c 128,-1,17
 434 625 434 625 434 604 c 256,18,19
 434 583 434 583 418.5 568 c 128,-1,20
 403 553 403 553 382 553 c 256,21,10
 361 553 361 553 346 568 c 128,-1,11
108 -110 m 1,23,-1
 155 -48 l 1,24,25
 159 -52 159 -52 163 -63 c 128,-1,26
 167 -74 167 -74 175.5 -82.5 c 128,-1,27
 184 -91 184 -91 206 -101 c 0,28,29
 230 -112 230 -112 253 -112 c 0,30,31
 300 -112 300 -112 328 -80 c 128,-1,32
 356 -48 356 -48 356 18 c 2,33,-1
 356 398 l 1,34,-1
 216 398 l 1,35,-1
 216 457 l 1,36,-1
 429 457 l 1,37,-1
 429 22 l 2,38,39
 429 -76 429 -76 379.5 -123 c 128,-1,40
 330 -170 330 -170 248 -174 c 1,41,22
 160 -174 160 -174 108 -110 c 1,23,-1
EndSplineSet
Validated: 1
EndChar

StartChar: uni01EA
Encoding: 589 490 333
Width: 500
GlyphClass: 2
Flags: W
AnchorPoint: "Anchor-8" 379 584 basechar 0
AnchorPoint: "Anchor-7" 250 312 basechar 0
AnchorPoint: "Anchor-6" 250 623 basechar 0
AnchorPoint: "Anchor-5" 287 10 basechar 0
AnchorPoint: "Anchor-4" 250 0 basechar 0
LayerCount: 2
Fore
SplineSet
274.5 -56.5 m 128,-1,1
 255 -87 255 -87 255 -113 c 0,2,3
 255 -135 255 -135 270.5 -150 c 128,-1,4
 286 -165 286 -165 317 -169 c 1,5,-1
 301 -217 l 1,6,7
 250 -210 250 -210 219.5 -187 c 128,-1,8
 189 -164 189 -164 189 -127 c 0,9,10
 189 -67 189 -67 256 -11 c 1,11,-1
 250 -11 l 2,12,13
 143 -11 143 -11 85 72 c 128,-1,14
 27 155 27 155 27 308 c 0,15,16
 27 457 27 457 85.5 542 c 128,-1,17
 144 627 144 627 250 627 c 256,18,19
 356 627 356 627 414.5 542 c 128,-1,20
 473 457 473 457 473 308 c 0,21,22
 473 186 473 186 436 107.5 c 128,-1,23
 399 29 399 29 328 2 c 1,24,0
 294 -26 294 -26 274.5 -56.5 c 128,-1,1
138.5 117 m 128,-1,26
 178 50 178 50 250 50 c 256,27,28
 322 50 322 50 361.5 117 c 128,-1,29
 401 184 401 184 401 308 c 0,30,31
 401 427 401 427 361 496.5 c 128,-1,32
 321 566 321 566 250 566 c 256,33,34
 179 566 179 566 139 496.5 c 128,-1,35
 99 427 99 427 99 308 c 0,36,25
 99 184 99 184 138.5 117 c 128,-1,26
EndSplineSet
Validated: 1
EndChar

StartChar: uni01EB
Encoding: 590 491 334
Width: 500
GlyphClass: 2
Flags: W
AnchorPoint: "Anchor-8" 359 436 basechar 0
AnchorPoint: "Anchor-7" 250 229 basechar 0
AnchorPoint: "Anchor-6" 250 457 basechar 0
AnchorPoint: "Anchor-5" 286 10 basechar 0
AnchorPoint: "Anchor-4" 250 0 basechar 0
LayerCount: 2
Fore
SplineSet
275.5 -53 m 128,-1,1
 254 -86 254 -86 254 -113 c 0,2,3
 254 -135 254 -135 269.5 -150 c 128,-1,4
 285 -165 285 -165 316 -169 c 1,5,-1
 300 -217 l 1,6,7
 249 -210 249 -210 218.5 -187 c 128,-1,8
 188 -164 188 -164 188 -127 c 0,9,10
 188 -67 188 -67 259 -8 c 1,11,-1
 250 -8 l 2,12,13
 189 -8 189 -8 141 22 c 128,-1,14
 93 52 93 52 66 106 c 128,-1,15
 39 160 39 160 39 229 c 256,16,17
 39 298 39 298 66 352 c 128,-1,18
 93 406 93 406 141 436.5 c 128,-1,19
 189 467 189 467 250 467 c 256,20,21
 311 467 311 467 359 436.5 c 128,-1,22
 407 406 407 406 434 352 c 128,-1,23
 461 298 461 298 461 229 c 0,24,25
 461 152 461 152 427 94 c 128,-1,26
 393 36 393 36 335 10 c 1,27,0
 297 -20 297 -20 275.5 -53 c 128,-1,1
132.5 138.5 m 128,-1,29
 150 98 150 98 180.5 75 c 128,-1,30
 211 52 211 52 250 52 c 256,31,32
 289 52 289 52 319.5 75 c 128,-1,33
 350 98 350 98 367.5 138.5 c 128,-1,34
 385 179 385 179 385 230 c 0,35,36
 385 308 385 308 347 357.5 c 128,-1,37
 309 407 309 407 250 407 c 256,38,39
 191 407 191 407 153 357.5 c 128,-1,40
 115 308 115 308 115 230 c 0,41,28
 115 179 115 179 132.5 138.5 c 128,-1,29
EndSplineSet
Validated: 1
EndChar

StartChar: Aringacute
Encoding: 591 506 335
Width: 500
GlyphClass: 2
Flags: W
AnchorPoint: "Anchor-8" 0 0 basechar 0
AnchorPoint: "Anchor-7" 0 0 basechar 0
AnchorPoint: "Anchor-6" 250 913 basechar 0
AnchorPoint: "Anchor-5" 414 0 basechar 0
AnchorPoint: "Anchor-4" 250 0 basechar 0
LayerCount: 2
Fore
SplineSet
346 893 m 1,0,-1
 177 832 l 1,1,-1
 154 874 l 1,2,-1
 306 963 l 1,3,-1
 346 893 l 1,0,-1
349 182 m 1,4,-1
 148 182 l 1,5,-1
 85 0 l 1,6,-1
 16 0 l 1,7,-1
 241 619 l 1,8,9
 206 623 206 623 182 648 c 128,-1,10
 158 673 158 673 158 707 c 0,11,12
 158 743 158 743 185.5 769 c 128,-1,13
 213 795 213 795 250 795 c 256,14,15
 287 795 287 795 314 769 c 128,-1,16
 341 743 341 743 341 706 c 0,17,18
 341 673 341 673 317.5 648 c 128,-1,19
 294 623 294 623 259 619 c 1,20,-1
 484 0 l 1,21,-1
 412 0 l 1,22,-1
 349 182 l 1,4,-1
221.5 675 m 128,-1,24
 234 662 234 662 251 662 c 256,25,26
 268 662 268 662 280 675 c 128,-1,27
 292 688 292 688 292 707 c 0,28,29
 292 727 292 727 280 740 c 128,-1,30
 268 753 268 753 251 753 c 0,31,32
 233 753 233 753 221 740 c 128,-1,33
 209 727 209 727 209 707 c 0,34,23
 209 688 209 688 221.5 675 c 128,-1,24
167 236 m 1,35,-1
 331 236 l 1,36,-1
 249 474 l 1,37,-1
 167 236 l 1,35,-1
EndSplineSet
Validated: 1
EndChar

StartChar: uni0237
Encoding: 633 567 377
Width: 500
GlyphClass: 2
Flags: W
AnchorPoint: "Anchor-8" 0 0 basechar 0
AnchorPoint: "Anchor-7" 0 0 basechar 0
AnchorPoint: "Anchor-6" 328 457 basechar 0
AnchorPoint: "Anchor-5" 0 0 basechar 0
AnchorPoint: "Anchor-4" 250 -190 basechar 0
LayerCount: 2
Fore
SplineSet
369 457 m 1,0,-1
 369 22 l 2,1,2
 369 -77 369 -77 320 -125.5 c 128,-1,3
 271 -174 271 -174 194 -174 c 0,4,5
 150 -174 150 -174 112 -158 c 128,-1,6
 74 -142 74 -142 48 -110 c 1,7,-1
 88 -56 l 1,8,-1
 89 -55 l 1,9,-1
 90 -56 l 1,10,11
 110 -82 110 -82 134.5 -97 c 128,-1,12
 159 -112 159 -112 193 -112 c 0,13,14
 240 -112 240 -112 268 -80 c 128,-1,15
 296 -48 296 -48 296 18 c 2,16,-1
 296 398 l 1,17,-1
 126 398 l 1,18,-1
 126 457 l 1,19,-1
 369 457 l 1,0,-1
100 -53 m 2,20,21
 100 -56 100 -56 97 -55 c 128,-1,22
 94 -54 94 -54 91 -52 c 2,23,-1
 94 -48 l 1,24,-1
 100 -52 l 1,25,-1
 100 -53 l 2,20,21
87 -50 m 128,-1,27
 88 -50 88 -50 91 -52 c 2,28,-1
 89 -55 l 1,29,26
 86 -50 86 -50 87 -50 c 128,-1,27
EndSplineSet
Validated: 5
EndChar

StartChar: uni024D
Encoding: 634 589 378
Width: 500
GlyphClass: 2
Flags: W
AnchorPoint: "Anchor-8" 0 0 basechar 0
AnchorPoint: "Anchor-7" 0 0 basechar 0
AnchorPoint: "Anchor-6" 250 457 basechar 0
AnchorPoint: "Anchor-5" 0 0 basechar 0
AnchorPoint: "Anchor-4" 270 0 basechar 0
LayerCount: 2
Fore
SplineSet
426 362 m 1,0,-1
 426 361 l 1,1,2
 397 388 397 388 377.5 397 c 128,-1,3
 358 406 358 406 332 406 c 0,4,5
 296 406 296 406 264 388 c 128,-1,6
 232 370 232 370 212 333.5 c 128,-1,7
 192 297 192 297 192 242 c 2,8,-1
 192 229 l 1,9,-1
 305 229 l 1,10,-1
 305 172 l 1,11,-1
 192 172 l 1,12,-1
 192 -1 l 1,13,-1
 119 -1 l 1,14,-1
 119 172 l 1,15,-1
 35 172 l 1,16,-1
 35 229 l 1,17,-1
 119 229 l 1,18,-1
 119 457 l 1,19,-1
 194 457 l 1,20,-1
 192 373 l 1,21,22
 211 418 211 418 250.5 443 c 128,-1,23
 290 468 290 468 337 468 c 0,24,25
 410 468 410 468 458 418 c 1,26,-1
 426 362 l 1,0,-1
429.5 356 m 128,-1,28
 426 357 426 357 424 358 c 2,29,-1
 426 361 l 1,30,27
 433 355 433 355 429.5 356 c 128,-1,28
415 358 m 2,31,32
 415 361 415 361 418 360.5 c 128,-1,33
 421 360 421 360 424 358 c 2,34,-1
 422 353 l 1,35,-1
 415 357 l 1,36,-1
 415 358 l 2,31,32
EndSplineSet
Validated: 5
EndChar

StartChar: uni0259
Encoding: 635 601 379
Width: 500
GlyphClass: 2
Flags: W
AnchorPoint: "Anchor-8" 0 0 basechar 0
AnchorPoint: "Anchor-7" 0 0 basechar 0
AnchorPoint: "Anchor-6" 220 457 basechar 0
AnchorPoint: "Anchor-5" 182 447 basechar 0
AnchorPoint: "Anchor-4" 240 0 basechar 0
LayerCount: 2
Fore
SplineSet
390.5 405 m 128,-1,1
 451 343 451 343 451 230 c 0,2,3
 451 155 451 155 423 100.5 c 128,-1,4
 395 46 395 46 347.5 17.5 c 128,-1,5
 300 -11 300 -11 241 -11 c 0,6,7
 158 -11 158 -11 106.5 44 c 128,-1,8
 55 99 55 99 55 206 c 0,9,10
 55 217 55 217 57 239 c 1,11,-1
 382 239 l 1,12,13
 378 323 378 323 335 366 c 128,-1,14
 292 409 292 409 226 409 c 0,15,16
 155 409 155 409 108 358 c 1,17,-1
 68 397 l 1,18,19
 126 467 126 467 228 467 c 256,20,0
 330 467 330 467 390.5 405 c 128,-1,1
128 183 m 1,21,22
 128 119 128 119 160.5 81.5 c 128,-1,23
 193 44 193 44 246 44 c 0,24,25
 296 44 296 44 333 79 c 128,-1,26
 370 114 370 114 379 183 c 1,27,-1
 128 183 l 1,21,22
EndSplineSet
Validated: 1
EndChar

StartChar: uni027B
Encoding: 636 635 380
Width: 500
GlyphClass: 2
Flags: W
LayerCount: 2
Fore
SplineSet
488 -139 m 1,0,1
 453 -177 453 -177 396 -177 c 0,2,3
 344 -177 344 -177 305.5 -145 c 128,-1,4
 267 -113 267 -113 268 -41 c 2,5,-1
 269 86 l 1,6,7
 251 40 251 40 214 14.5 c 128,-1,8
 177 -11 177 -11 133 -11 c 0,9,10
 102 -11 102 -11 77 1 c 128,-1,11
 52 13 52 13 25 39 c 1,12,-1
 55 95 l 1,13,-1
 55 96 l 2,14,15
 56 96 56 96 56 95.5 c 128,-1,16
 56 95 56 95 56 95 c 1,17,18
 77 71 77 71 95 61 c 128,-1,19
 113 51 113 51 138 51 c 0,20,21
 171 51 171 51 200.5 69 c 128,-1,22
 230 87 230 87 249 124 c 128,-1,23
 268 161 268 161 268 215 c 2,24,-1
 268 458 l 1,25,-1
 341 458 l 1,26,-1
 343 -41 l 2,27,28
 343 -76 343 -76 361 -95.5 c 128,-1,29
 379 -115 379 -115 407 -115 c 0,30,31
 414 -115 414 -115 424 -113.5 c 128,-1,32
 434 -112 434 -112 437.5 -112.5 c 128,-1,33
 441 -113 441 -113 435 -118 c 1,34,35
 465 -94 465 -94 465 -92 c 2,36,37
 465 -92 465 -92 460.5 -92 c 128,-1,38
 456 -92 456 -92 457 -88 c 2,39,-1
 463 -83 l 1,40,-1
 469 -91 l 1,41,-1
 488 -139 l 1,0,1
65 99 m 2,42,43
 65 97 65 97 62 97.5 c 128,-1,44
 59 98 59 98 57 100 c 2,45,-1
 59 104 l 1,46,-1
 65 101 l 1,47,-1
 65 99 l 2,42,43
53 100.5 m 128,-1,49
 54 101 54 101 57 100 c 2,50,-1
 55 96 l 1,51,48
 52 100 52 100 53 100.5 c 128,-1,49
EndSplineSet
Validated: 37
EndChar

StartChar: uni0298
Encoding: 637 664 381
Width: 500
GlyphClass: 2
Flags: W
AnchorPoint: "Anchor-8" 379 584 basechar 0
AnchorPoint: "Anchor-7" 250 312 basechar 0
AnchorPoint: "Anchor-6" 253 313 basechar 0
AnchorPoint: "Anchor-5" 287 10 basechar 0
AnchorPoint: "Anchor-4" 250 0 basechar 0
LayerCount: 2
Fore
SplineSet
85 72 m 128,-1,1
 27 155 27 155 27 308 c 0,2,3
 27 457 27 457 85.5 542 c 128,-1,4
 144 627 144 627 250 627 c 256,5,6
 356 627 356 627 414.5 542 c 128,-1,7
 473 457 473 457 473 308 c 0,8,9
 473 155 473 155 415 72 c 128,-1,10
 357 -11 357 -11 250 -11 c 256,11,0
 143 -11 143 -11 85 72 c 128,-1,1
361.5 117 m 128,-1,13
 401 184 401 184 401 308 c 0,14,15
 401 427 401 427 361 496.5 c 128,-1,16
 321 566 321 566 250 566 c 256,17,18
 179 566 179 566 139 496.5 c 128,-1,19
 99 427 99 427 99 308 c 0,20,21
 99 184 99 184 138.5 117 c 128,-1,22
 178 50 178 50 250 50 c 256,23,12
 322 50 322 50 361.5 117 c 128,-1,13
221 281 m 128,-1,25
 208 294 208 294 208 312 c 0,26,27
 208 331 208 331 220.5 344 c 128,-1,28
 233 357 233 357 252 357 c 256,29,30
 271 357 271 357 284 343.5 c 128,-1,31
 297 330 297 330 297 312 c 256,32,33
 297 294 297 294 284 281 c 128,-1,34
 271 268 271 268 252 268 c 0,35,24
 234 268 234 268 221 281 c 128,-1,25
EndSplineSet
Validated: 1
EndChar

StartChar: uni029A
Encoding: 638 666 382
Width: 500
GlyphClass: 2
Flags: W
LayerCount: 2
Fore
SplineSet
148 12 m 128,-1,1
 104 32 104 32 79.5 66.5 c 128,-1,2
 55 101 55 101 55 143 c 256,3,4
 55 185 55 185 78.5 214 c 128,-1,5
 102 243 102 243 143 252 c 1,6,7
 83 286 83 286 83 344 c 0,8,9
 83 379 83 379 105.5 407 c 128,-1,10
 128 435 128 435 167 451 c 128,-1,11
 206 467 206 467 254 467 c 0,12,13
 316 467 316 467 363.5 436.5 c 128,-1,14
 411 406 411 406 437 352 c 128,-1,15
 463 298 463 298 463 229 c 256,16,17
 463 160 463 160 436 106.5 c 128,-1,18
 409 53 409 53 360.5 22.5 c 128,-1,19
 312 -8 312 -8 248 -8 c 0,20,0
 192 -8 192 -8 148 12 c 128,-1,1
349 99 m 128,-1,22
 387 146 387 146 387 230 c 0,23,24
 387 309 387 309 350 358 c 128,-1,25
 313 407 313 407 251 407 c 0,26,27
 206 407 206 407 183 388.5 c 128,-1,28
 160 370 160 370 160 339 c 0,29,30
 160 277 160 277 251 277 c 0,31,32
 267 277 267 277 275 278 c 1,33,-1
 275 211 l 1,34,35
 268 212 268 212 257.5 213 c 128,-1,36
 247 214 247 214 239 214 c 0,37,38
 191 214 191 214 162 194.5 c 128,-1,39
 133 175 133 175 133 137 c 256,40,41
 133 99 133 99 165 75.5 c 128,-1,42
 197 52 197 52 246 52 c 0,43,21
 311 52 311 52 349 99 c 128,-1,22
EndSplineSet
Validated: 1
EndChar

StartChar: uni02BB
Encoding: 641 699 385
Width: 500
GlyphClass: 4
Flags: W
AnchorPoint: "Anchor-10" 245 629 basemark 0
LayerCount: 2
Fore
SplineSet
305 608 m 1,0,1
 280 585 280 585 263 558 c 128,-1,2
 246 531 246 531 246 514 c 0,3,4
 246 506 246 506 250.5 500.5 c 128,-1,5
 255 495 255 495 267 484 c 0,6,7
 280 472 280 472 286 464 c 128,-1,8
 292 456 292 456 292 444 c 0,9,10
 292 422 292 422 277 406.5 c 128,-1,11
 262 391 262 391 239 391 c 0,12,13
 214 391 214 391 196 412.5 c 128,-1,14
 178 434 178 434 178 466 c 0,15,16
 178 536 178 536 274 635 c 1,17,-1
 305 608 l 1,0,1
EndSplineSet
Validated: 1
EndChar

StartChar: uni02BC
Encoding: 642 700 386
Width: 500
GlyphClass: 2
Flags: W
LayerCount: 2
Fore
SplineSet
180 478 m 1,0,1
 203 498 203 498 217.5 523 c 128,-1,2
 232 548 232 548 232 563 c 0,3,4
 232 570 232 570 226.5 576 c 128,-1,5
 221 582 221 582 214 588 c 0,6,7
 202 599 202 599 196.5 606 c 128,-1,8
 191 613 191 613 191 624 c 0,9,10
 191 644 191 644 204.5 657.5 c 128,-1,11
 218 671 218 671 239 671 c 0,12,13
 261 671 261 671 277 652 c 128,-1,14
 293 633 293 633 293 605 c 0,15,16
 293 539 293 539 208 454 c 1,17,-1
 180 478 l 1,0,1
EndSplineSet
Validated: 1
EndChar

StartChar: uni02BE
Encoding: 643 702 387
Width: 500
GlyphClass: 2
Flags: W
LayerCount: 2
Fore
SplineSet
196 498 m 1,0,1
 219 498 219 498 235.5 516 c 128,-1,2
 252 534 252 534 252 558 c 256,3,4
 252 582 252 582 235 600.5 c 128,-1,5
 218 619 218 619 195 619 c 1,6,-1
 196 665 l 1,7,8
 240 665 240 665 272 633.5 c 128,-1,9
 304 602 304 602 304 557 c 256,10,11
 304 512 304 512 272.5 481 c 128,-1,12
 241 450 241 450 196 450 c 1,13,-1
 196 498 l 1,0,1
EndSplineSet
Validated: 1
EndChar

StartChar: uni02BF
Encoding: 644 703 388
Width: 500
GlyphClass: 2
Flags: W
LayerCount: 2
Fore
SplineSet
227.5 481 m 128,-1,1
 196 512 196 512 196 557 c 256,2,3
 196 602 196 602 228 633.5 c 128,-1,4
 260 665 260 665 304 665 c 1,5,-1
 305 619 l 1,6,7
 282 619 282 619 265 600.5 c 128,-1,8
 248 582 248 582 248 558 c 256,9,10
 248 534 248 534 264.5 516 c 128,-1,11
 281 498 281 498 304 498 c 1,12,-1
 304 450 l 1,13,0
 259 450 259 450 227.5 481 c 128,-1,1
EndSplineSet
Validated: 1
EndChar

StartChar: circumflex
Encoding: 645 710 389
Width: 500
GlyphClass: 2
Flags: W
LayerCount: 2
Fore
SplineSet
343 518 m 1,0,-1
 255 621 l 1,1,-1
 160 515 l 1,2,-1
 124 545 l 1,3,-1
 245 685 l 1,4,-1
 267 685 l 1,5,-1
 387 544 l 1,6,-1
 343 518 l 1,0,-1
EndSplineSet
Validated: 1
EndChar

StartChar: caron
Encoding: 646 711 390
Width: 500
GlyphClass: 2
Flags: W
LayerCount: 2
Fore
SplineSet
244 518 m 1,0,-1
 134 659 l 1,1,-1
 180 694 l 1,2,-1
 258 591 l 1,3,-1
 339 693 l 1,4,-1
 377 658 l 1,5,-1
 266 518 l 1,6,-1
 244 518 l 1,0,-1
EndSplineSet
Validated: 1
Substitution2: "Single Substitution lookup 28 subtable" caron.case
Substitution2: "'case' Case-Sensitive Forms in Latin lookup 22 subtable" caron.case
Substitution2: "'aalt' Access All Alternates in Latin lookup 0 subtable" caron.case
EndChar

StartChar: uni02C8
Encoding: 647 712 391
Width: 500
GlyphClass: 2
Flags: W
LayerCount: 2
Fore
SplineSet
292 445 m 1,0,-1
 221 445 l 1,1,-1
 221 665 l 1,2,-1
 292 665 l 1,3,-1
 292 445 l 1,0,-1
EndSplineSet
Validated: 1
EndChar

StartChar: uni02C9
Encoding: 648 713 392
Width: 500
GlyphClass: 2
Flags: W
LayerCount: 2
Fore
SplineSet
123 565 m 1,0,-1
 123 621 l 1,1,-1
 377 621 l 1,2,-1
 377 565 l 1,3,-1
 123 565 l 1,0,-1
EndSplineSet
Validated: 1
EndChar

StartChar: uni02CA
Encoding: 649 714 393
Width: 500
GlyphClass: 2
Flags: W
LayerCount: 2
Fore
SplineSet
228 558 m 1,0,-1
 184 558 l 1,1,-1
 275 704 l 1,2,-1
 346 704 l 1,3,-1
 228 558 l 1,0,-1
EndSplineSet
Validated: 1
EndChar

StartChar: uni02CB
Encoding: 650 715 394
Width: 500
GlyphClass: 2
Flags: W
LayerCount: 2
Fore
SplineSet
281 522 m 1,0,-1
 180 657 l 1,1,-1
 243 699 l 1,2,-1
 331 552 l 1,3,-1
 281 522 l 1,0,-1
EndSplineSet
Validated: 1
EndChar

StartChar: uni02CC
Encoding: 651 716 395
Width: 500
GlyphClass: 2
Flags: W
LayerCount: 2
Fore
SplineSet
287 -190 m 1,0,-1
 214 -190 l 1,1,-1
 214 30 l 1,2,-1
 287 30 l 1,3,-1
 287 -190 l 1,0,-1
EndSplineSet
Validated: 1
EndChar

StartChar: breve
Encoding: 652 728 396
Width: 500
GlyphClass: 2
Flags: W
LayerCount: 2
Fore
SplineSet
101 601 m 1,1,-1
 137 646 l 1,2,3
 157 615 157 615 186.5 595.5 c 128,-1,4
 216 576 216 576 250 576 c 0,5,6
 314 576 314 576 369 646 c 1,7,-1
 397 604 l 1,8,9
 369 567 369 567 330.5 545.5 c 128,-1,10
 292 524 292 524 251 524 c 0,11,0
 166 524 166 524 101 601 c 1,1,-1
EndSplineSet
Validated: 1
Substitution2: "Single Substitution lookup 28 subtable" breve.case
Substitution2: "'case' Case-Sensitive Forms in Latin lookup 22 subtable" breve.case
Substitution2: "'aalt' Access All Alternates in Latin lookup 0 subtable" breve.case
EndChar

StartChar: dotaccent
Encoding: 653 729 397
Width: 500
GlyphClass: 2
Flags: W
LayerCount: 2
Fore
SplineSet
218 568 m 128,-1,1
 203 583 203 583 203 604 c 0,2,3
 203 626 203 626 217.5 641 c 128,-1,4
 232 656 232 656 254 656 c 0,5,6
 275 656 275 656 290.5 640.5 c 128,-1,7
 306 625 306 625 306 604 c 256,8,9
 306 583 306 583 290.5 568 c 128,-1,10
 275 553 275 553 254 553 c 256,11,0
 233 553 233 553 218 568 c 128,-1,1
EndSplineSet
Validated: 1
Substitution2: "Single Substitution lookup 28 subtable" dotaccent.case
Substitution2: "'case' Case-Sensitive Forms in Latin lookup 22 subtable" dotaccent.case
Substitution2: "'aalt' Access All Alternates in Latin lookup 0 subtable" dotaccent.case
EndChar

StartChar: ring
Encoding: 654 730 398
Width: 500
GlyphClass: 2
Flags: W
LayerCount: 2
Fore
SplineSet
192.5 543 m 128,-1,1
 165 569 165 569 165 605 c 256,2,3
 165 641 165 641 192.5 667 c 128,-1,4
 220 693 220 693 256 693 c 0,5,6
 294 693 294 693 321 667.5 c 128,-1,7
 348 642 348 642 348 605 c 0,8,9
 348 569 348 569 320.5 543 c 128,-1,10
 293 517 293 517 256 517 c 0,11,0
 220 517 220 517 192.5 543 c 128,-1,1
286.5 573.5 m 128,-1,13
 299 587 299 587 299 606 c 256,14,15
 299 625 299 625 286.5 638.5 c 128,-1,16
 274 652 274 652 257 652 c 256,17,18
 240 652 240 652 228 638.5 c 128,-1,19
 216 625 216 625 216 606 c 256,20,21
 216 587 216 587 228 573.5 c 128,-1,22
 240 560 240 560 257 560 c 256,23,12
 274 560 274 560 286.5 573.5 c 128,-1,13
EndSplineSet
Validated: 1
Substitution2: "Single Substitution lookup 28 subtable" ring.case
Substitution2: "'case' Case-Sensitive Forms in Latin lookup 22 subtable" ring.case
Substitution2: "'aalt' Access All Alternates in Latin lookup 0 subtable" ring.case
EndChar

StartChar: ogonek
Encoding: 655 731 399
Width: 500
GlyphClass: 2
Flags: W
LayerCount: 2
Fore
SplineSet
297 -159 m 128,-1,1
 276 -142 276 -142 276 -115 c 0,2,3
 276 -65 276 -65 356 0 c 1,4,-1
 422 0 l 1,5,6
 338 -75 338 -75 338 -102 c 0,7,8
 338 -114 338 -114 346 -122 c 128,-1,9
 354 -130 354 -130 366 -130 c 0,10,11
 395 -130 395 -130 424 -107 c 1,12,-1
 424 -153 l 1,13,14
 395 -176 395 -176 357 -176 c 0,15,0
 318 -176 318 -176 297 -159 c 128,-1,1
EndSplineSet
Validated: 1
EndChar

StartChar: hungarumlaut
Encoding: 657 733 401
Width: 500
GlyphClass: 2
Flags: W
LayerCount: 2
Fore
SplineSet
176 522 m 1,0,-1
 126 552 l 1,1,-1
 214 699 l 1,2,-1
 277 657 l 1,3,-1
 176 522 l 1,0,-1
331 522 m 1,4,-1
 281 552 l 1,5,-1
 369 699 l 1,6,-1
 432 657 l 1,7,-1
 331 522 l 1,4,-1
EndSplineSet
Validated: 1
Substitution2: "Single Substitution lookup 28 subtable" hungarumlaut.case
Substitution2: "'case' Case-Sensitive Forms in Latin lookup 22 subtable" hungarumlaut.case
Substitution2: "'aalt' Access All Alternates in Latin lookup 0 subtable" hungarumlaut.case
EndChar

StartChar: gravecomb
Encoding: 658 768 402
Width: 0
GlyphClass: 4
Flags: W
AnchorPoint: "Anchor-12" -239 457 mark 0
AnchorPoint: "Anchor-10" -277 671 basemark 0
AnchorPoint: "Anchor-10" -239 457 mark 0
AnchorPoint: "Anchor-6" -239 457 mark 0
AnchorPoint: "Anchor-1" -239 457 mark 0
LayerCount: 2
Fore
SplineSet
-245 507 m 1,0,-1
 -346 642 l 1,1,-1
 -291 682 l 1,2,-1
 -207 533 l 1,3,-1
 -245 507 l 1,0,-1
EndSplineSet
Validated: 1
Substitution2: "Single Substitution lookup 28 subtable" gravecomb.case
Substitution2: "'case' Case-Sensitive Forms in Latin lookup 22 subtable" gravecomb.case
Substitution2: "'aalt' Access All Alternates in Latin lookup 0 subtable" gravecomb.case
EndChar

StartChar: acutecomb
Encoding: 659 769 403
Width: 0
GlyphClass: 4
Flags: W
AnchorPoint: "Anchor-12" -239 457 mark 0
AnchorPoint: "Anchor-10" -220 609 basemark 0
AnchorPoint: "Anchor-10" -239 457 mark 0
AnchorPoint: "Anchor-6" -239 457 mark 0
AnchorPoint: "Anchor-1" -239 457 mark 0
LayerCount: 2
Fore
SplineSet
-246 507 m 1,0,-1
 -284 533 l 1,1,-1
 -200 682 l 1,2,-1
 -145 642 l 1,3,-1
 -246 507 l 1,0,-1
EndSplineSet
Validated: 1
Substitution2: "Single Substitution lookup 28 subtable" acutecomb.case
Substitution2: "'case' Case-Sensitive Forms in Latin lookup 22 subtable" acutecomb.case
Substitution2: "'aalt' Access All Alternates in Latin lookup 0 subtable" acutecomb.case
EndChar

StartChar: uni0302
Encoding: 660 770 404
Width: 0
GlyphClass: 4
Flags: W
AnchorPoint: "Anchor-12" -250 457 mark 0
AnchorPoint: "Anchor-10" -105 568 basemark 0
AnchorPoint: "Anchor-10" -250 457 mark 0
AnchorPoint: "Anchor-6" -250 457 mark 0
AnchorPoint: "Anchor-1" -250 457 mark 0
LayerCount: 2
Fore
SplineSet
-361 511 m 1,0,-1
 -401 545 l 1,1,-1
 -262 685 l 1,2,-1
 -238 685 l 1,3,-1
 -99 545 l 1,4,-1
 -139 511 l 1,5,-1
 -250 621 l 1,6,-1
 -361 511 l 1,0,-1
EndSplineSet
Validated: 1
Substitution2: "Single Substitution lookup 28 subtable" uni0302.case
Substitution2: "'case' Case-Sensitive Forms in Latin lookup 22 subtable" uni0302.case
Substitution2: "'aalt' Access All Alternates in Latin lookup 0 subtable" uni0302.case
EndChar

StartChar: tildecomb
Encoding: 661 771 405
Width: 0
GlyphClass: 4
Flags: W
AnchorPoint: "Anchor-12" -240 457 mark 0
AnchorPoint: "Anchor-10" -240 636 basemark 0
AnchorPoint: "Anchor-10" -240 457 mark 0
AnchorPoint: "Anchor-6" -240 457 mark 0
AnchorPoint: "Anchor-1" -240 457 mark 0
LayerCount: 2
Fore
SplineSet
-69 649 m 1,0,1
 -91 607 -91 607 -111.5 590.5 c 128,-1,2
 -132 574 -132 574 -162 574 c 0,3,4
 -183 574 -183 574 -199.5 581.5 c 128,-1,5
 -216 589 -216 589 -238 604 c 0,6,7
 -257 616 -257 616 -268.5 622 c 128,-1,8
 -280 628 -280 628 -294 628 c 0,9,10
 -312 628 -312 628 -325 617.5 c 128,-1,11
 -338 607 -338 607 -350 581 c 1,12,-1
 -399 603 l 1,13,14
 -384 639 -384 639 -358.5 661 c 128,-1,15
 -333 683 -333 683 -296 683 c 0,16,17
 -275 683 -275 683 -260 675.5 c 128,-1,18
 -245 668 -245 668 -224 654 c 0,19,20
 -207 641 -207 641 -194 635 c 128,-1,21
 -181 629 -181 629 -166 629 c 0,22,23
 -150 629 -150 629 -139.5 639 c 128,-1,24
 -129 649 -129 649 -115 677 c 1,25,-1
 -69 649 l 1,0,1
EndSplineSet
Validated: 1
Substitution2: "Single Substitution lookup 28 subtable" tildecomb.case
Substitution2: "'case' Case-Sensitive Forms in Latin lookup 22 subtable" tildecomb.case
Substitution2: "'aalt' Access All Alternates in Latin lookup 0 subtable" tildecomb.case
EndChar

StartChar: uni0304
Encoding: 662 772 406
Width: 0
GlyphClass: 4
Flags: W
AnchorPoint: "Anchor-12" -250 457 mark 0
AnchorPoint: "Anchor-10" -250 611 basemark 0
AnchorPoint: "Anchor-10" -250 457 mark 0
AnchorPoint: "Anchor-6" -250 457 mark 0
AnchorPoint: "Anchor-1" -250 457 mark 0
LayerCount: 2
Fore
SplineSet
-377 565 m 1,0,-1
 -377 621 l 1,1,-1
 -123 621 l 1,2,-1
 -123 565 l 1,3,-1
 -377 565 l 1,0,-1
EndSplineSet
Validated: 1
EndChar

StartChar: uni0306
Encoding: 663 774 407
Width: 0
GlyphClass: 4
Flags: W
AnchorPoint: "Anchor-12" -242 457 mark 0
AnchorPoint: "Anchor-10" -242 654 basemark 0
AnchorPoint: "Anchor-10" -242 457 mark 0
AnchorPoint: "Anchor-6" -242 457 mark 0
AnchorPoint: "Anchor-1" -242 457 mark 0
LayerCount: 2
Fore
SplineSet
-100 630 m 1,0,1
 -123 586 -123 586 -159.5 562 c 128,-1,2
 -196 538 -196 538 -242 538 c 256,3,4
 -288 538 -288 538 -324.5 562 c 128,-1,5
 -361 586 -361 586 -384 630 c 1,6,-1
 -332 654 l 1,7,8
 -316 619 -316 619 -294 602.5 c 128,-1,9
 -272 586 -272 586 -242 586 c 256,10,11
 -212 586 -212 586 -190 602.5 c 128,-1,12
 -168 619 -168 619 -152 654 c 1,13,-1
 -100 630 l 1,0,1
EndSplineSet
Validated: 1
Substitution2: "Single Substitution lookup 28 subtable" uni0306.case
Substitution2: "'case' Case-Sensitive Forms in Latin lookup 22 subtable" uni0306.case
Substitution2: "'aalt' Access All Alternates in Latin lookup 0 subtable" uni0306.case
EndChar

StartChar: uni0307
Encoding: 664 775 408
Width: 0
GlyphClass: 4
Flags: W
AnchorPoint: "Anchor-12" -245 457 mark 0
AnchorPoint: "Anchor-10" -245 605 basemark 0
AnchorPoint: "Anchor-10" -245 457 mark 0
AnchorPoint: "Anchor-6" -245 457 mark 0
AnchorPoint: "Anchor-1" -245 457 mark 0
LayerCount: 2
Fore
SplineSet
-282 568 m 128,-1,1
 -297 583 -297 583 -297 604 c 0,2,3
 -297 626 -297 626 -282.5 641 c 128,-1,4
 -268 656 -268 656 -246 656 c 0,5,6
 -225 656 -225 656 -209.5 640.5 c 128,-1,7
 -194 625 -194 625 -194 604 c 256,8,9
 -194 583 -194 583 -209.5 568 c 128,-1,10
 -225 553 -225 553 -246 553 c 256,11,0
 -267 553 -267 553 -282 568 c 128,-1,1
EndSplineSet
Validated: 1
Substitution2: "Single Substitution lookup 28 subtable" uni0307.case
Substitution2: "'case' Case-Sensitive Forms in Latin lookup 22 subtable" uni0307.case
Substitution2: "'aalt' Access All Alternates in Latin lookup 0 subtable" uni0307.case
EndChar

StartChar: uni0308
Encoding: 665 776 409
Width: 0
GlyphClass: 4
Flags: W
AnchorPoint: "Anchor-12" -249 457 mark 0
AnchorPoint: "Anchor-10" -248 605 basemark 0
AnchorPoint: "Anchor-10" -249 457 mark 0
AnchorPoint: "Anchor-6" -249 457 mark 0
AnchorPoint: "Anchor-1" -249 457 mark 0
LayerCount: 2
Fore
SplineSet
-373 579 m 128,-1,1
 -388 594 -388 594 -388 614 c 256,2,3
 -388 634 -388 634 -373 649.5 c 128,-1,4
 -358 665 -358 665 -337 665 c 0,5,6
 -317 665 -317 665 -302 650 c 128,-1,7
 -287 635 -287 635 -287 614 c 0,8,9
 -287 594 -287 594 -302 579 c 128,-1,10
 -317 564 -317 564 -337 564 c 0,11,0
 -358 564 -358 564 -373 579 c 128,-1,1
-194.5 578.5 m 128,-1,13
 -209 593 -209 593 -209 614 c 256,14,15
 -209 635 -209 635 -194.5 650 c 128,-1,16
 -180 665 -180 665 -159 665 c 0,17,18
 -139 665 -139 665 -124 650 c 128,-1,19
 -109 635 -109 635 -109 614 c 0,20,21
 -109 594 -109 594 -124 579 c 128,-1,22
 -139 564 -139 564 -159 564 c 0,23,12
 -180 564 -180 564 -194.5 578.5 c 128,-1,13
EndSplineSet
Validated: 1
Substitution2: "Single Substitution lookup 28 subtable" uni0308.case
Substitution2: "'case' Case-Sensitive Forms in Latin lookup 22 subtable" uni0308.case
Substitution2: "'aalt' Access All Alternates in Latin lookup 0 subtable" uni0308.case
EndChar

StartChar: hookabovecomb
Encoding: 666 777 410
Width: 0
GlyphClass: 4
Flags: W
AnchorPoint: "Anchor-12" -265 457 mark 0
AnchorPoint: "Anchor-10" -259 671 basemark 0
AnchorPoint: "Anchor-10" -265 457 mark 0
AnchorPoint: "Anchor-6" -265 457 mark 0
AnchorPoint: "Anchor-1" -265 457 mark 0
LayerCount: 2
Fore
SplineSet
-187 600.5 m 128,-1,1
 -194 590 -194 590 -209 577 c 0,2,3
 -223 565 -223 565 -229.5 555.5 c 128,-1,4
 -236 546 -236 546 -236 530 c 2,5,-1
 -236 523 l 1,6,-1
 -287 523 l 1,7,-1
 -287 551 l 2,8,9
 -287 571 -287 571 -258 596 c 0,10,11
 -246 607 -246 607 -240.5 614 c 128,-1,12
 -235 621 -235 621 -235 628 c 0,13,14
 -235 641 -235 641 -244 648.5 c 128,-1,15
 -253 656 -253 656 -266 656 c 0,16,17
 -300 656 -300 656 -310 624 c 1,18,-1
 -347 662 l 1,19,20
 -329 684 -329 684 -308.5 694 c 128,-1,21
 -288 704 -288 704 -261 704 c 0,22,23
 -227 704 -227 704 -203.5 684 c 128,-1,24
 -180 664 -180 664 -180 630 c 0,25,0
 -180 611 -180 611 -187 600.5 c 128,-1,1
EndSplineSet
Validated: 1
EndChar

StartChar: uni030A
Encoding: 667 778 411
Width: 0
GlyphClass: 4
Flags: W
AnchorPoint: "Anchor-12" -243 457 mark 0
AnchorPoint: "Anchor-10" -243 693 basemark 0
AnchorPoint: "Anchor-10" -243 457 mark 0
AnchorPoint: "Anchor-6" -243 457 mark 0
AnchorPoint: "Anchor-1" -243 457 mark 0
LayerCount: 2
Fore
SplineSet
-307.5 543 m 128,-1,1
 -335 569 -335 569 -335 605 c 256,2,3
 -335 641 -335 641 -307.5 667 c 128,-1,4
 -280 693 -280 693 -244 693 c 0,5,6
 -206 693 -206 693 -179 667.5 c 128,-1,7
 -152 642 -152 642 -152 605 c 0,8,9
 -152 569 -152 569 -179.5 543 c 128,-1,10
 -207 517 -207 517 -244 517 c 0,11,0
 -280 517 -280 517 -307.5 543 c 128,-1,1
-213.5 573.5 m 128,-1,13
 -201 587 -201 587 -201 606 c 256,14,15
 -201 625 -201 625 -213.5 638.5 c 128,-1,16
 -226 652 -226 652 -243 652 c 256,17,18
 -260 652 -260 652 -272 638.5 c 128,-1,19
 -284 625 -284 625 -284 606 c 256,20,21
 -284 587 -284 587 -272 573.5 c 128,-1,22
 -260 560 -260 560 -243 560 c 256,23,12
 -226 560 -226 560 -213.5 573.5 c 128,-1,13
EndSplineSet
Validated: 1
Substitution2: "Single Substitution lookup 28 subtable" uni030A.case
Substitution2: "'case' Case-Sensitive Forms in Latin lookup 22 subtable" uni030A.case
Substitution2: "'aalt' Access All Alternates in Latin lookup 0 subtable" uni030A.case
EndChar

StartChar: uni030B
Encoding: 668 779 412
Width: 0
GlyphClass: 4
Flags: W
AnchorPoint: "Anchor-12" -261 457 mark 0
AnchorPoint: "Anchor-10" -221 699 basemark 0
AnchorPoint: "Anchor-10" -261 457 mark 0
AnchorPoint: "Anchor-6" -261 457 mark 0
AnchorPoint: "Anchor-1" -261 457 mark 0
LayerCount: 2
Fore
SplineSet
-324 522 m 1,0,-1
 -374 552 l 1,1,-1
 -286 699 l 1,2,-1
 -223 657 l 1,3,-1
 -324 522 l 1,0,-1
-169 522 m 1,4,-1
 -219 552 l 1,5,-1
 -131 699 l 1,6,-1
 -68 657 l 1,7,-1
 -169 522 l 1,4,-1
EndSplineSet
Validated: 1
Substitution2: "Single Substitution lookup 28 subtable" uni030B.case
Substitution2: "'case' Case-Sensitive Forms in Latin lookup 22 subtable" uni030B.case
Substitution2: "'aalt' Access All Alternates in Latin lookup 0 subtable" uni030B.case
EndChar

StartChar: uni030C
Encoding: 669 780 413
Width: 0
GlyphClass: 4
Flags: W
AnchorPoint: "Anchor-12" -244 457 mark 0
AnchorPoint: "Anchor-10" -244 604 basemark 0
AnchorPoint: "Anchor-10" -244 457 mark 0
AnchorPoint: "Anchor-6" -244 457 mark 0
AnchorPoint: "Anchor-1" -244 457 mark 0
LayerCount: 2
Fore
SplineSet
-356 688 m 1,0,-1
 -245 578 l 1,1,-1
 -134 688 l 1,2,-1
 -94 654 l 1,3,-1
 -233 514 l 1,4,-1
 -257 514 l 1,5,-1
 -396 654 l 1,6,-1
 -356 688 l 1,0,-1
EndSplineSet
Validated: 1
Substitution2: "Single Substitution lookup 28 subtable" uni030C.case
Substitution2: "'case' Case-Sensitive Forms in Latin lookup 22 subtable" uni030C.case
Substitution2: "'aalt' Access All Alternates in Latin lookup 0 subtable" uni030C.case
EndChar

StartChar: uni0311
Encoding: 671 785 415
Width: 0
GlyphClass: 4
Flags: W
AnchorPoint: "Anchor-12" -242 457 mark 0
AnchorPoint: "Anchor-10" -242 644 basemark 0
AnchorPoint: "Anchor-10" -242 457 mark 0
AnchorPoint: "Anchor-6" -242 457 mark 0
AnchorPoint: "Anchor-1" -242 457 mark 0
LayerCount: 2
Fore
SplineSet
-190 579.5 m 128,-1,1
 -212 596 -212 596 -242 596 c 256,2,3
 -272 596 -272 596 -294 579.5 c 128,-1,4
 -316 563 -316 563 -332 528 c 1,5,-1
 -384 552 l 1,6,7
 -361 596 -361 596 -324.5 620 c 128,-1,8
 -288 644 -288 644 -242 644 c 256,9,10
 -196 644 -196 644 -159.5 620 c 128,-1,11
 -123 596 -123 596 -100 552 c 1,12,-1
 -152 528 l 1,13,0
 -168 563 -168 563 -190 579.5 c 128,-1,1
EndSplineSet
Validated: 1
EndChar

StartChar: uni0312
Encoding: 672 786 416
Width: 0
GlyphClass: 4
Flags: W
AnchorPoint: "Anchor-12" -264 467 mark 0
AnchorPoint: "Anchor-10" -264 818 basemark 0
AnchorPoint: "Anchor-10" -264 467 mark 0
AnchorPoint: "Anchor-6" -264 467 mark 0
AnchorPoint: "Anchor-1" -264 467 mark 0
LayerCount: 2
Fore
SplineSet
-193 791 m 1,0,1
 -221 765 -221 765 -239.5 735 c 128,-1,2
 -258 705 -258 705 -258 686 c 0,3,4
 -258 677 -258 677 -253 671 c 128,-1,5
 -248 665 -248 665 -235 653 c 0,6,7
 -221 640 -221 640 -214 631 c 128,-1,8
 -207 622 -207 622 -207 609 c 0,9,10
 -207 584 -207 584 -223.5 567 c 128,-1,11
 -240 550 -240 550 -266 550 c 0,12,13
 -293 550 -293 550 -313.5 573.5 c 128,-1,14
 -334 597 -334 597 -334 633 c 0,15,16
 -334 711 -334 711 -227 821 c 1,17,-1
 -193 791 l 1,0,1
EndSplineSet
Validated: 1
EndChar

StartChar: uni031B
Encoding: 673 795 417
Width: 0
GlyphClass: 4
Flags: W
AnchorPoint: "Anchor-11" -104 457 basemark 0
AnchorPoint: "Anchor-11" -104 457 mark 0
AnchorPoint: "Anchor-8" -104 457 mark 0
AnchorPoint: "Anchor-3" -104 457 mark 0
LayerCount: 2
Fore
SplineSet
-104 457 m 1,0,1
 -87 457 -87 457 -80.5 474 c 128,-1,2
 -74 491 -74 491 -74 541 c 1,3,-1
 -10 541 l 1,4,5
 -10 489 -10 489 -17 461.5 c 128,-1,6
 -24 434 -24 434 -44 421 c 128,-1,7
 -64 408 -64 408 -104 408 c 1,8,-1
 -104 457 l 1,0,1
EndSplineSet
Validated: 1
Substitution2: "Single Substitution lookup 28 subtable" uni031B.case
Substitution2: "'case' Case-Sensitive Forms in Latin lookup 22 subtable" uni031B.case
Substitution2: "'aalt' Access All Alternates in Latin lookup 0 subtable" uni031B.case
EndChar

StartChar: dotbelowcomb
Encoding: 674 803 418
Width: 0
GlyphClass: 4
Flags: W
AnchorPoint: "Anchor-9" -261 -171 basemark 0
AnchorPoint: "Anchor-9" -261 0 mark 0
AnchorPoint: "Anchor-4" -261 0 mark 0
AnchorPoint: "Anchor-0" -261 0 mark 0
LayerCount: 2
Fore
SplineSet
-301 -145 m 128,-1,1
 -316 -130 -316 -130 -316 -109 c 256,2,3
 -316 -88 -316 -88 -301 -72.5 c 128,-1,4
 -286 -57 -286 -57 -264 -57 c 0,5,6
 -243 -57 -243 -57 -228 -72.5 c 128,-1,7
 -213 -88 -213 -88 -213 -109 c 256,8,9
 -213 -130 -213 -130 -228 -145 c 128,-1,10
 -243 -160 -243 -160 -264 -160 c 0,11,0
 -286 -160 -286 -160 -301 -145 c 128,-1,1
EndSplineSet
Validated: 1
EndChar

StartChar: uni0326
Encoding: 676 806 420
Width: 0
GlyphClass: 4
Flags: W
AnchorPoint: "Anchor-9" -264 -269 basemark 0
AnchorPoint: "Anchor-9" -264 0 mark 0
AnchorPoint: "Anchor-4" -264 0 mark 0
AnchorPoint: "Anchor-0" -264 0 mark 0
LayerCount: 2
Fore
SplineSet
-324 -248 m 1,0,1
 -299 -225 -299 -225 -282 -198 c 128,-1,2
 -265 -171 -265 -171 -265 -154 c 0,3,4
 -265 -146 -265 -146 -269.5 -140.5 c 128,-1,5
 -274 -135 -274 -135 -286 -124 c 0,6,7
 -299 -112 -299 -112 -305 -104 c 128,-1,8
 -311 -96 -311 -96 -311 -84 c 0,9,10
 -311 -62 -311 -62 -296 -46.5 c 128,-1,11
 -281 -31 -281 -31 -258 -31 c 0,12,13
 -233 -31 -233 -31 -215 -52.5 c 128,-1,14
 -197 -74 -197 -74 -197 -106 c 0,15,16
 -197 -176 -197 -176 -293 -275 c 1,17,-1
 -324 -248 l 1,0,1
EndSplineSet
Validated: 1
EndChar

StartChar: uni0327
Encoding: 677 807 421
Width: 0
GlyphClass: 4
Flags: W
AnchorPoint: "Anchor-9" -229 -177 basemark 0
AnchorPoint: "Anchor-9" -229 0 mark 0
AnchorPoint: "Anchor-4" -229 0 mark 0
AnchorPoint: "Anchor-0" -229 0 mark 0
LayerCount: 2
Fore
SplineSet
-331 -166 m 1,1,-1
 -306 -124 l 1,2,3
 -269 -154 -269 -154 -219 -154 c 256,4,5
 -169 -154 -169 -154 -169 -118 c 0,6,7
 -169 -102 -169 -102 -182.5 -93.5 c 128,-1,8
 -196 -85 -196 -85 -220 -85 c 2,9,-1
 -250 -85 l 1,10,-1
 -239 0 l 1,11,-1
 -195 0 l 1,12,-1
 -201 -47 l 1,13,14
 -159 -51 -159 -51 -137.5 -69.5 c 128,-1,15
 -116 -88 -116 -88 -116 -112 c 0,16,17
 -116 -148 -116 -148 -146 -172.5 c 128,-1,18
 -176 -197 -176 -197 -232 -197 c 0,19,0
 -285 -197 -285 -197 -331 -166 c 1,1,-1
EndSplineSet
Validated: 1
EndChar

StartChar: uni0328
Encoding: 678 808 422
Width: 0
GlyphClass: 4
Flags: W
AnchorPoint: "Anchor-5" -251 0 mark 0
LayerCount: 2
Fore
SplineSet
-237 -227 m 1,0,1
 -288 -220 -288 -220 -318.5 -197 c 128,-1,2
 -349 -174 -349 -174 -349 -137 c 0,3,4
 -349 -97 -349 -97 -317.5 -57 c 128,-1,5
 -286 -17 -286 -17 -228 17 c 1,6,-1
 -201 0 l 1,7,8
 -239 -30 -239 -30 -261 -63 c 128,-1,9
 -283 -96 -283 -96 -283 -123 c 0,10,11
 -283 -145 -283 -145 -267.5 -160 c 128,-1,12
 -252 -175 -252 -175 -221 -179 c 1,13,-1
 -237 -227 l 1,0,1
EndSplineSet
Validated: 1
EndChar

StartChar: uni032E
Encoding: 679 814 423
Width: 0
GlyphClass: 4
Flags: W
AnchorPoint: "Anchor-9" -252 -188 basemark 0
AnchorPoint: "Anchor-9" -252 0 mark 0
AnchorPoint: "Anchor-4" -252 0 mark 0
AnchorPoint: "Anchor-0" -252 0 mark 0
LayerCount: 2
Fore
SplineSet
-100 -83 m 1,0,1
 -123 -127 -123 -127 -159.5 -151 c 128,-1,2
 -196 -175 -196 -175 -242 -175 c 256,3,4
 -288 -175 -288 -175 -324.5 -151 c 128,-1,5
 -361 -127 -361 -127 -384 -83 c 1,6,-1
 -332 -59 l 1,7,8
 -316 -94 -316 -94 -294 -110.5 c 128,-1,9
 -272 -127 -272 -127 -242 -127 c 256,10,11
 -212 -127 -212 -127 -190 -110.5 c 128,-1,12
 -168 -94 -168 -94 -152 -59 c 1,13,-1
 -100 -83 l 1,0,1
EndSplineSet
Validated: 1
EndChar

StartChar: uni0331
Encoding: 680 817 424
Width: 0
GlyphClass: 4
Flags: W
AnchorPoint: "Anchor-9" -252 -166 basemark 0
AnchorPoint: "Anchor-9" -252 0 mark 0
AnchorPoint: "Anchor-4" -252 0 mark 0
AnchorPoint: "Anchor-0" -252 0 mark 0
LayerCount: 2
Fore
SplineSet
-377 -155 m 1,0,-1
 -377 -99 l 1,1,-1
 -123 -99 l 1,2,-1
 -123 -155 l 1,3,-1
 -377 -155 l 1,0,-1
EndSplineSet
Validated: 1
EndChar

StartChar: uni0335
Encoding: 681 821 425
Width: 0
GlyphClass: 4
Flags: W
AnchorPoint: "Anchor-7" -249 315 mark 0
AnchorPoint: "Anchor-2" -249 315 mark 0
LayerCount: 2
Fore
SplineSet
-379 286 m 1,0,-1
 -379 343 l 1,1,-1
 -109 343 l 1,2,-1
 -109 286 l 1,3,-1
 -379 286 l 1,0,-1
EndSplineSet
Validated: 1
EndChar

StartChar: uni0336
Encoding: 682 822 426
Width: 0
GlyphClass: 4
Flags: W
AnchorPoint: "Anchor-7" -249 315 mark 0
AnchorPoint: "Anchor-2" -249 315 mark 0
LayerCount: 2
Fore
SplineSet
-429 281 m 1,0,-1
 -429 348 l 1,1,-1
 -69 348 l 1,2,-1
 -69 281 l 1,3,-1
 -429 281 l 1,0,-1
EndSplineSet
Validated: 1
EndChar

StartChar: uni0375
Encoding: 683 885 427
Width: 500
GlyphClass: 2
Flags: W
LayerCount: 2
Fore
SplineSet
217 -76 m 1,0,-1
 173 -76 l 1,1,-1
 235 104 l 1,2,-1
 306 104 l 1,3,-1
 217 -76 l 1,0,-1
EndSplineSet
Validated: 1
EndChar

StartChar: uni1E08
Encoding: 684 7688 428
Width: 500
GlyphClass: 2
Flags: W
AnchorPoint: "Anchor-8" 0 0 basechar 0
AnchorPoint: "Anchor-7" 0 0 basechar 0
AnchorPoint: "Anchor-6" 270 741 basechar 0
AnchorPoint: "Anchor-5" 0 0 basechar 0
AnchorPoint: "Anchor-4" 280 -177 basechar 0
LayerCount: 2
Fore
SplineSet
366 721 m 1,0,-1
 197 660 l 1,1,-1
 174 702 l 1,2,-1
 326 791 l 1,3,-1
 366 721 l 1,0,-1
353 70.5 m 128,-1,5
 387 91 387 91 408 126 c 1,6,-1
 460 92 l 1,7,8
 433 47 433 47 397.5 22 c 128,-1,9
 362 -3 362 -3 313 -9 c 1,10,-1
 308 -47 l 1,11,12
 350 -51 350 -51 371.5 -69.5 c 128,-1,13
 393 -88 393 -88 393 -112 c 0,14,15
 393 -148 393 -148 363 -172.5 c 128,-1,16
 333 -197 333 -197 277 -197 c 0,17,18
 224 -197 224 -197 178 -166 c 1,19,-1
 203 -124 l 1,20,21
 241 -154 241 -154 290 -154 c 0,22,23
 340 -154 340 -154 340 -118 c 0,24,25
 340 -102 340 -102 326.5 -93.5 c 128,-1,26
 313 -85 313 -85 289 -85 c 2,27,-1
 259 -85 l 1,28,-1
 269 -10 l 1,29,30
 167 -4 167 -4 104.5 76 c 128,-1,31
 42 156 42 156 41 308 c 0,32,33
 41 423 41 423 76 494.5 c 128,-1,34
 111 566 111 566 165 597 c 128,-1,35
 219 628 219 628 281 628 c 0,36,37
 347 628 347 628 395.5 595 c 128,-1,38
 444 562 444 562 469 505 c 1,39,-1
 409 477 l 2,40,41
 408 477 408 477 408 477.5 c 128,-1,42
 408 478 408 478 408 478 c 1,43,44
 382 530 382 530 350 551 c 128,-1,45
 318 572 318 572 279 572 c 0,46,47
 200 572 200 572 154.5 503.5 c 128,-1,48
 109 435 109 435 109 313 c 0,49,50
 109 236 109 236 132 176 c 128,-1,51
 155 116 155 116 194.5 83 c 128,-1,52
 234 50 234 50 282 50 c 0,53,4
 319 50 319 50 353 70.5 c 128,-1,5
399 482 m 2,55,56
 401 482 401 482 407 476 c 1,57,-1
 400 473 l 1,58,-1
 397 480 l 2,59,54
 399 482 399 482 399 482 c 2,55,56
407 476 m 1,61,-1
 409 477 l 1,62,60
 413 468 413 468 407 476 c 1,61,-1
EndSplineSet
Validated: 5
EndChar

StartChar: uni1E09
Encoding: 685 7689 429
Width: 500
GlyphClass: 2
Flags: W
AnchorPoint: "Anchor-8" 0 0 basechar 0
AnchorPoint: "Anchor-7" 0 0 basechar 0
AnchorPoint: "Anchor-6" 305 609 basechar 0
AnchorPoint: "Anchor-5" 0 0 basechar 0
AnchorPoint: "Anchor-4" 286 -177 basechar 0
LayerCount: 2
Fore
SplineSet
380 642 m 1,0,-1
 279 507 l 1,1,-1
 241 533 l 1,2,-1
 325 682 l 1,3,-1
 380 642 l 1,0,-1
408 110 m 1,5,-1
 450 61 l 1,6,7
 393 1 393 1 319 -9 c 1,8,-1
 314 -47 l 1,9,10
 356 -51 356 -51 377.5 -69.5 c 128,-1,11
 399 -88 399 -88 399 -112 c 0,12,13
 399 -148 399 -148 369 -172.5 c 128,-1,14
 339 -197 339 -197 283 -197 c 0,15,16
 230 -197 230 -197 184 -166 c 1,17,-1
 209 -124 l 1,18,19
 247 -154 247 -154 296 -154 c 0,20,21
 346 -154 346 -154 346 -118 c 0,22,23
 346 -102 346 -102 332.5 -93.5 c 128,-1,24
 319 -85 319 -85 295 -85 c 2,25,-1
 265 -85 l 1,26,-1
 275 -11 l 1,27,28
 212 -9 212 -9 162 23 c 128,-1,29
 112 55 112 55 84 108.5 c 128,-1,30
 56 162 56 162 56 228 c 0,31,32
 56 296 56 296 85.5 350 c 128,-1,33
 115 404 115 404 167 435 c 128,-1,34
 219 466 219 466 284 466 c 0,35,36
 339 466 339 466 384 443.5 c 128,-1,37
 429 421 429 421 457 381 c 1,38,-1
 412 337 l 1,39,-1
 411 336 l 1,40,41
 382 374 382 374 351.5 389.5 c 128,-1,42
 321 405 321 405 276 405 c 0,43,44
 237 405 237 405 203.5 383.5 c 128,-1,45
 170 362 170 362 150 323 c 128,-1,46
 130 284 130 284 130 233 c 256,47,48
 130 182 130 182 150.5 141 c 128,-1,49
 171 100 171 100 207.5 77 c 128,-1,50
 244 54 244 54 289 54 c 0,51,4
 358 54 358 54 408 110 c 1,5,-1
409 334 m 1,53,-1
 405 330 l 1,54,-1
 400 335 l 1,55,52
 400 341 400 341 409 334 c 1,53,-1
413.5 331 m 128,-1,57
 411 333 411 333 409 334 c 2,58,-1
 411 336 l 1,59,56
 416 329 416 329 413.5 331 c 128,-1,57
EndSplineSet
Validated: 5
EndChar

